SplineFontDB: 3.2
FontName: BluelineParadise
FullName: Blueline Paradise
FamilyName: Blueline Paradise
Weight: Book
Copyright: Copyright (c) 2017 by C.T.B. All rights reserved.
Version: 1.000
ItalicAngle: 0
UnderlinePosition: -100
UnderlineWidth: 50
Ascent: 750
Descent: 250
InvalidEm: 0
sfntRevision: 0x00010000
LayerCount: 2
Layer: 0 1 "Back" 1
Layer: 1 1 "Fore" 0
XUID: [1021 591 -489735224 11345281]
StyleMap: 0x0040
FSType: 4
OS2Version: 3
OS2_WeightWidthSlopeOnly: 0
OS2_UseTypoMetrics: 0
CreationTime: 1499923940
ModificationTime: 1574811528
PfmFamily: 81
TTFWeight: 400
TTFWidth: 5
LineGap: 0
VLineGap: 0
Panose: 0 0 0 0 0 0 0 0 0 0
OS2TypoAscent: 750
OS2TypoAOffset: 0
OS2TypoDescent: -250
OS2TypoDOffset: 0
OS2TypoLinegap: 0
OS2WinAscent: 565
OS2WinAOffset: 0
OS2WinDescent: 185
OS2WinDOffset: 0
HheadAscent: 750
HheadAOffset: 0
HheadDescent: -250
HheadDOffset: 0
OS2SubXSize: 700
OS2SubYSize: 650
OS2SubXOff: 0
OS2SubYOff: 140
OS2SupXSize: 700
OS2SupYSize: 650
OS2SupXOff: 0
OS2SupYOff: 477
OS2StrikeYSize: 50
OS2StrikeYPos: 250
OS2CapHeight: 555
OS2XHeight: 346
OS2Vendor: 'CTB '
OS2CodePages: 00000001.00000000
OS2UnicodeRanges: 00000001.00000000.00000000.00000000
Lookup: 258 0 0 "'kern' Horizontal Kerning lookup 0" { "'kern' Horizontal Kerning lookup 0 subtable"  } ['kern' ('DFLT' <'dflt' > ) ]
DEI: 91125
TtTable: prep
PUSHW_1
 0
CALL
SVTCA[y-axis]
PUSHW_3
 1
 2
 2
CALL
SVTCA[y-axis]
PUSHW_8
 1
 108
 89
 69
 50
 30
 0
 8
CALL
PUSHW_8
 2
 30
 25
 19
 14
 9
 0
 8
CALL
SVTCA[y-axis]
PUSHW_3
 3
 4
 7
CALL
PUSHW_1
 0
DUP
RCVT
RDTG
ROUND[Black]
RTG
WCVTP
EndTTInstrs
TtTable: fpgm
PUSHW_1
 0
FDEF
MPPEM
PUSHW_1
 9
LT
IF
PUSHB_2
 1
 1
INSTCTRL
EIF
PUSHW_1
 511
SCANCTRL
PUSHW_1
 68
SCVTCI
PUSHW_2
 9
 3
SDS
SDB
ENDF
PUSHW_1
 1
FDEF
DUP
DUP
RCVT
ROUND[Black]
WCVTP
PUSHB_1
 1
ADD
ENDF
PUSHW_1
 2
FDEF
PUSHW_1
 1
LOOPCALL
POP
ENDF
PUSHW_1
 3
FDEF
DUP
GC[cur]
PUSHB_1
 3
CINDEX
GC[cur]
GT
IF
SWAP
EIF
DUP
ROLL
DUP
ROLL
MD[grid]
ABS
ROLL
DUP
GC[cur]
DUP
ROUND[Grey]
SUB
ABS
PUSHB_1
 4

StartChar: B
Encoding: 66 66 1
Width: 414
Flags: W
LayerCount: 2
Fore
SplineSet
12 12 m 0,0,1
 9 21 9 21 11.5 34 c 128,-1,2
 14 47 14 47 19.5 62 c 128,-1,3
 25 77 25 77 32 93.5 c 128,-1,4
 39 110 39 110 45 126 c 2,5,-1
 68 176 l 1,6,-1
 99 246 l 2,7,8
 108 266 108 266 116.5 286 c 128,-1,9
 125 306 125 306 135 326 c 2,10,-1
 172 406 l 2,11,12
 180 426 180 426 188 443.5 c 128,-1,13
 196 461 196 461 203 476 c 2,14,-1
 208 487 l 1,15,16
 182 484 182 484 169 492 c 128,-1,17
 156 500 156 500 154 511 c 128,-1,18
 152 522 152 522 160.5 532 c 128,-1,19
 169 542 169 542 186 544 c 0,20,21
 249 552 249 552 307 538 c 0,22,23
 367 524 367 524 400.5 489.5 c 128,-1,24
 434 455 434 455 440.5 412.5 c 128,-1,25
 447 370 447 370 427.5 325 c 128,-1,26
 408 280 408 280 362 244 c 0,27,28
 340 227 340 227 320.5 217 c 128,-1,29
 301 207 301 207 281 199 c 1,30,31
 281 199 281 199 283 198 c 0,32,33
 292 193 292 193 299 187.5 c 128,-1,34
 306 182 306 182 316 173 c 0,35,36
 326 163 326 163 334 146 c 128,-1,37
 342 129 342 129 340 110 c 0,38,39
 332 54 332 54 286 26 c 128,-1,40
 240 -2 240 -2 165 -15 c 0,41,42
 151 -17 151 -17 139 -18 c 128,-1,43
 127 -19 127 -19 115 -19 c 0,44,45
 109 -20 109 -20 103 -19.5 c 128,-1,46
 97 -19 97 -19 91 -19 c 0,47,48
 87 -18 87 -18 80 -18 c 0,49,50
 75 -17 75 -17 71.5 -16.5 c 128,-1,51
 68 -16 68 -16 63 -16 c 0,52,53
 46 -13 46 -13 31.5 -6.5 c 128,-1,54
 17 0 17 0 12 12 c 0,0,1
97 105 m 0,55,56
 79 70 79 70 75 57.5 c 128,-1,57
 71 45 71 45 82 38 c 0,58,59
 91 32 91 32 112.5 32 c 128,-1,60
 134 32 134 32 160 37 c 0,61,62
 219 48 219 48 248 69.5 c 128,-1,63
 277 91 277 91 278 113.5 c 128,-1,64
 279 136 279 136 253 155 c 128,-1,65
 227 174 227 174 176 180 c 0,66,67
 168 181 168 181 166.5 188.5 c 128,-1,68
 165 196 165 196 168 205.5 c 128,-1,69
 171 215 171 215 177 224 c 128,-1,70
 183 233 183 233 190 237 c 0,71,72
 208 239 208 239 229.5 244.5 c 128,-1,73
 251 250 251 250 272.5 259 c 128,-1,74
 294 268 294 268 313.5 280.5 c 128,-1,75
 333 293 333 293 346 309 c 0,76,77
 372 341 372 341 377.5 367.5 c 128,-1,78
 383 394 383 394 375.5 414.5 c 128,-1,79
 368 435 368 435 351 450 c 128,-1,80
 334 465 334 465 314 473.5 c 128,-1,81
 294 482 294 482 274 484 c 128,-1,82
 254 486 254 486 241 481 c 1,83,84
 241 481 241 481 245 481 c 128,-1,85
 249 481 249 481 253.5 479 c 128,-1,86
 258 477 258 477 261.5 472.5 c 128,-1,87
 265 468 265 468 262 459 c 0,88,89
 259 448 259 448 253.5 435 c 128,-1,90
 248 422 248 422 241.5 408 c 128,-1,91
 235 394 235 394 228 380.5 c 128,-1,92
 221 367 221 367 216 356 c 2,93,-1
 180 278 l 2,94,95
 162 238 162 238 142.5 197 c 128,-1,96
 123 156 123 156 97 105 c 0,55,56
93 154 m 1,97,-1
 88 141 l 1,98,-1
 83 129 l 2,99,100
 81 125 81 125 79 117 c 0,101,102
 77 114 77 114 75 108 c 2,103,-1
 72 101 l 2,104,105
 72 100 72 100 71.5 99.5 c 128,-1,106
 71 99 71 99 71 98 c 2,107,-1
 71 97 l 2,108,109
 71 96 71 96 73 100 c 0,110,111
 74 102 74 102 74.5 103.5 c 128,-1,112
 75 105 75 105 77 107 c 0,113,114
 79 113 79 113 82 116 c 2,115,-1
 86 127 l 1,116,-1
 92 139 l 1,117,-1
 98 152 l 1,118,-1
 103 165 l 2,119,120
 107 170 107 170 109 178 c 2,121,-1
 115 192 l 2,122,123
 119 200 119 200 120 204 c 0,124,125
 122 209 122 209 124 215 c 256,126,127
 126 221 126 221 128 224 c 0,128,129
 130 230 130 230 130 232 c 2,130,-1
 132 236 l 2,131,132
 133 237 133 237 133 238 c 2,133,-1
 132 237 l 1,134,-1
 131 234 l 1,135,-1
 129 232 l 1,136,-1
 126 225 l 2,137,138
 125 222 125 222 121 216 c 0,139,140
 120 214 120 214 119.5 211 c 128,-1,141
 119 208 119 208 117 206 c 2,142,-1
 111 193 l 1,143,-1
 105 180 l 1,144,-1
 99 167 l 1,145,-1
 93 154 l 1,97,-1
343 500 m 1,146,-1
 329 505 l 1,147,-1
 316 511 l 2,148,149
 313 513 313 513 312.5 511.5 c 128,-1,150
 312 510 312 510 310 511 c 0,151,152
 307 508 307 508 307 506 c 0,153,154
 309 505 309 505 314 505 c 0,155,156
 318 503 318 503 321 502 c 128,-1,157
 324 501 324 501 327 499 c 2,158,-1
 340 494 l 2,159,160
 343 493 343 493 346 491 c 128,-1,161
 349 489 349 489 353 487 c 0,162,163
 356 486 356 486 358 484 c 128,-1,164
 360 482 360 482 365 481 c 0,165,166
 368 479 368 479 370.5 476.5 c 128,-1,167
 373 474 373 474 375 472 c 256,168,169
 377 470 377 470 379 468 c 128,-1,170
 381 466 381 466 383 464 c 256,171,172
 385 462 385 462 387 460.5 c 128,-1,173
 389 459 389 459 389 457 c 0,174,175
 393 452 393 452 396 452 c 2,176,-1
 391 457 l 2,177,178
 391 460 391 460 389.5 462.5 c 128,-1,179
 388 465 388 465 386 467 c 256,180,181
 384 469 384 469 381.5 470 c 128,-1,182
 379 471 379 471 378 474 c 0,183,184
 376 476 376 476 373 478.5 c 128,-1,185
 370 481 370 481 366 483 c 2,186,-1
 361 488 l 2,187,188
 359 489 359 489 357 491 c 2,189,-1
 356 492 l 1,190,-1
 343 500 l 1,146,-1
294 155 m 0,191,192
 289 162 289 162 284 165 c 0,193,194
 281 168 281 168 278 170 c 0,195,196
 274 172 274 172 273 173 c 256,197,198
 272 174 272 174 271 174 c 2,199,-1
 259 183 l 2,200,201
 249 187 249 187 246 189 c 0,202,203
 241 189 241 189 239 188 c 2,204,205
 239 188 239 188 243 186 c 256,206,207
 247 184 247 184 249.5 182 c 128,-1,208
 252 180 252 180 256 178 c 0,209,210
 258 176 258 176 261.5 174.5 c 128,-1,211
 265 173 265 173 269 171 c 2,212,-1
 280 162 l 1,213,-1
 291 153 l 2,214,215
 294 150 294 150 296 147.5 c 128,-1,216
 298 145 298 145 300 143 c 0,217,218
 303 140 303 140 303.5 137.5 c 128,-1,219
 304 135 304 135 306 132 c 0,220,221
 308 130 308 130 308.5 127.5 c 128,-1,222
 309 125 309 125 310 123 c 256,223,224
 311 121 311 121 311 116 c 2,225,-1
 311 109 l 2,226,227
 313 111 313 111 313 115 c 0,228,229
 313 117 313 117 313.5 119.5 c 128,-1,230
 314 122 314 122 313 125 c 0,231,232
 312 127 312 127 312 129 c 128,-1,233
 312 131 312 131 310 133 c 0,234,235
 308 136 308 136 307 139 c 128,-1,236
 306 142 306 142 304 145 c 0,237,238
 301 147 301 147 299 150 c 0,239,240
 298 151 298 151 297.5 152 c 128,-1,241
 297 153 297 153 296 154 c 256,242,243
 295 155 295 155 294 155 c 0,191,192
143 235 m 2,244,245
 139 228 139 228 135.5 219.5 c 128,-1,246
 132 211 132 211 127 201 c 2,247,-1
 119 182 l 1,248,-1
 113 166 l 1,249,-1
 111 159 l 2,250,251
 110 158 110 158 110 154 c 0,252,253
 109 153 109 153 109 152 c 2,254,-1
 110 153 l 1,255,-1
 113 158 l 1,256,-1
 116 165 l 1,257,-1
 124 180 l 2,258,259
 126 185 126 185 128 189 c 128,-1,260
 130 193 130 193 132 198 c 256,261,262
 134 203 134 203 135.5 207.5 c 128,-1,263
 137 212 137 212 139 217 c 2,264,-1
 145 233 l 2,265,266
 147 239 147 239 147 240 c 0,267,268
 147 243 147 243 149 245 c 2,269,-1
 149 248 l 1,270,-1
 148 247 l 2,271,272
 148 246 148 246 147.5 246 c 128,-1,273
 147 246 147 246 147 245 c 2,274,275
 147 245 147 245 145 241 c 2,276,-1
 143 235 l 2,244,245
395 427 m 0,277,278
 396 426 396 426 397 426 c 1,279,280
 396 426 396 426 396 427 c 2,281,282
 396 427 396 427 395 429 c 2,283,284
 395 429 395 429 392 434 c 2,285,-1
 391 438 l 2,286,287
 387 445 387 445 382 452 c 128,-1,288
 377 459 377 459 369 467 c 0,289,290
 363 471 363 471 354 478 c 0,291,292
 350 480 350 480 346 481 c 128,-1,293
 342 482 342 482 337 484 c 1,294,295
 338 486 338 486 336.5 487 c 128,-1,296
 335 488 335 488 334 488 c 0,297,298
 330 488 330 488 328 490 c 1,299,300
 327 489 327 489 325 489 c 1,301,302
 325 488 325 488 326 488 c 2,303,304
 326 488 326 488 328 489 c 1,305,306
 329 487 329 487 330 486.5 c 128,-1,307
 331 486 331 486 331 485 c 1,308,309
 332 485 332 485 333.5 484 c 128,-1,310
 335 483 335 483 337 482 c 0,311,312
 344 478 344 478 351 473 c 2,313,-1
 365 463 l 2,314,315
 368 459 368 459 371.5 456 c 128,-1,316
 375 453 375 453 378 450 c 0,317,318
 380 445 380 445 382.5 442.5 c 128,-1,319
 385 440 385 440 388 436 c 0,320,321
 389 433 389 433 392 433 c 1,322,323
 392 431 392 431 392.5 430 c 128,-1,324
 393 429 393 429 394 427 c 1,325,326
 395 428 395 428 395 427 c 0,277,278
299 108 m 2,327,328
 304 117 304 117 298 129 c 0,329,330
 297 135 297 135 290 142 c 0,331,332
 288 145 288 145 284.5 147.5 c 128,-1,333
 281 150 281 150 279 152 c 2,334,-1
 273 156 l 1,335,-1
 268 159 l 2,336,337
 267 160 267 160 264 160 c 1,338,339
 265 159 265 159 266 159 c 2,340,341
 266 159 266 159 267 158 c 2,342,-1
 271 155 l 2,343,344
 273 153 273 153 277 151 c 0,345,346
 279 148 279 148 281.5 145 c 128,-1,347
 284 142 284 142 287 139 c 2,348,-1
 291 133 l 2,349,350
 294 130 294 130 294 128 c 0,351,352
 298 124 298 124 298 119 c 0,353,354
 299 116 299 116 298 114 c 128,-1,355
 297 112 297 112 297 110 c 0,356,357
 295 106 295 106 295 105 c 2,358,-1
 292 102 l 1,359,-1
 292 100 l 1,360,361
 292 100 292 100 294 101 c 0,362,363
 294 102 294 102 296 104 c 2,364,-1
 299 108 l 2,327,328
65 105 m 0,365,366
 65 104 65 104 64.5 103.5 c 128,-1,367
 64 103 64 103 64 102 c 2,368,369
 64 102 64 102 66 104 c 2,370,-1
 69 111 l 2,371,372
 70 114 70 114 74 120 c 2,373,-1
 78 130 l 2,374,375
 79 133 79 133 80 135.5 c 128,-1,376
 81 138 81 138 83 141 c 2,377,-1
 86 150 l 2,378,379
 88 156 88 156 88 157 c 1,380,381
 88 156 88 156 87.5 155.5 c 128,-1,382
 87 155 87 155 87 154 c 0,383,384
 85 152 85 152 85 151 c 2,385,-1
 81 142 l 2,386,387
 79 139 79 139 78 136.5 c 128,-1,388
 77 134 77 134 76 131 c 0,389,390
 74 129 74 129 73.5 126 c 128,-1,391
 73 123 73 123 72 121 c 2,392,-1
 67 112 l 2,393,394
 67 111 67 111 65 105 c 0,365,366
396 451 m 2,395,396
 397 450 397 450 397 447 c 0,397,398
 397 446 397 446 398 446 c 2,399,-1
 398 450 l 1,400,-1
 396 451 l 2,395,396
310 107 m 2,401,402
 309 107 309 107 309 105 c 2,403,-1
 310 107 l 2,401,402
309 105 m 2,404,405
 308 105 308 105 308 104 c 2,406,-1
 309 105 l 2,404,405
EndSplineSet
Validated: 37
EndChar

StartChar: C
Encoding: 67 67 2
Width: 357
Flags: W
LayerCount: 2
Fore
SplineSet
53 -12 m 0,0,1
 20 4 20 4 8 38 c 128,-1,2
 -4 72 -4 72 1.5 116.5 c 128,-1,3
 7 161 7 161 26.5 211.5 c 128,-1,4
 46 262 46 262 74.5 312 c 128,-1,5
 103 362 103 362 138.5 407 c 128,-1,6
 174 452 174 452 211 485 c 128,-1,7
 248 518 248 518 284.5 535.5 c 128,-1,8
 321 553 321 553 351 547 c 0,9,10
 383 541 383 541 390 512 c 128,-1,11
 397 483 397 483 387 447 c 128,-1,12
 377 411 377 411 354.5 376 c 128,-1,13
 332 341 332 341 306 323 c 0,14,15
 285 309 285 309 274 311.5 c 128,-1,16
 263 314 263 314 259.5 324 c 128,-1,17
 256 334 256 334 259.5 348 c 128,-1,18
 263 362 263 362 273 371 c 1,19,20
 273 370 273 370 276.5 373 c 128,-1,21
 280 376 280 376 286 381 c 128,-1,22
 292 386 292 386 299 393.5 c 128,-1,23
 306 401 306 401 313 409 c 0,24,25
 337 439 337 439 339.5 456.5 c 128,-1,26
 342 474 342 474 330 478 c 128,-1,27
 318 482 318 482 295 472.5 c 128,-1,28
 272 463 272 463 247 438 c 0,29,30
 219 411 219 411 188.5 369 c 128,-1,31
 158 327 158 327 131.5 279.5 c 128,-1,32
 105 232 105 232 86 184.5 c 128,-1,33
 67 137 67 137 62 99.5 c 128,-1,34
 57 62 57 62 68.5 38 c 128,-1,35
 80 14 80 14 116 15 c 0,36,37
 142 15 142 15 169 22.5 c 128,-1,38
 196 30 196 30 224 47.5 c 128,-1,39
 252 65 252 65 280.5 95 c 128,-1,40
 309 125 309 125 339 170 c 0,41,42
 364 209 364 209 381.5 219 c 128,-1,43
 399 229 399 229 405 219 c 128,-1,44
 411 209 411 209 404 182.5 c 128,-1,45
 397 156 397 156 374 122 c 0,46,47
 344 78 344 78 303.5 45 c 128,-1,48
 263 12 263 12 219 -6.5 c 128,-1,49
 175 -25 175 -25 131.5 -27 c 128,-1,50
 88 -29 88 -29 53 -12 c 0,0,1
162 399 m 0,51,52
 181 420 181 420 178.5 420 c 128,-1,53
 176 420 176 420 156 402 c 0,54,55
 153 398 153 398 150 395 c 128,-1,56
 147 392 147 392 144 387 c 0,57,58
 137 380 137 380 130 372 c 128,-1,59
 123 364 123 364 117 354 c 0,60,61
 112 346 112 346 107 338 c 128,-1,62
 102 330 102 330 98 320 c 2,63,-1
 81 289 l 2,64,65
 79 286 79 286 78.5 282 c 128,-1,66
 78 278 78 278 76 276 c 0,67,68
 74 270 74 270 71 263 c 0,69,70
 71 261 71 261 69 259 c 2,71,72
 69 259 69 259 70 258 c 1,73,74
 70 259 70 259 71 260.5 c 128,-1,75
 72 262 72 262 72 264 c 0,76,77
 74 266 74 266 74.5 269.5 c 128,-1,78
 75 273 75 273 77 275 c 2,79,-1
 81 286 l 2,80,81
 90 300 90 300 99 315.5 c 128,-1,82
 108 331 108 331 121 350 c 0,83,84
 128 359 128 359 134.5 367.5 c 128,-1,85
 141 376 141 376 148 382 c 0,86,87
 150 386 150 386 152.5 388 c 128,-1,88
 155 390 155 390 158 396 c 2,89,-1
 158 397 l 1,90,-1
 159 397 l 2,91,92
 160 397 160 397 162 399 c 0,51,52
173 9 m 0,93,94
 153 1 153 1 155.5 0.5 c 128,-1,95
 158 0 158 0 177 4 c 0,96,97
 182 5 182 5 185 7.5 c 128,-1,98
 188 10 188 10 191 9 c 0,99,100
 207 13 207 13 221 21 c 0,101,102
 226 22 226 22 232.5 27 c 128,-1,103
 239 32 239 32 244 37 c 2,104,-1
 267 52 l 2,105,106
 269 54 269 54 271 57 c 128,-1,107
 273 60 273 60 273 61 c 0,108,109
 275 63 275 63 277 63.5 c 128,-1,110
 279 64 279 64 282 66 c 1,111,112
 279 67 279 67 277 65 c 128,-1,113
 275 63 275 63 273 62 c 2,114,-1
 268 57 l 2,115,116
 257 51 257 51 245.5 42.5 c 128,-1,117
 234 34 234 34 219 27 c 0,118,119
 203 17 203 17 191 14 c 0,120,121
 188 12 188 12 185.5 12.5 c 128,-1,122
 183 13 183 13 178 11 c 1,123,-1
 178 10 l 1,124,-1
 177 10 l 2,125,126
 175 10 175 10 173 9 c 0,93,94
306 518 m 0,127,128
 326 528 326 528 323.5 528.5 c 128,-1,129
 321 529 321 529 301 523 c 0,130,131
 298 521 298 521 295.5 518.5 c 128,-1,132
 293 516 293 516 289 516 c 0,133,134
 282 513 282 513 275.5 509 c 128,-1,135
 269 505 269 505 261 499 c 0,136,137
 250 494 250 494 239 480 c 0,138,139
 231 475 231 475 226.5 471 c 128,-1,140
 222 467 222 467 217 463 c 0,141,142
 215 461 215 461 213.5 457.5 c 128,-1,143
 212 454 212 454 212 453 c 0,144,145
 208 449 208 449 204 447 c 1,146,147
 206 446 206 446 208 448.5 c 128,-1,148
 210 451 210 451 212 452 c 2,149,-1
 217 459 l 1,150,151
 227 465 227 465 238 475 c 128,-1,152
 249 485 249 485 264 495 c 0,153,154
 271 501 271 501 278 505 c 128,-1,155
 285 509 285 509 291 512 c 0,156,157
 293 514 293 514 295.5 513.5 c 128,-1,158
 298 513 298 513 302 516 c 1,159,-1
 302 517 l 1,160,-1
 303 517 l 2,161,162
 305 517 305 517 306 518 c 0,127,128
98 295 m 0,163,164
 95 292 95 292 94 288 c 2,165,-1
 96 291 l 1,166,-1
 99 295 l 2,167,168
 99 297 99 297 101 300 c 128,-1,169
 103 303 103 303 104 307 c 0,170,171
 108 313 108 313 110.5 316.5 c 128,-1,172
 113 320 113 320 117 327 c 0,173,174
 119 328 119 328 121.5 333 c 128,-1,175
 124 338 124 338 129 343 c 0,176,177
 133 348 133 348 136.5 353 c 128,-1,178
 140 358 140 358 145 363 c 1,179,180
 144 364 144 364 145 365 c 0,181,182
 145 366 145 366 149 370 c 0,183,184
 149 371 149 371 150 371 c 128,-1,185
 151 371 151 371 149 373 c 1,186,187
 151 374 151 374 151 378 c 2,188,-1
 141 365 l 2,189,190
 136 361 136 361 132.5 356 c 128,-1,191
 129 351 129 351 127 348 c 0,192,193
 119 339 119 339 113 326 c 0,194,195
 111 321 111 321 109.5 318 c 128,-1,196
 108 315 108 315 103 308 c 0,197,198
 102 304 102 304 100 300.5 c 128,-1,199
 98 297 98 297 98 295 c 0,163,164
245 49 m 0,200,201
 247 51 247 51 249 53.5 c 128,-1,202
 251 56 251 56 253 57 c 1,203,204
 251 57 251 57 249.5 55 c 128,-1,205
 248 53 248 53 244 51 c 256,206,207
 240 49 240 49 236.5 47 c 128,-1,208
 233 45 233 45 229 42 c 0,209,210
 228 43 228 43 224.5 40 c 128,-1,211
 221 37 221 37 216 35 c 0,212,213
 207 30 207 30 198 29 c 0,214,215
 197 28 197 28 197 27 c 0,216,217
 196 26 196 26 196 25 c 128,-1,218
 196 24 196 24 194 23 c 1,219,220
 192 27 192 27 192 23 c 1,221,222
 188 23 188 23 188 21 c 1,223,224
 192 21 192 21 194.5 21.5 c 128,-1,225
 197 22 197 22 202 23 c 2,226,-1
 215 30 l 2,227,228
 226 35 226 35 230 41 c 0,229,230
 235 45 235 45 237 46 c 128,-1,231
 239 47 239 47 245 49 c 0,200,201
233 460 m 2,232,233
 235 461 235 461 236.5 462.5 c 128,-1,234
 238 464 238 464 242 466 c 0,235,236
 244 470 244 470 247 472 c 128,-1,237
 250 474 250 474 255 479 c 1,238,239
 256 478 256 478 259 481 c 128,-1,240
 262 484 262 484 267 487 c 256,241,242
 272 490 272 490 276 492 c 128,-1,243
 280 494 280 494 285 496 c 1,244,245
 284 497 284 497 285 498 c 0,246,247
 285 499 285 499 289 501 c 0,248,249
 291 501 291 501 291 503 c 1,250,251
 293 503 293 503 293 505 c 1,252,253
 289 504 289 504 287.5 503 c 128,-1,254
 286 502 286 502 281 500 c 2,255,-1
 267 492 l 2,256,257
 264 490 264 490 260 486 c 128,-1,258
 256 482 256 482 254 480 c 0,259,260
 249 475 249 475 247 473 c 128,-1,261
 245 471 245 471 240 468 c 2,262,-1
 233 460 l 2,232,233
285 71 m 1,263,264
 282 68 282 68 282 66 c 1,265,266
 283 66 283 66 283 66.5 c 128,-1,267
 283 67 283 67 284 67 c 2,268,269
 284 67 284 67 286 71 c 1,270,271
 285 70 285 70 285 71 c 1,263,264
202 442 m 2,272,273
 201 443 201 443 202.5 443.5 c 128,-1,274
 204 444 204 444 204 446 c 2,275,-1
 203 446 l 2,276,277
 203 445 203 445 202 444.5 c 128,-1,278
 201 444 201 444 201 443 c 2,279,-1
 202 442 l 2,272,273
256 59 m 1,280,-1
 259 63 l 1,281,-1
 258 62 l 1,282,-1
 256 59 l 1,280,-1
233 460 m 2,283,284
 231 460 231 460 230 459 c 2,285,-1
 233 460 l 2,283,284
253 57 m 2,286,287
 253 55 253 55 255 57 c 2,288,-1
 253 57 l 2,286,287
EndSplineSet
Validated: 37
EndChar

StartChar: D
Encoding: 68 68 3
Width: 413
Flags: W
LayerCount: 2
Fore
SplineSet
153 2 m 0,0,1
 139 -5 139 -5 121 -10 c 128,-1,2
 103 -15 103 -15 83.5 -17 c 128,-1,3
 64 -19 64 -19 46 -16.5 c 128,-1,4
 28 -14 28 -14 15 -5 c 0,5,6
 6 2 6 2 4 11 c 128,-1,7
 2 20 2 20 3.5 29.5 c 128,-1,8
 5 39 5 39 8 48.5 c 128,-1,9
 11 58 11 58 14 65 c 0,10,11
 21 82 21 82 32 108 c 128,-1,12
 43 134 43 134 54 159 c 2,13,-1
 87 233 l 2,14,15
 98 253 98 253 107 274.5 c 128,-1,16
 116 296 116 296 126 318 c 0,17,18
 137 339 137 339 146.5 360.5 c 128,-1,19
 156 382 156 382 165 402 c 0,20,21
 173 420 173 420 180 435 c 128,-1,22
 187 450 187 450 194 464 c 1,23,24
 180 459 180 459 169.5 453 c 128,-1,25
 159 447 159 447 151 441 c 0,26,27
 137 430 137 430 119.5 431.5 c 128,-1,28
 102 433 102 433 97 447 c 0,29,30
 94 457 94 457 96 466 c 128,-1,31
 98 475 98 475 101.5 481 c 128,-1,32
 105 487 105 487 109 490 c 128,-1,33
 113 493 113 493 114 493 c 0,34,35
 116 493 116 493 124.5 500 c 128,-1,36
 133 507 133 507 154 517 c 0,37,38
 170 525 170 525 188.5 531.5 c 128,-1,39
 207 538 207 538 232 542 c 1,40,41
 237 550 237 550 244 550 c 128,-1,42
 251 550 251 550 259 545 c 1,43,-1
 266 545 l 2,44,45
 284 544 284 544 303 541 c 128,-1,46
 322 538 322 538 342 529 c 0,47,48
 361 520 361 520 379 504 c 128,-1,49
 397 488 397 488 408 464 c 256,50,51
 419 440 419 440 422 414 c 128,-1,52
 425 388 425 388 423 363 c 0,53,54
 420 337 420 337 413.5 313 c 128,-1,55
 407 289 407 289 398 266 c 256,56,57
 389 243 389 243 378 221.5 c 128,-1,58
 367 200 367 200 353 180 c 0,59,60
 342 158 342 158 326.5 140 c 128,-1,61
 311 122 311 122 296 103 c 0,62,63
 263 70 263 70 224 44 c 128,-1,64
 185 18 185 18 153 2 c 0,0,1
131 183 m 1,65,-1
 99 110 l 1,66,-1
 72 48 l 2,67,68
 67 32 67 32 73.5 30.5 c 128,-1,69
 80 29 80 29 91 33 c 0,70,71
 148 54 148 54 197 94 c 128,-1,72
 246 134 246 134 284 185 c 0,73,74
 307 217 307 217 326 254 c 128,-1,75
 345 291 345 291 355 330 c 0,76,77
 366 369 366 369 361.5 403.5 c 128,-1,78
 357 438 357 438 335 455 c 0,79,80
 315 473 315 473 285 478 c 0,81,82
 280 478 280 478 276 478.5 c 128,-1,83
 272 479 272 479 268 479 c 2,84,-1
 266 475 l 1,85,-1
 242 423 l 1,86,-1
 208 349 l 2,87,88
 198 329 198 329 188.5 308.5 c 128,-1,89
 179 288 179 288 169 267 c 2,90,-1
 131 183 l 1,65,-1
276 495 m 1,91,92
 276 495 276 495 275 493 c 2,93,-1
 282 493 l 2,94,95
 288 492 288 492 294.5 489.5 c 128,-1,96
 301 487 301 487 309 485 c 0,97,98
 324 480 324 480 337 471 c 0,99,100
 342 467 342 467 347.5 462 c 128,-1,101
 353 457 353 457 357 451 c 0,102,103
 362 445 362 445 365 438.5 c 128,-1,104
 368 432 368 432 371 427 c 2,105,-1
 374 415 l 1,106,-1
 377 406 l 2,107,108
 377 405 377 405 378 404 c 2,109,-1
 378 407 l 2,110,111
 378 410 378 410 376 416 c 2,112,-1
 374 427 l 2,113,114
 369 440 369 440 361.5 453 c 128,-1,115
 354 466 354 466 339 477 c 0,116,117
 324 486 324 486 311 490 c 0,118,119
 303 492 303 492 296 494 c 128,-1,120
 289 496 289 496 283 496 c 2,121,-1
 276 496 l 1,122,-1
 276 495 l 1,91,92
72 121 m 2,123,124
 70 117 70 117 68 109 c 0,125,126
 66 105 66 105 65 102 c 128,-1,127
 64 99 64 99 63 96 c 2,128,-1
 58 86 l 1,129,-1
 55 79 l 2,130,131
 55 78 55 78 54.5 77.5 c 128,-1,132
 54 77 54 77 54 76 c 2,133,-1
 54 75 l 2,134,135
 54 74 54 74 56 78 c 0,136,137
 56 81 56 81 60 85 c 0,138,139
 62 88 62 88 63 90.5 c 128,-1,140
 64 93 64 93 66 95 c 0,141,142
 67 97 67 97 68 100 c 128,-1,143
 69 103 69 103 70 107 c 2,144,-1
 76 119 l 2,145,146
 79 123 79 123 80 126 c 128,-1,147
 81 129 81 129 83 133 c 2,148,-1
 88 147 l 2,149,150
 93 152 93 152 95 161 c 2,151,-1
 101 176 l 2,152,153
 106 183 106 183 105 188 c 0,154,155
 108 192 108 192 109 194.5 c 128,-1,156
 110 197 110 197 111 200 c 0,157,158
 111 203 111 203 115 209 c 0,159,160
 116 213 116 213 116 218 c 2,161,-1
 118 220 l 1,162,-1
 115 218 l 1,163,-1
 113 211 l 2,164,165
 112 208 112 208 110.5 205.5 c 128,-1,166
 109 203 109 203 107 201 c 0,167,168
 107 194 107 194 104 190 c 0,169,170
 102 187 102 187 100.5 184 c 128,-1,171
 99 181 99 181 97 177 c 2,172,-1
 91 163 l 1,173,-1
 84 149 l 1,174,-1
 72 121 l 2,123,124
301 506 m 0,175,176
 295 508 295 508 288.5 509 c 128,-1,177
 282 510 282 510 277 511 c 1,178,179
 277 509 277 509 276.5 507.5 c 128,-1,180
 276 506 276 506 276 505 c 0,181,182
 282 504 282 504 288 504 c 128,-1,183
 294 504 294 504 301 502 c 0,184,185
 307 500 307 500 313 498.5 c 128,-1,186
 319 497 319 497 324 495 c 256,187,188
 329 493 329 493 333.5 489 c 128,-1,189
 338 485 338 485 343 483 c 0,190,191
 347 480 347 480 351 477.5 c 128,-1,192
 355 475 355 475 360 470 c 2,193,-1
 371 457 l 1,194,-1
 377 445 l 2,195,196
 378 443 378 443 378 441.5 c 128,-1,197
 378 440 378 440 380 438 c 2,198,-1
 379 441 l 1,199,-1
 378 446 l 2,200,201
 376 448 376 448 374.5 451 c 128,-1,202
 373 454 373 454 372 458 c 0,203,204
 370 462 370 462 367 465.5 c 128,-1,205
 364 469 364 469 360 474 c 0,206,207
 357 477 357 477 353 479.5 c 128,-1,208
 349 482 349 482 346 486 c 0,209,210
 341 489 341 489 336 493 c 128,-1,211
 331 497 331 497 326 499 c 2,212,-1
 314 503 l 2,213,214
 311 504 311 504 309 504 c 128,-1,215
 307 504 307 504 305 505 c 0,216,217
 303 505 303 505 301 506 c 0,175,176
130 221 m 2,218,219
 126 214 126 214 122 205 c 128,-1,220
 118 196 118 196 113 185 c 0,221,222
 111 180 111 180 108.5 175 c 128,-1,223
 106 170 106 170 106 165 c 0,224,225
 104 160 104 160 102 156 c 128,-1,226
 100 152 100 152 98 148 c 2,227,-1
 96 141 l 2,228,229
 96 137 96 137 95 135 c 0,230,231
 94 134 94 134 94 133 c 2,232,-1
 95 134 l 1,233,-1
 99 139 l 2,234,235
 99 141 99 141 101 147 c 0,236,237
 104 151 104 151 109 163 c 0,238,239
 111 168 111 168 113 172.5 c 128,-1,240
 115 177 115 177 118 182 c 2,241,-1
 125 202 l 2,242,243
 129 211 129 211 131 219 c 0,244,245
 135 223 135 223 135 226 c 0,246,247
 135 231 135 231 136 232 c 0,248,249
 136 233 136 233 137 234 c 2,250,-1
 137 235 l 1,251,-1
 134 232 l 2,252,253
 134 230 134 230 133 228 c 2,254,-1
 130 221 l 2,218,219
200 495 m 2,255,256
 206 497 206 497 209 497 c 0,257,258
 211 499 211 499 211 500 c 128,-1,259
 211 501 211 501 212 502 c 2,260,-1
 200 499 l 2,261,262
 186 494 186 494 179 489 c 2,263,-1
 162 482 l 1,264,-1
 150 475 l 2,265,266
 148 474 148 474 148 473 c 128,-1,267
 148 472 148 472 147 471 c 2,268,-1
 150 474 l 2,269,270
 153 475 153 475 156 476.5 c 128,-1,271
 159 478 159 478 163 480 c 256,272,273
 167 482 167 482 171.5 483.5 c 128,-1,274
 176 485 176 485 181 487 c 2,275,-1
 200 495 l 2,255,256
142 479 m 1,276,277
 142 479 142 479 146 481 c 2,278,-1
 159 487 l 2,279,280
 164 489 164 489 168 491.5 c 128,-1,281
 172 494 172 494 177 496 c 0,282,283
 183 498 183 498 187.5 500 c 128,-1,284
 192 502 192 502 197 504 c 0,285,286
 201 506 201 506 205 506.5 c 128,-1,287
 209 507 209 507 214 509 c 0,288,289
 214 510 214 510 216 512 c 1,290,291
 210 510 210 510 205.5 509 c 128,-1,292
 201 508 201 508 196 506 c 2,293,-1
 177 498 l 2,294,295
 171 496 171 496 167 493.5 c 128,-1,296
 163 491 163 491 159 489 c 2,297,-1
 147 482 l 1,298,-1
 142 479 l 1,276,277
48 83 m 0,299,300
 48 82 48 82 46 80 c 1,301,302
 47 80 47 80 49 82 c 0,303,304
 51 88 51 88 53 90 c 0,305,306
 54 93 54 93 58 99 c 2,307,-1
 62 110 l 1,308,-1
 66 121 l 2,309,310
 69 125 69 125 71 131 c 0,311,312
 71 133 71 133 72 134 c 128,-1,313
 73 135 73 135 73 136 c 2,314,315
 73 136 73 136 71 135 c 0,316,317
 71 134 71 134 70.5 133.5 c 128,-1,318
 70 133 70 133 70 132 c 0,319,320
 69 130 69 130 68 127.5 c 128,-1,321
 67 125 67 125 67 123 c 0,322,323
 61 116 61 116 60 111 c 0,324,325
 58 109 58 109 57.5 105.5 c 128,-1,326
 57 102 57 102 55 100 c 0,327,328
 53 94 53 94 51 91 c 0,329,330
 51 89 51 89 50 87 c 128,-1,331
 49 85 49 85 48 83 c 0,299,300
118 220 m 1,332,-1
 120 222 l 2,333,334
 121 223 121 223 121 224 c 2,335,-1
 120 223 l 1,336,-1
 118 220 l 1,332,-1
381 436 m 1,337,-1
 381 434 l 1,338,-1
 382 434 l 1,339,-1
 381 436 l 1,337,-1
EndSplineSet
Validated: 37
EndChar

StartChar: E
Encoding: 69 69 4
Width: 387
Flags: W
LayerCount: 2
Fore
SplineSet
37 58 m 0,0,1
 39 64 39 64 43 74.5 c 128,-1,2
 47 85 47 85 52 97 c 128,-1,3
 57 109 57 109 62 121 c 128,-1,4
 67 133 67 133 71 141 c 0,5,6
 79 156 79 156 89 179 c 1,7,8
 83 178 83 178 77.5 177.5 c 128,-1,9
 72 177 72 177 68 177 c 0,10,11
 58 175 58 175 51.5 182 c 128,-1,12
 45 189 45 189 44.5 200 c 128,-1,13
 44 211 44 211 51 222 c 128,-1,14
 58 233 58 233 76 239 c 0,15,16
 77 239 77 239 79.5 239 c 128,-1,17
 82 239 82 239 88 240 c 0,18,19
 93 240 93 240 100.5 240.5 c 128,-1,20
 108 241 108 241 117 242 c 2,21,-1
 119 242 l 1,22,23
 127 257 127 257 134 272 c 128,-1,24
 141 287 141 287 149 302 c 2,25,-1
 191 389 l 1,26,-1
 228 464 l 2,27,28
 236 481 236 481 241 495 c 128,-1,29
 246 509 246 509 254 517 c 0,30,31
 266 528 266 528 285.5 534.5 c 128,-1,32
 305 541 305 541 328.5 543.5 c 128,-1,33
 352 546 352 546 378.5 546 c 128,-1,34
 405 546 405 546 431 545 c 0,35,36
 460 545 460 545 475 535.5 c 128,-1,37
 490 526 490 526 493.5 515.5 c 128,-1,38
 497 505 497 505 490 496.5 c 128,-1,39
 483 488 483 488 469 491 c 0,40,41
 464 491 464 491 459 491.5 c 128,-1,42
 454 492 454 492 447 493 c 0,43,44
 433 496 433 496 417 496 c 2,45,-1
 381 496 l 2,46,47
 373 496 373 496 364 494.5 c 128,-1,48
 355 493 355 493 347 492 c 0,49,50
 339 490 339 490 331 489.5 c 128,-1,51
 323 489 323 489 317 487 c 2,52,-1
 307 484 l 2,53,54
 305 482 305 482 304 479.5 c 128,-1,55
 303 477 303 477 301 474 c 0,56,57
 296 464 296 464 287 445.5 c 128,-1,58
 278 427 278 427 270 410 c 0,59,60
 262 394 262 394 252.5 375.5 c 128,-1,61
 243 357 243 357 234 337 c 2,62,-1
 191 252 l 1,63,-1
 189 249 l 2,64,65
 193 249 193 249 196.5 249.5 c 128,-1,66
 200 250 200 250 203 250 c 2,67,-1
 287 260 l 2,68,69
 298 261 298 261 300.5 252 c 128,-1,70
 303 243 303 243 300.5 231 c 128,-1,71
 298 219 298 219 292 208.5 c 128,-1,72
 286 198 286 198 280 197 c 0,73,74
 269 195 269 195 256 194 c 128,-1,75
 243 193 243 193 230 191.5 c 128,-1,76
 217 190 217 190 206.5 189 c 128,-1,77
 196 188 196 188 190 188 c 2,78,-1
 160 185 l 1,79,80
 152 165 152 165 139 137.5 c 128,-1,81
 126 110 126 110 117 85.5 c 128,-1,82
 108 61 108 61 107 45 c 128,-1,83
 106 29 106 29 122 34 c 0,84,85
 148 38 148 38 170.5 41.5 c 128,-1,86
 193 45 193 45 215 46.5 c 128,-1,87
 237 48 237 48 259.5 48.5 c 128,-1,88
 282 49 282 49 308 47 c 0,89,90
 319 46 319 46 325.5 37 c 128,-1,91
 332 28 332 28 332.5 17.5 c 128,-1,92
 333 7 333 7 327 -1.5 c 128,-1,93
 321 -10 321 -10 309 -8 c 0,94,95
 259 -2 259 -2 197.5 -4.5 c 128,-1,96
 136 -7 136 -7 82 -20 c 0,97,98
 66 -24 66 -24 55.5 -17.5 c 128,-1,99
 45 -11 45 -11 39.5 1 c 128,-1,100
 34 13 34 13 33.5 28.5 c 128,-1,101
 33 44 33 44 37 58 c 0,0,1
88 104 m 2,102,103
 87 99 87 99 83 91 c 2,104,-1
 79 78 l 2,105,106
 75 72 75 72 74 69 c 2,107,-1
 71 61 l 2,108,109
 71 60 71 60 69 58 c 2,110,111
 69 58 69 58 68 56 c 2,112,-1
 69 57 l 2,113,114
 70 58 70 58 70 58.5 c 128,-1,115
 70 59 70 59 72 60 c 2,116,-1
 76 68 l 2,117,118
 77 71 77 71 81 77 c 0,119,120
 85 85 85 85 86 89 c 2,121,-1
 93 102 l 2,122,123
 95 105 95 105 96.5 108.5 c 128,-1,124
 98 112 98 112 99 116 c 2,125,-1
 106 130 l 2,126,127
 109 134 109 134 113 144 c 0,128,129
 115 148 115 148 116.5 151.5 c 128,-1,130
 118 155 118 155 120 159 c 2,131,-1
 126 172 l 1,132,-1
 130 182 l 1,133,-1
 126 182 l 1,134,-1
 123 173 l 2,135,136
 121 170 121 170 119.5 167 c 128,-1,137
 118 164 118 164 116 160 c 2,138,-1
 109 146 l 1,139,-1
 102 132 l 1,140,-1
 88 104 l 2,102,103
132 169 m 2,141,142
 130 164 130 164 128 159 c 128,-1,143
 126 154 126 154 124 149 c 256,144,145
 122 144 122 144 120 140 c 128,-1,146
 118 136 118 136 116 131 c 0,147,148
 115 129 115 129 115 127.5 c 128,-1,149
 115 126 115 126 113 124 c 0,150,151
 112 122 112 122 112 121 c 128,-1,152
 112 120 112 120 111 119 c 0,153,154
 111 117 111 117 110.5 116.5 c 128,-1,155
 110 116 110 116 110 115 c 1,156,157
 111 115 111 115 111 116 c 2,158,159
 111 116 111 116 112 118 c 2,160,-1
 115 123 l 2,161,162
 116 125 116 125 117 126.5 c 128,-1,163
 118 128 118 128 119 130 c 0,164,165
 121 133 121 133 123.5 137 c 128,-1,166
 126 141 126 141 128 146 c 2,167,-1
 138 166 l 1,168,-1
 144 184 l 2,169,170
 142 184 142 184 141 183 c 2,171,-1
 139 183 l 1,172,-1
 132 169 l 2,141,142
292 28 m 256,173,174
 290 28 290 28 288.5 28.5 c 128,-1,175
 287 29 287 29 285 28 c 2,176,-1
 270 28 l 1,177,-1
 262 27 l 1,178,-1
 255 27 l 1,179,-1
 249 26 l 2,180,181
 247 26 247 26 246 25.5 c 128,-1,182
 245 25 245 25 244 25 c 0,183,184
 241 25 241 25 240 24 c 1,185,186
 241 23 241 23 244 23 c 2,187,-1
 292 23 l 2,188,189
 294 23 294 23 295.5 23.5 c 128,-1,190
 297 24 297 24 299 24 c 2,191,-1
 316 24 l 1,192,193
 316 24 316 24 317 25 c 2,194,-1
 316 25 l 2,195,196
 315 25 315 25 314 26 c 2,197,-1
 310 26 l 2,198,199
 307 26 307 26 305 27 c 2,200,-1
 299 27 l 2,201,202
 297 27 297 27 295.5 27.5 c 128,-1,203
 294 28 294 28 292 28 c 256,173,174
259 233 m 2,204,205
 254 233 254 233 252 232 c 2,206,-1
 244 231 l 2,207,208
 239 231 239 231 236 230 c 2,209,-1
 229 229 l 2,210,211
 224 229 224 229 221 228 c 2,212,-1
 215 227 l 2,213,214
 213 227 213 227 212.5 226.5 c 128,-1,215
 212 226 212 226 210 226 c 256,216,217
 208 226 208 226 207.5 225.5 c 128,-1,218
 207 225 207 225 206 225 c 2,219,-1
 202 225 l 1,220,-1
 203 224 l 1,221,-1
 215 224 l 2,222,223
 217 225 217 225 221 225 c 2,224,-1
 229 225 l 1,225,-1
 236 226 l 1,226,-1
 244 226 l 1,227,-1
 252 227 l 1,228,-1
 259 228 l 1,229,-1
 266 230 l 2,230,231
 271 230 271 230 273 231 c 0,232,233
 276 231 276 231 278 232 c 2,234,-1
 282 232 l 2,235,236
 283 232 283 232 283 232.5 c 128,-1,237
 283 233 283 233 284 233 c 1,238,239
 283 233 283 233 282 234 c 0,240,241
 280 234 280 234 278 233 c 0,242,243
 275 233 275 233 272 234 c 0,244,245
 269 234 269 234 266 233 c 2,246,-1
 259 233 l 2,204,205
465 518 m 2,247,248
 463 519 463 519 459 519 c 0,249,250
 457 519 457 519 456 519.5 c 128,-1,251
 455 520 455 520 453 520 c 2,252,-1
 447 519 l 2,253,254
 445 519 445 519 444 519.5 c 128,-1,255
 443 520 443 520 441 520 c 2,256,-1
 435 519 l 2,257,258
 432 520 432 520 429 519 c 2,259,-1
 424 518 l 2,260,261
 423 517 423 517 420 517 c 256,262,263
 417 517 417 517 416 516 c 1,264,265
 417 516 417 516 417.5 515.5 c 128,-1,266
 418 515 418 515 419 515 c 2,267,-1
 424 515 l 2,268,269
 425 516 425 516 428 516 c 0,270,271
 430 516 430 516 431 515.5 c 128,-1,272
 432 515 432 515 434 515 c 2,273,-1
 440 515 l 2,274,275
 442 515 442 515 443 514.5 c 128,-1,276
 444 514 444 514 446 514 c 2,277,-1
 458 514 l 2,278,279
 460 514 460 514 461 514.5 c 128,-1,280
 462 515 462 515 464 515 c 2,281,-1
 470 515 l 2,282,283
 471 515 471 515 471.5 514.5 c 128,-1,284
 472 514 472 514 474 515 c 0,285,286
 475 516 475 516 477 515 c 2,287,-1
 478 515 l 2,288,289
 479 515 479 515 479 516 c 2,290,-1
 478 517 l 1,291,-1
 474 517 l 2,292,293
 472 515 472 515 470 518 c 2,294,-1
 465 518 l 2,247,248
228 34 m 1,295,-1
 229 34 l 2,296,297
 230 32 230 32 232 34 c 2,298,-1
 255 34 l 2,299,300
 262 34 262 34 266 35 c 0,301,302
 268 35 268 35 270.5 35.5 c 128,-1,303
 273 36 273 36 275 36 c 0,304,305
 278 37 278 37 280 37 c 2,306,-1
 283 38 l 1,307,308
 283 38 283 38 285 39 c 2,309,-1
 276 39 l 2,310,311
 274 40 274 40 267 40 c 2,312,-1
 257 40 l 1,313,-1
 246 38 l 2,314,315
 244 38 244 38 241.5 37.5 c 128,-1,316
 239 37 239 37 237 37 c 256,317,318
 235 37 235 37 234 36.5 c 128,-1,319
 233 36 233 36 232 36 c 0,320,321
 231 35 231 35 229 35 c 2,322,-1
 228 35 l 1,323,-1
 228 34 l 1,295,-1
194 235 m 0,324,325
 193 235 193 235 193 234 c 2,326,-1
 201 234 l 2,327,328
 205 234 205 234 210 234.5 c 128,-1,329
 215 235 215 235 221 236 c 0,330,331
 224 236 224 236 226.5 236.5 c 128,-1,332
 229 237 229 237 232 237 c 0,333,334
 238 239 238 239 241 239 c 0,335,336
 242 240 242 240 244 240 c 2,337,-1
 247 242 l 1,338,-1
 244 243 l 2,339,340
 243 242 243 242 241 242 c 0,341,342
 237 243 237 243 231 242 c 0,343,344
 224 242 224 242 221 241 c 2,345,-1
 210 239 l 1,346,-1
 201 237 l 2,347,348
 199 237 199 237 197 236 c 0,349,350
 196 235 196 235 194 235 c 0,324,325
408 527 m 2,351,352
 408 526 408 526 409 526 c 1,353,354
 409 525 409 525 410 525 c 2,355,-1
 414 527 l 2,356,357
 418 526 418 526 421.5 525.5 c 128,-1,358
 425 525 425 525 430 526 c 0,359,360
 436 526 436 526 439 527 c 2,361,-1
 447 527 l 1,362,-1
 450 529 l 1,363,-1
 452 529 l 2,364,365
 453 529 453 529 454 530 c 2,366,-1
 453 530 l 1,367,-1
 450 531 l 2,368,369
 449 530 449 530 447 530 c 0,370,371
 443 532 443 532 440 532 c 2,372,-1
 431 532 l 2,373,374
 429 532 429 532 426.5 531 c 128,-1,375
 424 530 424 530 422 530 c 2,376,-1
 415 530 l 1,377,-1
 412 528 l 2,378,379
 411 527 411 527 409 527 c 2,380,-1
 408 527 l 2,351,352
76 93 m 0,381,382
 74 91 74 91 73.5 88 c 128,-1,383
 73 85 73 85 71 82 c 0,384,385
 69 80 69 80 68.5 77 c 128,-1,386
 68 74 68 74 67 72 c 2,387,-1
 64 65 l 2,388,389
 64 64 64 64 63.5 63.5 c 128,-1,390
 63 63 63 63 63 62 c 2,391,392
 63 62 63 62 65 64 c 2,393,-1
 68 71 l 1,394,-1
 73 81 l 1,395,-1
 78 92 l 2,396,397
 82 100 82 100 83 104 c 0,398,399
 85 106 85 106 85.5 109 c 128,-1,400
 86 112 86 112 87 114 c 2,401,-1
 90 121 l 2,402,403
 88 119 88 119 88 118 c 0,404,405
 86 116 86 116 86 114 c 2,406,-1
 81 104 l 2,407,408
 77 99 77 99 76 93 c 0,381,382
282 224 m 0,409,410
 283 224 283 224 284 225 c 2,411,-1
 273 225 l 2,412,413
 269 225 269 225 267 224 c 2,414,-1
 261 224 l 2,415,416
 259 223 259 223 258 223 c 128,-1,417
 257 223 257 223 256 222 c 0,418,419
 253 222 253 222 252 221 c 2,420,-1
 256 221 l 2,421,422
 257 221 257 221 258 221.5 c 128,-1,423
 259 222 259 222 261 221 c 0,424,425
 265 221 265 221 267 222 c 2,426,-1
 273 223 l 1,427,-1
 279 223 l 2,428,429
 280 224 280 224 282 224 c 0,409,410
313 16 m 2,430,431
 314 16 314 16 314 16.5 c 128,-1,432
 314 17 314 17 315 17 c 2,433,-1
 309 17 l 2,434,435
 308 18 308 18 304 18 c 0,436,437
 302 19 302 19 301 18.5 c 128,-1,438
 300 18 300 18 298 18 c 2,439,-1
 287 18 l 2,440,441
 284 18 284 18 284 17 c 2,442,-1
 285 17 l 2,443,444
 287 17 287 17 287 17 c 2,445,446
 290 17 290 17 292 16 c 2,447,-1
 313 16 l 2,430,431
476 508 m 2,448,449
 476 508 476 508 473 508 c 0,450,451
 472 508 472 508 471 508.5 c 128,-1,452
 470 509 470 509 469 509 c 0,453,454
 466 510 466 510 464 509 c 2,455,-1
 452 509 l 1,456,-1
 453 508 l 1,457,-1
 455 508 l 2,458,459
 457 508 457 508 459 507 c 0,460,461
 461 505 461 505 464 507 c 2,462,-1
 468 507 l 2,463,464
 470 507 470 507 470.5 506.5 c 128,-1,465
 471 506 471 506 473 506 c 0,466,467
 475 508 475 508 476 508 c 2,448,449
415 516 m 1,468,469
 415 516 415 516 414 517 c 2,470,-1
 414 516 l 1,471,-1
 415 516 l 1,468,469
248 242 m 1,472,473
 248 242 248 242 249 243 c 2,474,-1
 248 243 l 1,475,-1
 248 242 l 1,472,473
EndSplineSet
Validated: 33
EndChar

StartChar: F
Encoding: 70 70 5
Width: 272
Flags: W
LayerCount: 2
Fore
SplineSet
66 240 m 0,0,1
 72 240 72 240 78.5 240.5 c 128,-1,2
 85 241 85 241 94 242 c 2,3,-1
 121 245 l 1,4,5
 128 259 128 259 133.5 273.5 c 128,-1,6
 139 288 139 288 147 302 c 0,7,8
 158 325 158 325 167 346 c 128,-1,9
 176 367 176 367 187 389 c 2,10,-1
 218 464 l 2,11,12
 228 481 228 481 232 495 c 128,-1,13
 236 509 236 509 244 517 c 0,14,15
 262 533 262 533 297.5 540.5 c 128,-1,16
 333 548 333 548 372 549 c 128,-1,17
 411 550 411 550 448 545.5 c 128,-1,18
 485 541 485 541 506 534 c 0,19,20
 517 530 517 530 518 521.5 c 128,-1,21
 519 513 519 513 513 505 c 128,-1,22
 507 497 507 497 495.5 491.5 c 128,-1,23
 484 486 484 486 472 488 c 0,24,25
 448 492 448 492 431 494 c 128,-1,26
 414 496 414 496 397.5 496 c 128,-1,27
 381 496 381 496 362 494.5 c 128,-1,28
 343 493 343 493 316 490 c 0,29,30
 306 487 306 487 299.5 480 c 128,-1,31
 293 473 293 473 287.5 463.5 c 128,-1,32
 282 454 282 454 278 443.5 c 128,-1,33
 274 433 274 433 270 424 c 0,34,35
 251 381 251 381 231.5 339 c 128,-1,36
 212 297 212 297 192 252 c 1,37,-1
 192 251 l 1,38,39
 201 253 201 253 209.5 253.5 c 128,-1,40
 218 254 218 254 226 255 c 0,41,42
 237 257 237 257 247 257.5 c 128,-1,43
 257 258 257 258 267 259 c 0,44,45
 296 261 296 261 307 252.5 c 128,-1,46
 318 244 318 244 315 232.5 c 128,-1,47
 312 221 312 221 297 210 c 128,-1,48
 282 199 282 199 259 197 c 0,49,50
 250 196 250 196 239.5 195 c 128,-1,51
 229 194 229 194 217 193 c 2,52,-1
 168 188 l 1,53,-1
 162 188 l 1,54,55
 161 183 161 183 159 177.5 c 128,-1,56
 157 172 157 172 155 167 c 0,57,58
 152 162 152 162 146 146.5 c 128,-1,59
 140 131 140 131 131.5 111 c 128,-1,60
 123 91 123 91 113.5 69 c 128,-1,61
 104 47 104 47 95.5 29 c 128,-1,62
 87 11 87 11 80.5 -1 c 128,-1,63
 74 -13 74 -13 71 -13 c 0,64,65
 45 -20 45 -20 27 -13 c 128,-1,66
 9 -6 9 -6 18 14 c 0,67,68
 26 30 26 30 38.5 55.5 c 128,-1,69
 51 81 51 81 63 106.5 c 128,-1,70
 75 132 75 132 84 153 c 128,-1,71
 93 174 93 174 94 181 c 1,72,-1
 78 179 l 2,73,74
 69 178 69 178 61 177.5 c 128,-1,75
 53 177 53 177 48 177 c 0,76,77
 38 175 38 175 30.5 182 c 128,-1,78
 23 189 23 189 21.5 199.5 c 128,-1,79
 20 210 20 210 27 221.5 c 128,-1,80
 34 233 34 233 54 239 c 0,81,82
 55 239 55 239 58 239 c 128,-1,83
 61 239 61 239 66 240 c 0,0,1
94 104 m 2,84,85
 94 98 94 98 89 91 c 0,86,87
 88 87 88 87 87 84 c 128,-1,88
 86 81 86 81 85 78 c 0,89,90
 83 76 83 76 83 73.5 c 128,-1,91
 83 71 83 71 81 69 c 2,92,-1
 77 61 l 1,93,-1
 77 56 l 1,94,-1
 79 60 l 1,95,-1
 82 68 l 2,96,97
 83 72 83 72 88 77 c 2,98,-1
 92 89 l 2,99,100
 98 95 98 95 98 102 c 0,101,102
 101 106 101 106 105 116 c 2,103,-1
 110 130 l 2,104,105
 114 136 114 136 116 144 c 0,106,107
 118 148 118 148 120 151.5 c 128,-1,108
 122 155 122 155 123 159 c 0,109,110
 127 164 127 164 129 172 c 0,111,112
 133 180 133 180 134 184 c 2,113,-1
 133 185 l 2,114,115
 131 185 131 185 131.5 184.5 c 128,-1,116
 132 184 132 184 131 184 c 2,117,-1
 126 173 l 1,118,-1
 119 160 l 1,119,-1
 112 146 l 2,120,121
 110 139 110 139 106 132 c 2,122,-1
 94 104 l 2,84,85
142 186 m 1,123,124
 141 178 141 178 136 169 c 0,125,126
 134 164 134 164 132 159 c 128,-1,127
 130 154 130 154 128 149 c 2,128,-1
 121 131 l 1,129,-1
 118 124 l 2,130,131
 118 122 118 122 117.5 121 c 128,-1,132
 117 120 117 120 117 119 c 0,133,134
 116 118 116 118 116 116 c 1,135,136
 117 117 117 117 117 118 c 2,137,-1
 120 123 l 2,138,139
 122 127 122 127 122 130 c 0,140,141
 127 135 127 135 131 146 c 0,142,143
 135 151 135 151 137 156 c 128,-1,144
 139 161 139 161 141 166 c 0,145,146
 145 176 145 176 147 186 c 1,147,-1
 142 186 l 1,123,124
454 518 m 1,148,-1
 446 518 l 2,149,150
 441 519 441 519 436 519 c 2,151,-1
 415 519 l 2,152,153
 415 518 415 518 412 518 c 2,154,-1
 407 518 l 1,155,156
 407 518 407 518 405 518 c 2,157,-1
 406 517 l 1,158,-1
 407 517 l 2,159,160
 410 517 410 517 411 516 c 2,161,-1
 423 516 l 2,162,163
 425 515 425 515 430 515 c 2,164,-1
 433 515 l 2,165,166
 434 515 434 515 434.5 514.5 c 128,-1,167
 435 514 435 514 436 514 c 2,168,-1
 437 514 l 2,169,170
 442 514 442 514 445 513 c 2,171,-1
 453 512 l 1,172,-1
 460 511 l 2,173,174
 464 512 464 512 467 511 c 0,175,176
 472 511 472 511 474 512 c 0,177,178
 476 511 476 511 479 511 c 256,179,180
 482 511 482 511 484 510 c 2,181,-1
 485 510 l 2,182,183
 486 510 486 510 486 511 c 2,184,185
 486 511 486 511 484 512 c 2,186,-1
 480 512 l 2,187,188
 478 513 478 513 477 513 c 128,-1,189
 476 513 476 513 475 514 c 0,190,191
 473 514 473 514 471.5 514.5 c 128,-1,192
 470 515 470 515 468 515 c 256,193,194
 466 515 466 515 464.5 515.5 c 128,-1,195
 463 516 463 516 461 516 c 2,196,-1
 454 518 l 1,148,-1
253 233 m 0,197,198
 249 235 249 235 246 232 c 2,199,-1
 238 232 l 2,200,201
 233 232 233 232 230 231 c 2,202,-1
 223 230 l 2,203,204
 220 231 220 231 216 229 c 2,205,-1
 208 228 l 1,206,-1
 203 228 l 2,207,208
 200 228 200 228 200 226 c 1,209,210
 199 226 199 226 198 226.5 c 128,-1,211
 197 227 197 227 196 227 c 2,212,-1
 195 227 l 1,213,-1
 199 225 l 1,214,-1
 200 225 l 2,215,216
 201 226 201 226 204 226 c 0,217,218
 206 226 206 226 207 225.5 c 128,-1,219
 208 225 208 225 210 226 c 0,220,221
 210 227 210 227 216 226 c 0,222,223
 218 226 218 226 219 226.5 c 128,-1,224
 220 227 220 227 223 226 c 2,225,-1
 230 227 l 1,226,-1
 244 227 l 1,227,-1
 253 228 l 2,228,229
 256 230 256 230 261 230 c 0,230,231
 263 230 263 230 264 230.5 c 128,-1,232
 265 231 265 231 267 231 c 0,233,234
 271 231 271 231 272 232 c 0,235,236
 274 233 274 233 274.5 232.5 c 128,-1,237
 275 232 275 232 276 232 c 2,238,-1
 278 232 l 2,239,240
 279 232 279 232 279 233 c 1,241,242
 278 233 278 233 277 234 c 0,243,244
 276 234 276 234 275 234.5 c 128,-1,245
 274 235 274 235 272 233 c 0,246,247
 269 233 269 233 268 234 c 0,248,249
 266 235 266 235 261 233 c 0,250,251
 257 234 257 234 253 233 c 0,197,198
188 237 m 1,252,253
 188 237 188 237 187 236 c 2,254,-1
 189 236 l 2,255,256
 191 236 191 236 192 235 c 2,257,-1
 195 236 l 2,258,259
 200 235 200 235 204.5 235.5 c 128,-1,260
 209 236 209 236 216 237 c 0,261,262
 219 237 219 237 221.5 237.5 c 128,-1,263
 224 238 224 238 226 238 c 0,264,265
 229 240 229 240 235 240 c 1,266,267
 235 241 235 241 238 241 c 2,268,-1
 255 245 l 1,269,-1
 256 245 l 1,270,-1
 253 246 l 2,271,272
 252 244 252 244 243.5 243.5 c 128,-1,273
 235 243 235 243 234 243 c 0,274,275
 230 245 230 245 225 243 c 0,276,277
 218 243 218 243 214 242 c 0,278,279
 211 242 211 242 208.5 241.5 c 128,-1,280
 206 241 206 241 204 241 c 0,281,282
 202 239 202 239 200 239.5 c 128,-1,283
 198 240 198 240 196 239 c 0,284,285
 194 239 194 239 192 237 c 2,286,-1
 188 237 l 1,252,253
395 529 m 1,287,288
 395 529 395 529 397 528 c 2,289,-1
 403 528 l 1,290,-1
 423 526 l 2,291,292
 430 526 430 526 434 527 c 2,293,-1
 450 527 l 2,294,295
 452 527 452 527 453 528 c 2,296,-1
 451 528 l 1,297,-1
 448 529 l 2,298,299
 445 529 445 529 444 530 c 0,300,301
 438 532 438 532 434 532 c 2,302,-1
 423 532 l 2,303,304
 420 532 420 532 417.5 531.5 c 128,-1,305
 415 531 415 531 413 531 c 2,306,-1
 404 531 l 2,307,308
 402 531 402 531 401.5 530.5 c 128,-1,309
 401 530 401 530 400 530 c 0,310,311
 399 529 399 529 397 529 c 2,312,-1
 395 529 l 1,287,288
80 81 m 2,313,314
 82 84 82 84 82 87 c 128,-1,315
 82 90 82 90 84 92 c 0,316,317
 89 99 89 99 89 104 c 0,318,319
 90 106 90 106 90.5 109 c 128,-1,320
 91 112 91 112 93 114 c 2,321,-1
 95 121 l 1,322,-1
 93 118 l 2,323,324
 92 117 92 117 92 114 c 2,325,-1
 87 104 l 2,326,327
 87 101 87 101 83 93 c 0,328,329
 80 90 80 90 78 82 c 0,330,331
 74 76 74 76 74 72 c 0,332,333
 71 69 71 69 70 65 c 2,334,-1
 70 62 l 1,335,336
 70 62 70 62 71 64 c 2,337,-1
 74 71 l 1,338,-1
 80 81 l 2,313,314
277 225 m 1,339,-1
 267 225 l 2,340,341
 265 226 265 226 261 224 c 0,342,343
 259 224 259 224 258 224.5 c 128,-1,344
 257 225 257 225 255 224 c 256,345,346
 253 223 253 223 250 223 c 256,347,348
 247 223 247 223 246 222 c 2,349,-1
 250 222 l 2,350,351
 252 221 252 221 252.5 221.5 c 128,-1,352
 253 222 253 222 255 221 c 0,353,354
 257 222 257 222 258.5 221.5 c 128,-1,355
 260 221 260 221 262 222 c 2,356,-1
 268 223 l 1,357,-1
 273 223 l 2,358,359
 274 224 274 224 277 224 c 2,360,-1
 277 225 l 1,339,-1
482 504 m 1,361,-1
 478 504 l 1,362,-1
 473 506 l 1,363,-1
 467 506 l 2,364,365
 465 506 465 506 464 506.5 c 128,-1,366
 463 507 463 507 461 507 c 2,367,-1
 451 507 l 2,368,369
 452 506 452 506 453 506 c 256,370,371
 454 506 454 506 454 505.5 c 128,-1,372
 454 505 454 505 455 505 c 2,373,-1
 460 505 l 2,374,375
 462 504 462 504 466 504 c 2,376,-1
 472 503 l 1,377,-1
 482 503 l 1,378,-1
 482 504 l 1,361,-1
EndSplineSet
Validated: 33
EndChar

StartChar: G
Encoding: 71 71 6
Width: 435
Flags: W
LayerCount: 2
Fore
SplineSet
73 -4 m 0,0,1
 40 12 40 12 28.5 45.5 c 128,-1,2
 17 79 17 79 22 122 c 128,-1,3
 27 165 27 165 47 214.5 c 128,-1,4
 67 264 67 264 95.5 312.5 c 128,-1,5
 124 361 124 361 159.5 405.5 c 128,-1,6
 195 450 195 450 232 482.5 c 128,-1,7
 269 515 269 515 304.5 532.5 c 128,-1,8
 340 550 340 550 370 545 c 0,9,10
 391 541 391 541 401 526.5 c 128,-1,11
 411 512 411 512 411.5 491 c 128,-1,12
 412 470 412 470 405.5 445.5 c 128,-1,13
 399 421 399 421 386.5 397 c 128,-1,14
 374 373 374 373 358 353 c 128,-1,15
 342 333 342 333 324 321 c 0,16,17
 304 307 304 307 292.5 309.5 c 128,-1,18
 281 312 281 312 278 322 c 128,-1,19
 275 332 275 332 278.5 346 c 128,-1,20
 282 360 282 360 292 369 c 1,21,22
 292 368 292 368 295.5 371 c 128,-1,23
 299 374 299 374 305 379 c 128,-1,24
 311 384 311 384 318 391.5 c 128,-1,25
 325 399 325 399 332 407 c 0,26,27
 356 437 356 437 358 454.5 c 128,-1,28
 360 472 360 472 348 476 c 128,-1,29
 336 480 336 480 313.5 470.5 c 128,-1,30
 291 461 291 461 266 436 c 0,31,32
 238 409 238 409 207.5 368 c 128,-1,33
 177 327 177 327 151 282 c 128,-1,34
 125 237 125 237 106 192 c 128,-1,35
 87 147 87 147 82.5 111.5 c 128,-1,36
 78 76 78 76 90 53.5 c 128,-1,37
 102 31 102 31 138 32 c 0,38,39
 169 32 169 32 195 43 c 128,-1,40
 221 54 221 54 243 72 c 128,-1,41
 265 90 265 90 284 113.5 c 128,-1,42
 303 137 303 137 321 161 c 1,43,-1
 321 162 l 1,44,45
 307 160 307 160 289.5 158 c 128,-1,46
 272 156 272 156 257 156 c 0,47,48
 245 156 245 156 241.5 164 c 128,-1,49
 238 172 238 172 240 181.5 c 128,-1,50
 242 191 242 191 247.5 199 c 128,-1,51
 253 207 253 207 260 208 c 0,52,53
 265 209 265 209 272 210 c 128,-1,54
 279 211 279 211 287 212 c 0,55,56
 311 214 311 214 327.5 215 c 128,-1,57
 344 216 344 216 360 217.5 c 128,-1,58
 376 219 376 219 394.5 220.5 c 128,-1,59
 413 222 413 222 441 225 c 0,60,61
 450 227 450 227 455.5 220 c 128,-1,62
 461 213 461 213 462 203 c 128,-1,63
 463 193 463 193 457.5 184 c 128,-1,64
 452 175 452 175 438 172 c 0,65,66
 422 169 422 169 416 168.5 c 128,-1,67
 410 168 410 168 406 168 c 128,-1,68
 402 168 402 168 397.5 168.5 c 128,-1,69
 393 169 393 169 380 168 c 1,70,71
 383 156 383 156 371 135 c 0,72,73
 342 89 342 89 305 55 c 128,-1,74
 268 21 268 21 228.5 2.5 c 128,-1,75
 189 -16 189 -16 149 -18.5 c 128,-1,76
 109 -21 109 -21 73 -4 c 0,0,1
181 397 m 0,77,78
 199 418 199 418 196.5 418 c 128,-1,79
 194 418 194 418 175 400 c 0,80,81
 172 396 172 396 169 393 c 128,-1,82
 166 390 166 390 163 385 c 0,83,84
 156 378 156 378 149 370 c 128,-1,85
 142 362 142 362 136 352 c 0,86,87
 126 339 126 339 116 318 c 2,88,-1
 100 287 l 1,89,-1
 95 274 l 2,90,91
 93 268 93 268 90 261 c 2,92,-1
 87 257 l 1,93,94
 87 257 87 257 88 256 c 1,95,96
 88 257 88 257 89 258.5 c 128,-1,97
 90 260 90 260 91 262 c 0,98,99
 93 264 93 264 93.5 267.5 c 128,-1,100
 94 271 94 271 96 273 c 2,101,-1
 100 284 l 2,102,103
 109 298 109 298 118 313.5 c 128,-1,104
 127 329 127 329 140 348 c 0,105,106
 146 357 146 357 153 365.5 c 128,-1,107
 160 374 160 374 166 380 c 0,108,109
 168 384 168 384 171 386 c 128,-1,110
 174 388 174 388 177 394 c 2,111,-1
 177 395 l 1,112,-1
 178 395 l 2,113,114
 179 395 179 395 181 397 c 0,77,78
192 23 m 0,115,116
 172 15 172 15 174.5 14.5 c 128,-1,117
 177 14 177 14 196 18 c 0,118,119
 201 19 201 19 204 21.5 c 128,-1,120
 207 24 207 24 210 23 c 0,121,122
 223 26 223 26 240 35 c 0,123,124
 245 36 245 36 251 41 c 128,-1,125
 257 46 257 46 262 51 c 2,126,-1
 286 66 l 2,127,128
 287 68 287 68 289.5 71 c 128,-1,129
 292 74 292 74 292 75 c 0,130,131
 294 77 294 77 296 77.5 c 128,-1,132
 298 78 298 78 301 80 c 1,133,134
 298 81 298 81 296 79 c 128,-1,135
 294 77 294 77 292 76 c 2,136,-1
 286 71 l 2,137,138
 276 65 276 65 264 56.5 c 128,-1,139
 252 48 252 48 238 41 c 0,140,141
 223 32 223 32 209 28 c 0,142,143
 206 26 206 26 204 26.5 c 128,-1,144
 202 27 202 27 197 25 c 1,145,-1
 197 24 l 1,146,-1
 196 24 l 2,147,148
 194 24 194 24 192 23 c 0,115,116
325 516 m 0,149,150
 345 526 345 526 342 526.5 c 128,-1,151
 339 527 339 527 320 521 c 0,152,153
 317 519 317 519 314.5 516.5 c 128,-1,154
 312 514 312 514 308 514 c 0,155,156
 301 511 301 511 294 507 c 128,-1,157
 287 503 287 503 280 497 c 0,158,159
 275 495 275 495 269 490 c 128,-1,160
 263 485 263 485 258 478 c 0,161,162
 250 473 250 473 245.5 469 c 128,-1,163
 241 465 241 465 236 461 c 0,164,165
 234 459 234 459 232.5 455.5 c 128,-1,166
 231 452 231 452 231 451 c 0,167,168
 228 448 228 448 222 445 c 1,169,170
 224 444 224 444 226.5 446.5 c 128,-1,171
 229 449 229 449 231 450 c 2,172,-1
 236 457 l 2,173,174
 245 463 245 463 256.5 473 c 128,-1,175
 268 483 268 483 283 493 c 0,176,177
 290 499 290 499 296.5 503 c 128,-1,178
 303 507 303 507 310 510 c 0,179,180
 312 512 312 512 314.5 511.5 c 128,-1,181
 317 511 317 511 321 514 c 1,182,-1
 321 515 l 1,183,-1
 322 515 l 2,184,185
 324 515 324 515 325 516 c 0,149,150
320 192 m 0,186,187
 323 192 323 192 329 194 c 2,188,-1
 338 195 l 2,189,190
 341 196 341 196 349 196 c 2,191,-1
 360 199 l 2,192,193
 366 201 366 201 368 201 c 2,194,-1
 373 202 l 2,195,196
 375 204 375 204 376.5 203.5 c 128,-1,197
 378 203 378 203 380 204 c 2,198,-1
 383 205 l 1,199,-1
 381 205 l 2,200,201
 377 205 377 205 374 206 c 0,202,203
 373 204 373 204 367 204 c 0,204,205
 365 204 365 204 363 203.5 c 128,-1,206
 361 203 361 203 358 203 c 2,207,-1
 349 201 l 2,208,209
 342 201 342 201 339 199 c 2,210,-1
 330 198 l 1,211,-1
 320 196 l 2,212,213
 318 196 318 196 315.5 194.5 c 128,-1,214
 313 193 313 193 311 193 c 0,215,216
 309 192 309 192 305 192 c 0,217,218
 301 191 301 191 300 189 c 1,219,220
 298 190 298 190 297 189.5 c 128,-1,221
 296 189 296 189 294 189 c 2,222,-1
 293 189 l 1,223,-1
 291 185 l 2,224,225
 292 185 292 185 293 186 c 0,226,227
 294 186 294 186 294 186.5 c 128,-1,228
 294 187 294 187 295 187 c 0,229,230
 298 187 298 187 301 186 c 1,231,232
 301 188 301 188 305 188 c 0,233,234
 307 189 307 189 308.5 189.5 c 128,-1,235
 310 190 310 190 312 190 c 0,236,237
 318 192 318 192 320 192 c 0,186,187
117 293 m 0,238,239
 114 290 114 290 113 286 c 2,240,-1
 115 289 l 1,241,-1
 118 293 l 2,242,243
 118 295 118 295 119.5 298 c 128,-1,244
 121 301 121 301 123 305 c 0,245,246
 127 311 127 311 129.5 314.5 c 128,-1,247
 132 318 132 318 136 325 c 0,248,249
 138 326 138 326 140.5 331 c 128,-1,250
 143 336 143 336 147 341 c 0,251,252
 152 346 152 346 155 351 c 128,-1,253
 158 356 158 356 163 361 c 0,254,255
 163 362 163 362 164 363 c 256,256,257
 165 364 165 364 165.5 365 c 128,-1,258
 166 366 166 366 168 368 c 0,259,260
 168 369 168 369 169 369 c 128,-1,261
 170 369 170 369 168 371 c 1,262,263
 170 372 170 372 170 376 c 2,264,-1
 159 363 l 2,265,266
 155 359 155 359 151.5 354 c 128,-1,267
 148 349 148 349 146 346 c 0,268,269
 141 341 141 341 138 335.5 c 128,-1,270
 135 330 135 330 132 324 c 0,271,272
 130 319 130 319 128.5 316 c 128,-1,273
 127 313 127 313 122 306 c 0,274,275
 120 302 120 302 118.5 298.5 c 128,-1,276
 117 295 117 295 117 293 c 0,238,239
368 189 m 0,277,278
 371 189 371 189 374.5 190 c 128,-1,279
 378 191 378 191 381 191 c 0,280,281
 384 192 384 192 387 193 c 128,-1,282
 390 194 390 194 392 194 c 0,283,284
 396 194 396 194 395 195 c 2,285,-1
 400 199 l 1,286,-1
 399 199 l 1,287,-1
 391 197 l 2,288,289
 386 196 386 196 380.5 196 c 128,-1,290
 375 196 375 196 367 194 c 256,291,292
 359 192 359 192 355 190 c 0,293,294
 352 190 352 190 349.5 189 c 128,-1,295
 347 188 347 188 345 188 c 0,296,297
 339 188 339 188 339 187 c 2,298,-1
 337 185 l 1,299,-1
 338 184 l 2,300,301
 340 186 340 186 345 186 c 0,302,303
 347 185 347 185 350 185.5 c 128,-1,304
 353 186 353 186 356 186 c 0,305,306
 359 188 359 188 362 188 c 128,-1,307
 365 188 365 188 368 189 c 0,277,278
264 63 m 0,308,309
 266 65 266 65 267.5 67.5 c 128,-1,310
 269 70 269 70 271 71 c 1,311,312
 269 71 269 71 267.5 69 c 128,-1,313
 266 67 266 67 263 65 c 0,314,315
 259 63 259 63 255.5 61 c 128,-1,316
 252 59 252 59 248 56 c 0,317,318
 247 57 247 57 243 54 c 128,-1,319
 239 51 239 51 234 49 c 0,320,321
 227 45 227 45 217 43 c 0,322,323
 216 42 216 42 216 41 c 0,324,325
 215 40 215 40 215 39 c 128,-1,326
 215 38 215 38 213 37 c 1,327,328
 211 41 211 41 211 37 c 1,329,330
 207 37 207 37 207 35 c 1,331,332
 211 35 211 35 213.5 35.5 c 128,-1,333
 216 36 216 36 221 37 c 2,334,-1
 234 44 l 2,335,336
 238 46 238 46 242 49 c 128,-1,337
 246 52 246 52 249 55 c 0,338,339
 254 59 254 59 256 60 c 128,-1,340
 258 61 258 61 264 63 c 0,308,309
252 458 m 2,341,342
 254 459 254 459 255.5 460.5 c 128,-1,343
 257 462 257 462 260 464 c 0,344,345
 263 468 263 468 266 470 c 128,-1,346
 269 472 269 472 274 477 c 1,347,348
 275 476 275 476 278 479 c 128,-1,349
 281 482 281 482 285 485 c 0,350,351
 290 488 290 488 294.5 490 c 128,-1,352
 299 492 299 492 304 494 c 1,353,354
 303 495 303 495 304 496 c 0,355,356
 304 497 304 497 308 499 c 0,357,358
 310 499 310 499 310 501 c 1,359,360
 312 501 312 501 312 503 c 1,361,362
 308 502 308 502 306.5 501 c 128,-1,363
 305 500 305 500 300 498 c 2,364,-1
 286 490 l 2,365,366
 282 488 282 488 278.5 484 c 128,-1,367
 275 480 275 480 273 478 c 0,368,369
 268 473 268 473 266 471 c 128,-1,370
 264 469 264 469 258 466 c 2,371,-1
 252 458 l 2,341,342
293 196 m 256,372,373
 292 196 292 196 291 195 c 256,374,375
 290 194 290 194 290 193 c 2,376,-1
 293 195 l 2,377,378
 294 195 294 195 295 195.5 c 128,-1,379
 296 196 296 196 297 196 c 0,380,381
 302 196 302 196 304 197 c 0,382,383
 309 197 309 197 312 198 c 0,384,385
 314 198 314 198 315 199 c 128,-1,386
 316 200 316 200 317 200 c 0,387,388
 322 200 322 200 323 201 c 0,389,390
 327 204 327 204 329 204 c 2,391,-1
 327 205 l 2,392,393
 326 204 326 204 325 204 c 2,394,-1
 324 204 l 2,395,396
 321 201 321 201 318 203 c 0,397,398
 316 203 316 203 310 199 c 2,399,-1
 303 198 l 2,400,401
 301 198 301 198 299.5 197.5 c 128,-1,402
 298 197 298 197 296 197 c 256,403,404
 294 197 294 197 294 196.5 c 128,-1,405
 294 196 294 196 293 196 c 256,372,373
304 85 m 1,406,407
 301 82 301 82 301 80 c 1,408,409
 302 80 302 80 302 80.5 c 128,-1,410
 302 81 302 81 303 81 c 2,411,412
 303 81 303 81 305 85 c 1,413,414
 304 84 304 84 304 85 c 1,406,407
221 444 m 2,415,416
 221 443 221 443 220.5 442.5 c 128,-1,417
 220 442 220 442 220 441 c 2,418,-1
 220 440 l 2,419,420
 220 441 220 441 221 441.5 c 128,-1,421
 222 442 222 442 222 444 c 2,422,-1
 221 444 l 2,415,416
271 71 m 2,423,424
 271 69 271 69 273 71 c 2,425,-1
 271 71 l 2,423,424
387 206 m 1,426,427
 387 206 387 206 389 206 c 2,428,-1
 388 207 l 1,429,-1
 387 206 l 1,426,427
252 458 m 2,430,431
 250 458 250 458 249 457 c 2,432,-1
 252 458 l 2,430,431
275 73 m 1,433,-1
 278 77 l 1,434,-1
 277 76 l 1,435,-1
 275 73 l 1,433,-1
334 183 m 2,436,437
 334 184 334 184 335 185 c 1,438,439
 334 185 334 185 334 184 c 2,440,-1
 334 183 l 2,436,437
EndSplineSet
Validated: 37
EndChar

StartChar: H
Encoding: 72 72 7
Width: 483
Flags: W
LayerCount: 2
Fore
SplineSet
82 6 m 0,0,1
 74 -8 74 -8 60 -14 c 128,-1,2
 46 -20 46 -20 34 -19 c 128,-1,3
 22 -18 22 -18 16.5 -9 c 128,-1,4
 11 0 11 0 20 18 c 0,5,6
 33 47 33 47 46.5 79 c 128,-1,7
 60 111 60 111 72 140 c 0,8,9
 79 157 79 157 87.5 176 c 128,-1,10
 96 195 96 195 105 217 c 0,11,12
 115 239 115 239 124 261 c 128,-1,13
 133 283 133 283 144 305 c 2,14,-1
 182 394 l 2,15,16
 187 405 187 405 193 420.5 c 128,-1,17
 199 436 199 436 205 452 c 128,-1,18
 211 468 211 468 216.5 482.5 c 128,-1,19
 222 497 222 497 226 506 c 0,20,21
 235 527 235 527 250 538.5 c 128,-1,22
 265 550 265 550 277 548.5 c 128,-1,23
 289 547 289 547 293.5 532 c 128,-1,24
 298 517 298 517 286 484 c 0,25,26
 266 433 266 433 240 374.5 c 128,-1,27
 214 316 214 316 188 256 c 0,28,29
 186 252 186 252 184.5 248 c 128,-1,30
 183 244 183 244 181 240 c 2,31,-1
 215 243 l 1,32,-1
 260 247 l 2,33,34
 272 249 272 249 283.5 250 c 128,-1,35
 295 251 295 251 306 252 c 2,36,-1
 346 256 l 2,37,38
 351 257 351 257 356 257.5 c 128,-1,39
 361 258 361 258 365 258 c 0,40,41
 394 324 394 324 419 386 c 128,-1,42
 444 448 444 448 470 514 c 0,43,44
 478 534 478 534 491 542 c 128,-1,45
 504 550 504 550 514.5 547 c 128,-1,46
 525 544 525 544 530 530 c 128,-1,47
 535 516 535 516 528 491 c 0,48,49
 523 474 523 474 511 443.5 c 128,-1,50
 499 413 499 413 485 378.5 c 128,-1,51
 471 344 471 344 456 310 c 128,-1,52
 441 276 441 276 429 251 c 0,53,54
 404 193 404 193 375.5 130 c 128,-1,55
 347 67 347 67 321 8 c 0,56,57
 315 -6 315 -6 301.5 -12.5 c 128,-1,58
 288 -19 288 -19 275.5 -17.5 c 128,-1,59
 263 -16 263 -16 256 -7 c 128,-1,60
 249 2 249 2 257 19 c 2,61,-1
 336 193 l 1,62,-1
 296 190 l 1,63,-1
 248 185 l 2,64,65
 235 184 235 184 223 183 c 128,-1,66
 211 182 211 182 199 180 c 2,67,-1
 156 176 l 1,68,-1
 154 176 l 1,69,-1
 151 169 l 1,70,-1
 118 92 l 2,71,72
 114 84 114 84 109 71 c 128,-1,73
 104 58 104 58 99 45.5 c 128,-1,74
 94 33 94 33 89.5 22 c 128,-1,75
 85 11 85 11 82 6 c 0,0,1
461 422 m 2,76,77
 459 419 459 419 458 415.5 c 128,-1,78
 457 412 457 412 455 408 c 0,79,80
 454 401 454 401 450 394 c 0,81,82
 448 389 448 389 447 386 c 128,-1,83
 446 383 446 383 444 380 c 2,84,-1
 441 368 l 2,85,86
 439 365 439 365 439 362.5 c 128,-1,87
 439 360 439 360 438 358 c 0,88,89
 435 352 435 352 435 349 c 2,90,-1
 439 357 l 1,91,-1
 444 367 l 1,92,-1
 448 378 l 1,93,-1
 454 392 l 1,94,-1
 459 406 l 2,95,96
 461 410 461 410 462.5 413.5 c 128,-1,97
 464 417 464 417 465 421 c 2,98,-1
 471 435 l 1,99,-1
 476 450 l 1,100,-1
 481 463 l 2,101,102
 483 467 483 467 483 470 c 128,-1,103
 483 473 483 473 484 476 c 0,104,105
 488 481 488 481 488 486 c 0,106,107
 490 492 490 492 492 494 c 0,108,109
 492 495 492 495 492.5 495.5 c 128,-1,110
 493 496 493 496 493 497 c 2,111,112
 493 497 493 497 492 499 c 2,113,-1
 492 498 l 2,114,115
 492 497 492 497 490 495 c 2,116,-1
 487 487 l 2,117,118
 486 483 486 483 482 477 c 0,119,120
 480 474 480 474 480 471.5 c 128,-1,121
 480 469 480 469 478 465 c 0,122,123
 476 462 476 462 475 459 c 128,-1,124
 474 456 474 456 472 452 c 256,125,126
 470 448 470 448 469 444.5 c 128,-1,127
 468 441 468 441 466 438 c 2,128,-1
 461 422 l 2,76,77
97 118 m 1,129,-1
 91 103 l 1,130,-1
 86 89 l 2,131,132
 84 85 84 85 82 77 c 2,133,-1
 77 67 l 1,134,-1
 74 59 l 2,135,136
 74 58 74 58 73.5 57.5 c 128,-1,137
 73 57 73 57 73 56 c 2,138,139
 73 56 73 56 72 54 c 2,140,-1
 73 55 l 2,141,142
 73 56 73 56 75 58 c 2,143,-1
 79 66 l 1,144,-1
 84 76 l 1,145,-1
 89 88 l 1,146,-1
 95 101 l 1,147,-1
 102 115 l 1,148,-1
 107 130 l 2,149,150
 109 134 109 134 110.5 137.5 c 128,-1,151
 112 141 112 141 114 145 c 2,152,-1
 119 159 l 2,153,154
 123 166 123 166 125 173 c 0,155,156
 126 173 126 173 126 174 c 1,157,158
 124 173 124 173 123.5 173.5 c 128,-1,159
 123 174 123 174 122 174 c 2,160,-1
 116 161 l 1,161,-1
 110 147 l 1,162,-1
 103 132 l 1,163,-1
 97 118 l 1,129,-1
416 330 m 2,164,165
 417 330 417 330 417 331 c 2,166,167
 417 331 417 331 418 333 c 0,168,169
 419 334 419 334 419 335 c 128,-1,170
 419 336 419 336 420 338 c 2,171,-1
 423 345 l 1,172,-1
 438 383 l 1,173,-1
 445 403 l 2,174,175
 447 408 447 408 448.5 412.5 c 128,-1,176
 450 417 450 417 451 421 c 2,177,-1
 454 428 l 2,178,179
 453 430 453 430 453.5 431 c 128,-1,180
 454 432 454 432 454 434 c 2,181,-1
 454 435 l 2,182,183
 454 436 454 436 454.5 436 c 128,-1,184
 455 436 455 436 455 437 c 1,185,186
 455 436 455 436 454.5 436 c 128,-1,187
 454 436 454 436 454 435 c 0,188,189
 452 431 452 431 452 429 c 2,190,-1
 448 422 l 2,191,192
 446 418 446 418 444 414 c 128,-1,193
 442 410 442 410 440 405 c 2,194,-1
 433 384 l 2,195,196
 429 375 429 375 426 364 c 0,197,198
 424 359 424 359 422.5 354.5 c 128,-1,199
 421 350 421 350 420 346 c 0,200,201
 418 342 418 342 418 339 c 0,202,203
 418 337 418 337 417.5 336 c 128,-1,204
 417 335 417 335 417 333 c 0,205,206
 417 332 417 332 416 331 c 2,207,-1
 416 330 l 2,164,165
132 170 m 1,208,-1
 124 150 l 1,209,-1
 117 132 l 1,210,-1
 115 124 l 2,211,212
 114 122 114 122 114 121 c 128,-1,213
 114 120 114 120 113 119 c 2,214,-1
 113 116 l 2,215,216
 113 117 113 117 114 118 c 2,217,-1
 117 123 l 1,218,-1
 120 130 l 2,219,220
 125 139 125 139 128 147 c 2,221,-1
 137 168 l 1,222,-1
 140 175 l 2,223,224
 136 175 136 175 134 174 c 2,225,-1
 132 170 l 1,208,-1
348 232 m 2,226,227
 343 232 343 232 341 231 c 2,228,-1
 333 230 l 2,229,230
 328 230 328 230 325 229 c 2,231,-1
 318 228 l 2,232,233
 313 228 313 228 311 227 c 2,234,-1
 304 226 l 2,235,236
 302 226 302 226 301.5 225.5 c 128,-1,237
 301 225 301 225 299 225 c 256,238,239
 297 225 297 225 296.5 224.5 c 128,-1,240
 296 224 296 224 295 224 c 2,241,-1
 291 224 l 1,242,-1
 292 223 l 1,243,-1
 305 223 l 2,244,245
 306 224 306 224 311 224 c 2,246,-1
 318 224 l 1,247,-1
 326 225 l 1,248,-1
 333 225 l 1,249,-1
 349 227 l 2,250,251
 351 227 351 227 352 228 c 0,252,253
 352 230 352 230 354 232 c 2,254,-1
 348 232 l 2,226,227
283 234 m 2,255,256
 282 234 282 234 282 233 c 2,257,-1
 290 233 l 2,258,259
 295 233 295 233 299.5 233.5 c 128,-1,260
 304 234 304 234 310 235 c 0,261,262
 313 235 313 235 315.5 235.5 c 128,-1,263
 318 236 318 236 321 236 c 0,264,265
 327 238 327 238 330 238 c 0,266,267
 331 239 331 239 334 239 c 2,268,-1
 336 241 l 1,269,-1
 334 242 l 2,270,271
 332 241 332 241 330 241 c 0,272,273
 325 242 325 242 321 241 c 0,274,275
 314 241 314 241 310 240 c 2,276,-1
 299 238 l 1,277,-1
 290 236 l 2,278,279
 288 236 288 236 287 235 c 256,280,281
 286 234 286 234 284 234 c 2,282,-1
 283 234 l 2,255,256
67 63 m 0,283,284
 66 62 66 62 66 60 c 2,285,286
 66 60 66 60 68 62 c 2,287,-1
 71 70 l 1,288,-1
 76 80 l 2,289,290
 78 83 78 83 80 91 c 2,291,-1
 86 103 l 1,292,-1
 89 113 l 2,293,294
 89 114 89 114 89.5 115 c 128,-1,295
 90 116 90 116 90 117 c 2,296,-1
 88 114 l 2,297,298
 87 112 87 112 86.5 109 c 128,-1,299
 86 106 86 106 84 104 c 2,300,-1
 78 92 l 1,301,-1
 74 81 l 1,302,-1
 69 70 l 2,303,304
 69 69 69 69 67 63 c 0,283,284
495 483 m 1,305,-1
 490 473 l 2,306,307
 489 471 489 471 488 468 c 128,-1,308
 487 465 487 465 486 461 c 0,309,310
 484 458 484 458 482 450 c 0,311,312
 480 448 480 448 480 445 c 128,-1,313
 480 442 480 442 478 440 c 0,314,315
 476 434 476 434 476 433 c 1,316,317
 476 434 476 434 478 436 c 0,318,319
 478 437 478 437 480 439 c 0,320,321
 481 441 481 441 481 444 c 128,-1,322
 481 447 481 447 483 449 c 0,323,324
 486 453 486 453 488 461 c 0,325,326
 490 465 490 465 492 473 c 2,327,-1
 497 482 l 2,328,329
 496 485 496 485 498 489 c 0,330,331
 499 491 499 491 499 493 c 1,332,333
 499 492 499 492 498.5 491.5 c 128,-1,334
 498 491 498 491 498 490 c 2,335,-1
 495 483 l 1,305,-1
348 220 m 2,336,337
 349 221 349 221 349 222 c 1,338,339
 346 222 346 222 345 221 c 0,340,341
 342 221 342 221 341 220 c 2,342,-1
 348 220 l 2,336,337
435 346 m 1,343,-1
 435 348 l 1,344,-1
 433 344 l 1,345,-1
 435 346 l 1,343,-1
112 115 m 2,346,347
 113 115 113 115 113 116 c 2,348,-1
 112 115 l 2,346,347
EndSplineSet
Validated: 37
EndChar

StartChar: I
Encoding: 73 73 8
Width: 290
Flags: W
LayerCount: 2
Fore
SplineSet
22 37 m 0,0,1
 33 37 33 37 55.5 33.5 c 128,-1,2
 78 30 78 30 98 32 c 1,3,4
 122 83 122 83 146 141.5 c 128,-1,5
 170 200 170 200 192.5 261 c 128,-1,6
 215 322 215 322 236 382 c 128,-1,7
 257 442 257 442 275 495 c 0,8,9
 276 497 276 497 260 497 c 128,-1,10
 244 497 244 497 224.5 496 c 128,-1,11
 205 495 205 495 187.5 492.5 c 128,-1,12
 170 490 170 490 167 488 c 0,13,14
 161 483 161 483 156 488.5 c 128,-1,15
 151 494 151 494 149.5 504 c 128,-1,16
 148 514 148 514 150.5 524.5 c 128,-1,17
 153 535 153 535 162 540 c 0,18,19
 193 546 193 546 232 547.5 c 128,-1,20
 271 549 271 549 310.5 548 c 128,-1,21
 350 547 350 547 387.5 544 c 128,-1,22
 425 541 425 541 455 538 c 0,23,24
 467 536 467 536 471 527.5 c 128,-1,25
 475 519 475 519 473 509 c 128,-1,26
 471 499 471 499 464.5 491.5 c 128,-1,27
 458 484 458 484 451 485 c 0,28,29
 425 488 425 488 394.5 489.5 c 128,-1,30
 364 491 364 491 344 489 c 1,31,32
 300 391 300 391 257 275 c 128,-1,33
 214 159 214 159 169 45 c 0,34,35
 168 42 168 42 168.5 39.5 c 128,-1,36
 169 37 169 37 168 34 c 1,37,38
 182 34 182 34 188.5 35 c 128,-1,39
 195 36 195 36 199.5 37 c 128,-1,40
 204 38 204 38 211 38 c 128,-1,41
 218 38 218 38 233 36 c 0,42,43
 246 36 246 36 246 35 c 0,44,45
 251 24 251 24 248.5 15 c 128,-1,46
 246 6 246 6 241 -3 c 0,47,48
 239 -8 239 -8 237 -10 c 128,-1,49
 235 -12 235 -12 233 -14 c 0,50,51
 230 -16 230 -16 229 -16 c 0,52,53
 175 -14 175 -14 121.5 -15 c 128,-1,54
 68 -16 68 -16 11 -18 c 0,55,56
 0 -19 0 -19 -2.5 -12 c 128,-1,57
 -5 -5 -5 -5 -1.5 5 c 128,-1,58
 2 15 2 15 8.5 24.5 c 128,-1,59
 15 34 15 34 22 37 c 0,0,1
165 122 m 1,60,-1
 160 108 l 2,61,62
 159 104 159 104 158 101 c 128,-1,63
 157 98 157 98 156 95 c 0,64,65
 155 90 155 90 152 86 c 1,66,-1
 155 86 l 2,67,68
 157 88 157 88 159 93 c 0,69,70
 161 96 161 96 162 99 c 128,-1,71
 163 102 163 102 165 106 c 0,72,73
 169 113 169 113 170 120 c 2,74,-1
 175 134 l 2,75,76
 177 137 177 137 178.5 140.5 c 128,-1,77
 180 144 180 144 182 148 c 0,78,79
 182 152 182 152 183 155.5 c 128,-1,80
 184 159 184 159 185 163 c 0,81,82
 189 168 189 168 191 176 c 256,83,84
 193 184 193 184 195 188 c 0,85,86
 198 193 198 193 197 198 c 0,87,88
 198 200 198 200 198 202 c 128,-1,89
 198 204 198 204 200 206 c 2,90,-1
 200 207 l 1,91,-1
 199 206 l 2,92,93
 198 205 198 205 196 198 c 0,94,95
 196 195 196 195 192 189 c 0,96,97
 190 181 190 181 188 177 c 2,98,-1
 181 164 l 1,99,-1
 177 150 l 2,100,101
 175 147 175 147 173.5 143.5 c 128,-1,102
 172 140 172 140 171 136 c 2,103,-1
 165 122 l 1,60,-1
213 209 m 2,104,105
 209 201 209 201 206 192.5 c 128,-1,106
 203 184 203 184 198 173 c 2,107,-1
 190 153 l 2,108,109
 189 148 189 148 187.5 144 c 128,-1,110
 186 140 186 140 185 135 c 0,111,112
 183 130 183 130 185 128 c 0,113,114
 184 126 184 126 183 125 c 128,-1,115
 182 124 182 124 182 123 c 0,116,117
 181 120 181 120 182 119 c 2,118,119
 182 119 182 119 182 120 c 2,120,-1
 182 122 l 2,121,122
 183 124 183 124 187 127 c 0,123,124
 187 129 187 129 186.5 130.5 c 128,-1,125
 186 132 186 132 188 134 c 0,126,127
 190 137 190 137 191.5 141 c 128,-1,128
 193 145 193 145 196 150 c 0,129,130
 197 160 197 160 203 170 c 0,131,132
 205 175 205 175 206.5 180 c 128,-1,133
 208 185 208 185 210 190 c 0,134,135
 211 195 211 195 212 199 c 128,-1,136
 213 203 213 203 215 207 c 0,137,138
 217 213 217 213 217 215 c 0,139,140
 218 217 218 217 217.5 218 c 128,-1,141
 217 219 217 219 218 220 c 256,142,143
 219 221 219 221 219 222 c 2,144,-1
 219 224 l 2,145,146
 219 223 219 223 217 221 c 2,147,-1
 215 215 l 1,148,-1
 213 209 l 2,104,105
416 517 m 2,149,150
 414 515 414 515 411.5 515.5 c 128,-1,151
 409 516 409 516 407 516 c 2,152,-1
 398 517 l 1,153,-1
 388 519 l 1,154,-1
 379 517 l 2,155,156
 375 520 375 520 371 518 c 0,157,158
 369 517 369 517 367.5 517.5 c 128,-1,159
 366 518 366 518 364 518 c 0,160,161
 361 517 361 517 357 517 c 0,162,163
 356 517 356 517 354.5 516.5 c 128,-1,164
 353 516 353 516 352 516 c 256,165,166
 351 516 351 516 350.5 516.5 c 128,-1,167
 350 517 350 517 349 517 c 2,168,-1
 353 515 l 1,169,-1
 358 515 l 2,170,171
 362 515 362 515 364 514 c 0,172,173
 366 515 366 515 367.5 514.5 c 128,-1,174
 369 514 369 514 371 515 c 0,175,176
 376 515 376 515 379 513 c 2,177,-1
 388 514 l 1,178,-1
 397 512 l 1,179,-1
 414 512 l 2,180,181
 420 512 420 512 424 511 c 2,182,-1
 431 513 l 2,183,184
 433 512 433 512 434.5 510.5 c 128,-1,185
 436 509 436 509 438 509 c 256,186,187
 440 509 440 509 441 509.5 c 128,-1,188
 442 510 442 510 443 510 c 2,189,-1
 445 510 l 2,190,191
 444 510 444 510 443 511 c 2,192,193
 443 511 443 511 438 511 c 0,194,195
 436 511 436 511 434.5 512.5 c 128,-1,196
 433 514 433 514 431 515 c 0,197,198
 429 515 429 515 427.5 514.5 c 128,-1,199
 426 514 426 514 425 515 c 2,200,-1
 416 517 l 2,149,150
201 17 m 0,201,202
 199 17 199 17 196.5 17.5 c 128,-1,203
 194 18 194 18 192 17 c 2,204,-1
 184 17 l 2,205,206
 181 18 181 18 175 18 c 2,207,-1
 167 17 l 2,208,209
 164 18 164 18 159 18 c 2,210,-1
 152 18 l 2,211,212
 150 17 150 17 146 17 c 0,213,214
 143 17 143 17 141 16 c 2,215,-1
 142 16 l 2,216,217
 143 16 143 16 143.5 15.5 c 128,-1,218
 144 15 144 15 146 15 c 0,219,220
 150 15 150 15 152 14 c 0,221,222
 155 15 155 15 159 14 c 0,223,224
 164 14 164 14 166 13 c 2,225,-1
 175 13 l 2,226,227
 180 13 180 13 183 12 c 2,228,-1
 208 12 l 2,229,230
 210 12 210 12 211.5 12.5 c 128,-1,231
 213 13 213 13 215 13 c 256,232,233
 217 13 217 13 218 12.5 c 128,-1,234
 219 12 219 12 221 13 c 2,235,-1
 227 13 l 1,236,237
 227 13 227 13 226 14 c 2,238,-1
 221 14 l 2,239,240
 219 14 219 14 215 16 c 2,241,-1
 208 16 l 2,242,243
 203 16 203 16 201 17 c 0,201,202
337 528 m 2,244,245
 338 528 338 528 338 527.5 c 128,-1,246
 338 527 338 527 339 527 c 0,247,248
 341 527 341 527 343 528 c 2,249,-1
 349 527 l 2,250,251
 354 526 354 526 359.5 525.5 c 128,-1,252
 365 525 365 525 372 526 c 0,253,254
 375 526 375 526 378.5 525.5 c 128,-1,255
 382 525 382 525 385 526 c 2,256,-1
 396 526 l 2,257,258
 397 526 397 526 398 526.5 c 128,-1,259
 399 527 399 527 400 527 c 2,260,-1
 406 527 l 1,261,-1
 405 528 l 1,262,-1
 404 528 l 2,263,264
 402 528 402 528 400 529 c 2,265,-1
 395 529 l 2,266,267
 389 531 389 531 384 530 c 0,268,269
 381 530 381 530 377 531 c 128,-1,270
 373 532 373 532 369 531 c 2,271,-1
 356 529 l 2,272,273
 352 530 352 530 345 530 c 0,274,275
 342 530 342 530 341 529 c 0,276,277
 339 529 339 529 339 528.5 c 128,-1,278
 339 528 339 528 338 528 c 2,279,-1
 337 528 l 2,244,245
134 28 m 1,280,281
 133 28 133 28 131 26 c 2,282,-1
 133 26 l 1,283,-1
 137 26 l 2,284,285
 141 26 141 26 146.5 26 c 128,-1,286
 152 26 152 26 158 25 c 2,287,-1
 170 25 l 2,288,289
 173 25 173 25 175.5 25.5 c 128,-1,290
 178 26 178 26 180 26 c 2,291,-1
 185 26 l 2,292,293
 186 27 186 27 188 27 c 0,294,295
 189 27 189 27 191 28 c 2,296,-1
 186 28 l 2,297,298
 184 29 184 29 181 29 c 0,299,300
 178 30 178 30 171 30 c 0,301,302
 163 30 163 30 159 31 c 0,303,304
 155 30 155 30 147 30 c 0,305,306
 140 30 140 30 137 29 c 0,307,308
 134 29 134 29 134 28 c 1,280,281
143 85 m 1,309,-1
 146 85 l 2,310,311
 148 88 148 88 148.5 91 c 128,-1,312
 149 94 149 94 150 96 c 0,313,314
 151 100 151 100 155 108 c 2,315,-1
 159 118 l 2,316,317
 159 120 159 120 159.5 121.5 c 128,-1,318
 160 123 160 123 160 125 c 1,319,320
 160 124 160 124 158 122 c 0,321,322
 158 121 158 121 157.5 120.5 c 128,-1,323
 157 120 157 120 158 118 c 2,324,-1
 153 108 l 2,325,326
 149 102 149 102 149 97 c 2,327,-1
 143 86 l 1,328,-1
 143 85 l 1,309,-1
441 501 m 2,329,330
 442 502 442 502 443 502 c 1,331,332
 443 503 443 503 442 503 c 0,333,334
 440 502 440 502 439 502 c 128,-1,335
 438 502 438 502 439 503 c 1,336,337
 437 503 437 503 433 507 c 0,338,339
 428 507 428 507 426 505 c 0,340,341
 423 507 423 507 418 507 c 0,342,343
 414 507 414 507 412 506 c 0,344,345
 411 505 411 505 410 505 c 1,346,347
 410 504 410 504 412 504 c 0,348,349
 414 505 414 505 418 505 c 0,350,351
 420 504 420 504 424 504 c 0,352,353
 426 503 426 503 427.5 503.5 c 128,-1,354
 429 504 429 504 431 504 c 256,355,356
 433 504 433 504 434 502.5 c 128,-1,357
 435 501 435 501 437 501 c 2,358,-1
 441 501 l 2,329,330
226 5 m 2,359,360
 225 6 225 6 224 6 c 2,361,-1
 220 6 l 2,362,363
 218 6 218 6 217 6.5 c 128,-1,364
 216 7 216 7 214 7 c 2,365,-1
 195 7 l 2,366,367
 193 7 193 7 193 6.5 c 128,-1,368
 193 6 193 6 192 6 c 2,369,-1
 193 6 l 1,370,371
 193 6 193 6 195 5 c 0,372,373
 196 6 196 6 201 5 c 0,374,375
 203 5 203 5 204 4.5 c 128,-1,376
 205 4 205 4 207 5 c 2,377,-1
 214 5 l 2,378,379
 216 5 216 5 217 4.5 c 128,-1,380
 218 4 218 4 220 4 c 0,381,382
 221 5 221 5 224 5 c 2,383,-1
 226 5 l 2,359,360
140 16 m 1,384,385
 140 16 140 16 139 17 c 0,386,387
 138 17 138 17 138 16 c 2,388,-1
 140 16 l 1,384,385
201 208 m 1,389,390
 201 208 201 208 202 210 c 0,391,392
 203 211 203 211 203 212 c 2,393,-1
 202 211 l 1,394,-1
 201 208 l 1,389,390
EndSplineSet
Validated: 33
EndChar

StartChar: J
Encoding: 74 74 9
Width: 352
Flags: W
LayerCount: 2
Fore
SplineSet
44 204 m 0,0,1
 61 215 61 215 69 206.5 c 128,-1,2
 77 198 77 198 82 185 c 0,3,4
 86 172 86 172 86.5 160.5 c 128,-1,5
 87 149 87 149 86 149 c 1,6,7
 86 145 86 145 75 119 c 0,8,9
 73 105 73 105 71.5 86 c 128,-1,10
 70 67 70 67 79 53 c 0,11,12
 88 41 88 41 112 42 c 128,-1,13
 136 43 136 43 159 60 c 0,14,15
 171 68 171 68 181.5 79 c 128,-1,16
 192 90 192 90 201 102 c 0,17,18
 206 109 206 109 209.5 115 c 128,-1,19
 213 121 213 121 218 129 c 2,20,-1
 232 160 l 2,21,22
 239 176 239 176 248 196.5 c 128,-1,23
 257 217 257 217 266 239 c 128,-1,24
 275 261 275 261 283.5 281.5 c 128,-1,25
 292 302 292 302 298 317 c 2,26,-1
 343 426 l 1,27,-1
 365 478 l 1,28,-1
 339 475 l 2,29,30
 327 473 327 473 315.5 471.5 c 128,-1,31
 304 470 304 470 294 468 c 256,32,33
 284 466 284 466 276 465.5 c 128,-1,34
 268 465 268 465 263 463 c 0,35,36
 256 460 256 460 250.5 467 c 128,-1,37
 245 474 245 474 243.5 485.5 c 128,-1,38
 242 497 242 497 244.5 508.5 c 128,-1,39
 247 520 247 520 255 525 c 0,40,41
 256 525 256 525 259 525.5 c 128,-1,42
 262 526 262 526 269 527 c 0,43,44
 276 529 276 529 284 530 c 128,-1,45
 292 531 292 531 303 532 c 2,46,-1
 350 538 l 2,47,48
 364 539 364 539 377 540.5 c 128,-1,49
 390 542 390 542 404 542 c 0,50,51
 418 543 418 543 431.5 543 c 128,-1,52
 445 543 445 543 459 543 c 0,53,54
 473 544 473 544 485 543.5 c 128,-1,55
 497 543 497 543 508 542 c 2,56,-1
 528 540 l 2,57,58
 533 539 533 539 537 538.5 c 128,-1,59
 541 538 541 538 545 538 c 2,60,-1
 560 535 l 1,61,62
 565 524 565 524 560.5 513 c 128,-1,63
 556 502 556 502 551 494 c 0,64,65
 548 489 548 489 545 486 c 128,-1,66
 542 483 542 483 540 481 c 2,67,-1
 535 476 l 2,68,69
 535 477 535 477 523 479 c 2,70,-1
 491 481 l 2,71,72
 480 482 480 482 468.5 482 c 128,-1,73
 457 482 457 482 444 482 c 2,74,-1
 432 482 l 1,75,-1
 432 471 l 2,76,77
 429 468 429 468 418 440 c 2,78,-1
 386 363 l 2,79,80
 381 351 381 351 373 333.5 c 128,-1,81
 365 316 365 316 356.5 296 c 128,-1,82
 348 276 348 276 340 256.5 c 128,-1,83
 332 237 332 237 326 222 c 0,84,85
 313 191 313 191 299.5 160 c 128,-1,86
 286 129 286 129 270 97 c 0,87,88
 252 63 252 63 224 34 c 128,-1,89
 196 5 196 5 156 -11 c 0,90,91
 135 -19 135 -19 111.5 -20 c 128,-1,92
 88 -21 88 -21 65 -10 c 0,93,94
 39 1 39 1 26 24 c 128,-1,95
 13 47 13 47 11 66 c 0,96,97
 8 86 8 86 10 101 c 128,-1,98
 12 116 12 116 15 129 c 0,99,100
 17 142 17 142 21 151.5 c 128,-1,101
 25 161 25 161 27 170 c 0,102,103
 35 187 35 187 39.5 195 c 128,-1,104
 44 203 44 203 44 204 c 0,0,1
86 12 m 0,105,106
 81 15 81 15 74.5 18 c 128,-1,107
 68 21 68 21 63 26 c 2,108,-1
 53 36 l 2,109,110
 49 42 49 42 48 44 c 2,111,-1
 46 48 l 2,112,113
 45 47 45 47 44 51 c 128,-1,114
 43 55 43 55 42 60 c 0,115,116
 40 65 40 65 39 73 c 0,117,118
 38 79 38 79 38.5 85 c 128,-1,119
 39 91 39 91 38 96 c 0,120,121
 38 102 38 102 39 107 c 128,-1,122
 40 112 40 112 40 117 c 0,123,124
 42 122 42 122 43 125.5 c 128,-1,125
 44 129 44 129 45 133 c 2,126,-1
 48 145 l 1,127,128
 48 145 48 145 48 149 c 1,129,130
 47 148 47 148 47 146 c 0,131,132
 45 144 45 144 45 140.5 c 128,-1,133
 45 137 45 137 43 134 c 0,134,135
 42 130 42 130 40.5 126 c 128,-1,136
 39 122 39 122 37 117 c 0,137,138
 37 112 37 112 36 107.5 c 128,-1,139
 35 103 35 103 35 97 c 0,140,141
 35 92 35 92 34.5 86 c 128,-1,142
 34 80 34 80 34 73 c 0,143,144
 36 65 36 65 36.5 58.5 c 128,-1,145
 37 52 37 52 41 46 c 2,146,-1
 49 33 l 2,147,148
 51 30 51 30 54 27.5 c 128,-1,149
 57 25 57 25 59 23 c 0,150,151
 64 18 64 18 72 14 c 0,152,153
 75 12 75 12 78 10.5 c 128,-1,154
 81 9 81 9 85 8 c 0,155,156
 92 6 92 6 98.5 5 c 128,-1,157
 105 4 105 4 112 6 c 0,158,159
 119 5 119 5 125 6 c 128,-1,160
 131 7 131 7 136 9 c 256,161,162
 141 11 141 11 146 12.5 c 128,-1,163
 151 14 151 14 156 17 c 2,164,-1
 169 25 l 2,165,166
 176 29 176 29 180 33 c 0,167,168
 181 34 181 34 182 34 c 128,-1,169
 183 34 183 34 184 36 c 2,170,-1
 183 35 l 1,171,-1
 179 33 l 1,172,-1
 168 26 l 1,173,-1
 154 19 l 2,174,175
 146 14 146 14 136 13 c 0,176,177
 124 10 124 10 112 10 c 0,178,179
 111 10 111 10 107.5 9 c 128,-1,180
 104 8 104 8 99 10 c 0,181,182
 97 10 97 10 94.5 10.5 c 128,-1,183
 92 11 92 11 90 11 c 0,184,185
 87 11 87 11 86 12 c 0,105,106
197 33 m 2,186,187
 186 25 186 25 172 16.5 c 128,-1,188
 158 8 158 8 138 2 c 0,189,190
 129 -1 129 -1 119 -1.5 c 128,-1,191
 109 -2 109 -2 100 -2 c 2,192,-1
 80 1 l 1,193,-1
 64 9 l 2,194,195
 59 11 59 11 56.5 13.5 c 128,-1,196
 54 16 54 16 51 18 c 2,197,-1
 41 27 l 2,198,199
 40 30 40 30 36 34 c 2,200,-1
 38 31 l 1,201,-1
 40 27 l 2,202,203
 42 25 42 25 45 22 c 128,-1,204
 48 19 48 19 50 17 c 256,205,206
 52 15 52 15 54.5 11.5 c 128,-1,207
 57 8 57 8 61 6 c 2,208,-1
 79 -3 l 2,209,210
 84 -5 84 -5 89.5 -5.5 c 128,-1,211
 95 -6 95 -6 100 -7 c 0,212,213
 110 -8 110 -8 120.5 -7 c 128,-1,214
 131 -6 131 -6 140 -3 c 0,215,216
 150 -1 150 -1 158 3.5 c 128,-1,217
 166 8 166 8 174 12 c 0,218,219
 182 17 182 17 188 21 c 128,-1,220
 194 25 194 25 199 30 c 0,221,222
 205 36 205 36 206 39 c 0,223,224
 208 41 208 41 209.5 42.5 c 128,-1,225
 211 44 211 44 213 46 c 256,226,227
 215 48 215 48 215 48 c 1,228,-1
 216 49 l 1,229,-1
 212 46 l 2,230,231
 210 45 210 45 208.5 43.5 c 128,-1,232
 207 42 207 42 204 40 c 2,233,-1
 197 33 l 2,186,187
493 511 m 0,234,235
 491 511 491 511 488.5 510.5 c 128,-1,236
 486 510 486 510 484 510 c 2,237,-1
 475 509 l 2,238,239
 472 510 472 510 466 510 c 2,240,-1
 457 508 l 1,241,-1
 449 508 l 2,242,243
 446 507 446 507 441 507 c 2,244,-1
 435 505 l 2,245,246
 433 505 433 505 432 504.5 c 128,-1,247
 431 504 431 504 430 504 c 2,248,-1
 428 504 l 1,249,-1
 430 503 l 1,250,-1
 435 503 l 2,251,252
 438 504 438 504 441 503 c 0,253,254
 443 504 443 504 448 504 c 2,255,-1
 457 504 l 1,256,-1
 466 505 l 2,257,258
 468 505 468 505 470.5 505 c 128,-1,259
 473 505 473 505 475 504 c 2,260,-1
 483 505 l 1,261,-1
 492 506 l 1,262,-1
 501 506 l 1,263,-1
 509 508 l 2,264,265
 513 506 513 506 515 506 c 0,266,267
 517 507 517 507 520 507 c 2,268,-1
 522 507 l 1,269,270
 522 507 522 507 520 508 c 0,271,272
 518 510 518 510 515 508 c 0,273,274
 513 508 513 508 509 510 c 2,275,-1
 502 510 l 2,276,277
 496 510 496 510 493 511 c 0,234,235
415 514 m 1,278,279
 415 514 415 514 416 513 c 2,280,-1
 419 513 l 1,281,-1
 424 514 l 1,282,-1
 447 514 l 2,283,284
 455 516 455 516 460 516 c 0,285,286
 468 518 468 518 470 518 c 2,287,-1
 475 518 l 2,288,289
 476 520 476 520 479 520 c 2,290,291
 479 520 479 520 481 521 c 2,292,-1
 479 521 l 2,293,294
 477 521 477 521 475 520 c 0,295,296
 474 520 474 520 473.5 520.5 c 128,-1,297
 473 521 473 521 471 521 c 0,298,299
 466 523 466 523 460 521 c 0,300,301
 452 521 452 521 447 520 c 0,302,303
 444 520 444 520 441 519.5 c 128,-1,304
 438 519 438 519 435 519 c 0,305,306
 427 517 427 517 424 517 c 0,307,308
 422 517 422 517 420 515 c 0,309,310
 416 515 416 515 416 515 c 1,311,-1
 415 514 l 1,278,279
52 132 m 2,312,313
 50 128 50 128 48.5 124 c 128,-1,314
 47 120 47 120 47 115 c 0,315,316
 46 110 46 110 45 106 c 128,-1,317
 44 102 44 102 44 97 c 256,318,319
 44 92 44 92 43.5 87.5 c 128,-1,320
 43 83 43 83 43 78 c 2,321,-1
 47 61 l 2,322,323
 48 56 48 56 49 54 c 128,-1,324
 50 52 50 52 51 50 c 1,325,326
 51 51 51 51 49 55 c 0,327,328
 49 59 49 59 48 61 c 2,329,-1
 45 78 l 2,330,331
 46 83 46 83 46 87.5 c 128,-1,332
 46 92 46 92 46 97 c 256,333,334
 46 102 46 102 47 106 c 128,-1,335
 48 110 48 110 49 115 c 2,336,-1
 53 131 l 2,337,338
 55 137 55 137 55 142 c 0,339,340
 56 143 56 143 56 146 c 1,341,342
 55 145 55 145 55 144 c 2,343,-1
 55 143 l 1,344,-1
 52 132 l 2,312,313
521 499 m 2,345,346
 521 500 521 500 519 500 c 0,347,348
 515 500 515 500 515 500 c 2,349,350
 513 500 513 500 509 502 c 0,351,352
 504 502 504 502 502 500 c 0,353,354
 499 501 499 501 494 501 c 0,355,356
 490 501 490 501 488 500 c 0,357,358
 487 499 487 499 486 499 c 1,359,360
 486 498 486 498 488 498 c 0,361,362
 490 499 490 499 494 499 c 0,363,364
 496 498 496 498 501 498 c 0,365,366
 504 499 504 499 508 499 c 0,367,368
 510 499 510 499 511.5 498.5 c 128,-1,369
 513 498 513 498 515 498 c 0,370,371
 516 498 516 498 516.5 498.5 c 128,-1,372
 517 499 517 499 519 499 c 2,373,-1
 521 499 l 2,345,346
50 153 m 1,374,375
 49 153 49 153 49 152 c 256,376,377
 49 151 49 151 48 150 c 1,378,379
 50 152 50 152 50 153 c 1,374,375
188 39 m 1,380,381
 188 39 188 39 186 37 c 2,382,-1
 188 39 l 1,380,381
EndSplineSet
Validated: 41
EndChar

StartChar: K
Encoding: 75 75 10
Width: 403
Flags: W
LayerCount: 2
Fore
SplineSet
223 160 m 0,0,1
 229 146 229 146 237 133 c 1,2,-1
 239 135 l 1,3,4
 241 131 241 131 247 123 c 0,5,6
 253 114 253 114 261.5 100.5 c 128,-1,7
 270 87 270 87 279.5 73.5 c 128,-1,8
 289 60 289 60 300 49.5 c 128,-1,9
 311 39 311 39 323 36 c 0,10,11
 336 33 336 33 349 36.5 c 128,-1,12
 362 40 362 40 374 47 c 128,-1,13
 386 54 386 54 396 61.5 c 128,-1,14
 406 69 406 69 415 75 c 0,15,16
 426 82 426 82 430.5 74.5 c 128,-1,17
 435 67 435 67 435.5 54 c 128,-1,18
 436 41 436 41 432.5 28 c 128,-1,19
 429 15 429 15 425 11 c 0,20,21
 414 2 414 2 398.5 -5 c 128,-1,22
 383 -12 383 -12 369 -16 c 0,23,24
 353 -21 353 -21 329 -20.5 c 128,-1,25
 305 -20 305 -20 285 -9 c 0,26,27
 255 7 255 7 233.5 32.5 c 128,-1,28
 212 58 212 58 194 87 c 2,29,-1
 189 95 l 2,30,31
 178 111 178 111 170.5 125.5 c 128,-1,32
 163 140 163 140 156 153 c 0,33,34
 147 172 147 172 140 190 c 1,35,-1
 129 162 l 2,36,37
 121 140 121 140 112.5 116.5 c 128,-1,38
 104 93 104 93 99 76 c 2,39,-1
 84 22 l 2,40,41
 81 10 81 10 74.5 5 c 128,-1,42
 68 0 68 0 60 -1.5 c 128,-1,43
 52 -3 52 -3 44.5 -1 c 128,-1,44
 37 1 37 1 32 4 c 0,45,46
 21 11 21 11 23.5 26 c 128,-1,47
 26 41 26 41 31 59 c 0,48,49
 33 70 33 70 39.5 89.5 c 128,-1,50
 46 109 46 109 52 127 c 0,51,52
 57 145 57 145 64.5 164.5 c 128,-1,53
 72 184 72 184 80 207 c 256,54,55
 88 230 88 230 97.5 252.5 c 128,-1,56
 107 275 107 275 116 298 c 2,57,-1
 153 388 l 2,58,59
 163 411 163 411 172 430.5 c 128,-1,60
 181 450 181 450 190 467 c 0,61,62
 194 475 194 475 201 488.5 c 128,-1,63
 208 502 208 502 217 515 c 128,-1,64
 226 528 226 528 236 537.5 c 128,-1,65
 246 547 246 547 258 547 c 0,66,67
 273 547 273 547 280 538.5 c 128,-1,68
 287 530 287 530 288 519 c 128,-1,69
 289 508 289 508 284.5 497 c 128,-1,70
 280 486 280 486 270 482 c 1,71,72
 260 468 260 468 251.5 450.5 c 128,-1,73
 243 433 243 433 232 412 c 0,74,75
 224 395 224 395 215 377 c 128,-1,76
 206 359 206 359 197 337 c 0,77,78
 188 316 188 316 180 294.5 c 128,-1,79
 172 273 172 273 162 250 c 2,80,-1
 159 243 l 1,81,-1
 174 256 l 1,82,-1
 215 291 l 1,83,-1
 270 339 l 2,84,85
 286 353 286 353 302 366.5 c 128,-1,86
 318 380 318 380 334 395 c 2,87,-1
 396 452 l 2,88,89
 411 466 411 466 425 478.5 c 128,-1,90
 439 491 439 491 451 502 c 0,91,92
 462 513 462 513 469.5 519.5 c 128,-1,93
 477 526 477 526 485 533 c 0,94,95
 501 547 501 547 513 545 c 128,-1,96
 525 543 525 543 530 532.5 c 128,-1,97
 535 522 535 522 532 506.5 c 128,-1,98
 529 491 529 491 515 478 c 2,99,-1
 475 442 l 1,100,-1
 420 391 l 1,101,-1
 355 332 l 1,102,-1
 291 275 l 1,103,-1
 233 226 l 1,104,-1
 203 199 l 1,105,-1
 203 198 l 1,106,107
 207 190 207 190 211.5 181 c 128,-1,108
 216 172 216 172 223 160 c 0,0,1
88 120 m 2,109,110
 90 124 90 124 91 127.5 c 128,-1,111
 92 131 92 131 93 136 c 2,112,-1
 98 151 l 1,113,-1
 103 164 l 1,114,-1
 107 177 l 1,115,-1
 110 187 l 2,116,117
 112 193 112 193 112 195 c 2,118,-1
 114 200 l 2,119,120
 115 201 115 201 115 202 c 2,121,-1
 114 201 l 1,122,-1
 113 198 l 1,123,-1
 108 188 l 2,124,125
 107 186 107 186 106.5 183 c 128,-1,126
 106 180 106 180 104 177 c 0,127,128
 103 175 103 175 102.5 172 c 128,-1,129
 102 169 102 169 100 166 c 256,130,131
 98 163 98 163 97 159.5 c 128,-1,132
 96 156 96 156 94 152 c 2,133,-1
 89 137 l 2,134,135
 85 127 85 127 84 122 c 2,136,-1
 75 98 l 1,137,-1
 71 84 l 1,138,-1
 68 69 l 1,139,-1
 65 57 l 1,140,-1
 62 46 l 2,141,142
 62 44 62 44 61 42 c 128,-1,143
 60 40 60 40 60 38 c 0,144,145
 60 37 60 37 59.5 36.5 c 128,-1,146
 59 36 59 36 59 35 c 2,147,-1
 59 33 l 2,148,149
 60 33 60 33 60 34 c 0,150,151
 60 36 60 36 61 38 c 2,152,-1
 64 46 l 1,153,-1
 68 56 l 1,154,-1
 71 68 l 1,155,-1
 76 82 l 1,156,-1
 80 97 l 1,157,-1
 88 120 l 2,109,110
460 472 m 1,158,-1
 470 481 l 1,159,-1
 480 491 l 2,160,161
 482 493 482 493 484 495 c 128,-1,162
 486 497 486 497 488 499 c 256,163,164
 490 501 490 501 491.5 502.5 c 128,-1,165
 493 504 493 504 495 506 c 0,166,167
 499 510 499 510 501 511 c 0,168,169
 501 513 501 513 503 513 c 2,170,-1
 503 514 l 2,171,172
 503 515 503 515 500 512 c 0,173,174
 498 511 498 511 494 507 c 2,175,-1
 486 501 l 1,176,-1
 478 494 l 1,177,-1
 467 485 l 1,178,-1
 457 476 l 1,179,-1
 447 466 l 1,180,-1
 436 456 l 1,181,-1
 427 446 l 1,182,-1
 417 438 l 1,183,-1
 409 429 l 2,184,185
 407 427 407 427 405.5 425.5 c 128,-1,186
 404 424 404 424 402 422 c 0,187,188
 398 418 398 418 397 416 c 2,189,-1
 394 413 l 1,190,-1
 396 414 l 1,191,-1
 403 421 l 2,192,193
 405 422 405 422 407 423.5 c 128,-1,194
 409 425 409 425 411 427 c 256,195,196
 413 429 413 429 415 431 c 128,-1,197
 417 433 417 433 419 435 c 2,198,-1
 429 443 l 1,199,-1
 439 453 l 1,200,-1
 450 462 l 1,201,-1
 460 472 l 1,158,-1
130 214 m 2,202,203
 130 213 130 213 129.5 213 c 128,-1,204
 129 213 129 213 129 212 c 0,205,206
 128 211 128 211 128 210 c 128,-1,207
 128 209 128 209 127 207 c 2,208,-1
 125 200 l 2,209,210
 121 192 121 192 118 182.5 c 128,-1,211
 115 173 115 173 110 162 c 2,212,-1
 103 141 l 2,213,214
 101 136 101 136 100 132 c 128,-1,215
 99 128 99 128 98 123 c 2,216,-1
 96 116 l 1,217,-1
 96 110 l 2,218,219
 95 109 95 109 93 103.5 c 128,-1,220
 91 98 91 98 91 97 c 1,221,222
 92 97 92 97 92 98 c 256,223,224
 92 99 92 99 94 103.5 c 128,-1,225
 96 108 96 108 96 109 c 0,226,227
 98 113 98 113 98 115 c 2,228,-1
 101 122 l 1,229,-1
 108 139 l 1,230,-1
 115 160 l 2,231,232
 117 165 117 165 118.5 170.5 c 128,-1,233
 120 176 120 176 122 181 c 256,234,235
 124 186 124 186 125 190 c 128,-1,236
 126 194 126 194 127 199 c 0,237,238
 129 203 129 203 129 206 c 0,239,240
 129 208 129 208 131 212 c 2,241,-1
 131 215 l 1,242,-1
 130 214 l 2,202,203
366 16 m 0,243,244
 364 15 364 15 361 14.5 c 128,-1,245
 358 14 358 14 356 12 c 2,246,-1
 346 9 l 2,247,248
 343 8 343 8 336 8 c 0,249,250
 330 6 330 6 326 6 c 0,251,252
 320 8 320 8 317 8 c 0,253,254
 313 7 313 7 309 9 c 0,255,256
 304 9 304 9 301 10 c 2,257,-1
 296 11 l 2,258,259
 295 11 295 11 293 13 c 2,260,-1
 294 11 l 1,261,-1
 296 10 l 1,262,-1
 301 8 l 1,263,-1
 308 5 l 2,264,265
 310 5 310 5 312 4.5 c 128,-1,266
 314 4 314 4 316 4 c 2,267,-1
 326 2 l 1,268,269
 326 2 326 2 331 2 c 0,270,271
 334 2 334 2 337 3 c 0,272,273
 344 3 344 3 347 4 c 2,274,-1
 357 7 l 1,275,-1
 368 11 l 2,276,277
 374 15 374 15 377 16 c 2,278,-1
 385 21 l 2,279,280
 389 22 389 22 392 25 c 2,281,-1
 398 28 l 2,282,283
 399 29 399 29 400 29 c 2,284,-1
 401 30 l 1,285,-1
 400 30 l 2,286,287
 399 30 399 30 398.5 29.5 c 128,-1,288
 398 29 398 29 397 29 c 0,289,290
 395 29 395 29 392 26 c 0,291,292
 386 24 386 24 384 24 c 2,293,-1
 376 20 l 2,294,295
 372 18 372 18 366 16 c 0,243,244
385 419 m 2,296,297
 390 424 390 424 397 429.5 c 128,-1,298
 404 435 404 435 412 443 c 2,299,-1
 426 456 l 1,300,-1
 437 469 l 1,301,-1
 442 474 l 1,302,-1
 445 478 l 2,303,304
 447 480 447 480 447 481 c 2,305,-1
 446 480 l 1,306,307
 446 480 446 480 445 479 c 2,308,-1
 441 476 l 1,309,-1
 436 471 l 2,310,311
 433 469 433 469 429.5 466.5 c 128,-1,312
 426 464 426 464 423 460 c 0,313,314
 419 457 419 457 415.5 454 c 128,-1,315
 412 451 412 451 408 447 c 2,316,-1
 395 433 l 1,317,-1
 383 421 l 1,318,-1
 379 416 l 2,319,320
 378 413 378 413 375 412 c 0,321,322
 375 411 375 411 374 410 c 2,323,324
 374 410 374 410 373 409 c 1,325,326
 374 409 374 409 376 411 c 2,327,-1
 380 414 l 1,328,-1
 385 419 l 2,296,297
290 28 m 1,329,330
 290 28 290 28 291 26 c 0,331,332
 293 24 293 24 294 24 c 1,333,334
 294 23 294 23 295 23 c 256,335,336
 296 23 296 23 297 22 c 0,337,338
 299 20 299 20 300 20 c 0,339,340
 304 19 304 19 308.5 17 c 128,-1,341
 313 15 313 15 318 14 c 0,342,343
 322 14 322 14 325 13.5 c 128,-1,344
 328 13 328 13 331 14 c 2,345,-1
 342 17 l 2,346,347
 344 17 344 17 346 19 c 0,348,349
 347 19 347 19 347.5 19.5 c 128,-1,350
 348 20 348 20 349 20 c 0,351,352
 351 22 351 22 351 22 c 1,353,-1
 350 22 l 2,354,355
 350 21 350 21 349 21 c 2,356,-1
 346 21 l 2,357,358
 344 20 344 20 341 20 c 2,359,-1
 331 20 l 2,360,361
 328 19 328 19 325.5 19.5 c 128,-1,362
 323 20 323 20 320 20 c 0,363,364
 316 19 316 19 313 20 c 128,-1,365
 310 21 310 21 307 22 c 2,366,-1
 302 23 l 1,367,-1
 299 24 l 2,368,369
 298 24 298 24 297.5 24.5 c 128,-1,370
 297 25 297 25 295 25 c 2,371,-1
 292 27 l 2,372,373
 291 27 291 27 291 28 c 2,374,-1
 290 28 l 1,329,330
59 59 m 2,375,376
 61 61 61 61 61 64 c 128,-1,377
 61 67 61 67 62 70 c 0,378,379
 63 74 63 74 64 77 c 128,-1,380
 65 80 65 80 66 82 c 2,381,-1
 68 93 l 2,382,383
 69 95 69 95 71.5 101.5 c 128,-1,384
 74 108 74 108 74 109 c 2,385,-1
 68 97 l 2,386,387
 68 96 68 96 67.5 95.5 c 128,-1,388
 67 95 67 95 67 93 c 2,389,-1
 64 83 l 2,390,391
 62 79 62 79 60 71 c 2,392,-1
 57 59 l 1,393,-1
 54 48 l 2,394,395
 54 44 54 44 52 41 c 2,396,-1
 52 38 l 1,397,398
 52 38 52 38 53 40 c 2,399,-1
 56 48 l 1,400,-1
 59 59 l 2,375,376
506 505 m 2,401,402
 506 506 506 506 506.5 506 c 128,-1,403
 507 506 507 506 507 507 c 2,404,405
 507 507 507 507 505 506 c 0,406,407
 503 504 503 504 502.5 503 c 128,-1,408
 502 502 502 502 500 501 c 2,409,-1
 492 495 l 1,410,-1
 484 487 l 1,411,-1
 475 479 l 1,412,-1
 468 472 l 1,413,-1
 464 467 l 2,414,415
 466 469 466 469 466 469 c 1,416,-1
 469 471 l 1,417,-1
 485 485 l 1,418,-1
 494 493 l 1,419,-1
 506 505 l 2,401,402
401 21 m 2,420,421
 397 19 397 19 395 19 c 2,422,-1
 387 16 l 1,423,-1
 380 11 l 1,424,-1
 371 8 l 2,425,426
 369 7 369 7 367.5 6 c 128,-1,427
 366 5 366 5 364 4 c 0,428,429
 360 2 360 2 359 2 c 2,430,-1
 361 2 l 2,431,432
 363 2 363 2 364 3 c 2,433,-1
 372 6 l 2,434,435
 374 6 374 6 376 7 c 128,-1,436
 378 8 378 8 380 9 c 2,437,-1
 389 14 l 1,438,-1
 396 17 l 1,439,-1
 401 21 l 2,420,421
401 21 m 1,440,441
 402 21 402 21 402 21.5 c 128,-1,442
 402 22 402 22 403 22 c 1,443,444
 402 22 402 22 401 21 c 1,440,441
EndSplineSet
Validated: 37
EndChar

StartChar: L
Encoding: 76 76 11
Width: 224
Flags: W
LayerCount: 2
Fore
SplineSet
56 -17 m 0,0,1
 45 -19 45 -19 37.5 -13.5 c 128,-1,2
 30 -8 30 -8 25.5 0 c 128,-1,3
 21 8 21 8 18.5 15 c 128,-1,4
 16 22 16 22 16 22 c 257,5,6
 16 22 16 22 25 45 c 0,7,8
 31 56 31 56 37 70 c 128,-1,9
 43 84 43 84 50 102 c 0,10,11
 56 119 56 119 64.5 139.5 c 128,-1,12
 73 160 73 160 82 183 c 0,13,14
 93 206 93 206 104 235 c 128,-1,15
 115 264 115 264 126 287 c 0,16,17
 135 310 135 310 147.5 340.5 c 128,-1,18
 160 371 160 371 171 393 c 0,19,20
 179 415 179 415 187 434.5 c 128,-1,21
 195 454 195 454 203 471 c 0,22,23
 209 488 209 488 217.5 509 c 128,-1,24
 226 530 226 530 234 539 c 0,25,26
 246 554 246 554 257 554.5 c 128,-1,27
 268 555 268 555 276.5 548.5 c 128,-1,28
 285 542 285 542 288.5 531 c 128,-1,29
 292 520 292 520 288 511 c 0,30,31
 286 505 286 505 280.5 492.5 c 128,-1,32
 275 480 275 480 269 466 c 128,-1,33
 263 452 263 452 257.5 438 c 128,-1,34
 252 424 252 424 248 416 c 0,35,36
 241 399 241 399 232.5 379.5 c 128,-1,37
 224 360 224 360 215 339 c 0,38,39
 211 328 211 328 204.5 313 c 128,-1,40
 198 298 198 298 190.5 282 c 128,-1,41
 183 266 183 266 176 250.5 c 128,-1,42
 169 235 169 235 165 224 c 0,43,44
 148 182 148 182 132 140.5 c 128,-1,45
 116 99 116 99 97 54 c 2,46,-1
 90 36 l 1,47,48
 101 39 101 39 120 41.5 c 128,-1,49
 139 44 139 44 159 45.5 c 128,-1,50
 179 47 179 47 195.5 46.5 c 128,-1,51
 212 46 212 46 219 44 c 0,52,53
 228 41 228 41 229 30.5 c 128,-1,54
 230 20 230 20 227 8.5 c 128,-1,55
 224 -3 224 -3 218 -11.5 c 128,-1,56
 212 -20 212 -20 207 -19 c 0,57,58
 195 -17 195 -17 182 -14 c 128,-1,59
 169 -11 169 -11 151.5 -9.5 c 128,-1,60
 134 -8 134 -8 111 -9.5 c 128,-1,61
 88 -11 88 -11 56 -17 c 0,0,1
75 62 m 2,62,63
 76 69 76 69 81 77 c 2,64,-1
 87 94 l 2,65,66
 89 98 89 98 90 100.5 c 128,-1,67
 91 103 91 103 92 108 c 0,68,69
 93 112 93 112 94.5 115.5 c 128,-1,70
 96 119 96 119 97 123 c 0,71,72
 99 126 99 126 100.5 130 c 128,-1,73
 102 134 102 134 104 137 c 2,74,-1
 108 150 l 2,75,76
 108 152 108 152 109 155 c 128,-1,77
 110 158 110 158 111 160 c 0,78,79
 111 164 111 164 113 168 c 0,80,81
 113 171 113 171 115 174 c 2,82,-1
 112 168 l 2,83,84
 111 166 111 166 111 164.5 c 128,-1,85
 111 163 111 163 109 161 c 0,86,87
 108 159 108 159 107 156 c 128,-1,88
 106 153 106 153 104 151 c 0,89,90
 104 147 104 147 100 139 c 0,91,92
 99 135 99 135 97 131.5 c 128,-1,93
 95 128 95 128 94 124 c 2,94,-1
 87 111 l 2,95,96
 85 107 85 107 84 103 c 128,-1,97
 83 99 83 99 81 94 c 2,98,-1
 75 80 l 1,99,-1
 70 65 l 2,100,101
 69 61 69 61 68 57.5 c 128,-1,102
 67 54 67 54 64 50 c 0,103,104
 62 47 62 47 62 44 c 128,-1,105
 62 41 62 41 61 38 c 0,106,107
 59 36 59 36 57.5 33 c 128,-1,108
 56 30 56 30 54 28 c 1,109,110
 56 26 56 26 55.5 23.5 c 128,-1,111
 55 21 55 21 55 19 c 0,112,113
 54 18 54 18 54 16 c 2,114,-1
 56 19 l 2,115,116
 56 21 56 21 56.5 23 c 128,-1,117
 57 25 57 25 56 27 c 0,118,119
 59 32 59 32 64 36 c 0,120,121
 66 39 66 39 66 42 c 128,-1,122
 66 45 66 45 68 49 c 2,123,-1
 75 62 l 2,62,63
126 173 m 2,124,125
 121 165 121 165 118 155.5 c 128,-1,126
 115 146 115 146 110 134 c 0,127,128
 107 129 107 129 105.5 123.5 c 128,-1,129
 104 118 104 118 102 113 c 256,130,131
 100 108 100 108 99 103.5 c 128,-1,132
 98 99 98 99 97 94 c 2,133,-1
 93 87 l 2,134,135
 93 83 93 83 92 82 c 2,136,137
 92 82 92 82 92 78 c 1,138,-1
 93 78 l 2,139,140
 92 80 92 80 93 80 c 2,141,-1
 96 86 l 2,142,143
 96 87 96 87 98 93 c 0,144,145
 105 101 105 101 106 111 c 0,146,147
 109 116 109 116 111 121 c 128,-1,148
 113 126 113 126 115 132 c 256,149,150
 117 138 117 138 119 143 c 128,-1,151
 121 148 121 148 122 153 c 2,152,-1
 128 171 l 1,153,-1
 132 179 l 2,154,155
 132 183 132 183 133 185 c 2,156,157
 133 185 133 185 133 188 c 2,158,-1
 133 189 l 2,159,160
 132 189 132 189 132 188 c 2,161,-1
 132 185 l 2,162,163
 131 184 131 184 131 183 c 128,-1,164
 131 182 131 182 130 180 c 2,165,-1
 126 173 l 2,124,125
168 22 m 0,166,167
 166 22 166 22 164 22 c 128,-1,168
 162 22 162 22 160 20 c 2,169,-1
 154 21 l 2,170,171
 150 21 150 21 146 19 c 2,172,-1
 139 19 l 2,173,174
 137 19 137 19 135 18 c 128,-1,175
 133 17 133 17 131 17 c 2,176,-1
 124 15 l 2,177,178
 121 13 121 13 119 15 c 0,179,180
 117 15 117 15 115 13 c 0,181,182
 114 13 114 13 112 12 c 2,183,-1
 114 12 l 2,184,185
 116 13 116 13 119 13 c 0,186,187
 121 11 121 11 124 12 c 0,188,189
 126 12 126 12 126.5 13 c 128,-1,190
 127 14 127 14 129 13 c 0,191,192
 131 13 131 13 133.5 14.5 c 128,-1,193
 136 16 136 16 137 14 c 2,194,-1
 145 13 l 1,195,196
 148 18 148 18 151 15 c 2,197,-1
 161 16 l 1,198,-1
 167 16 l 2,199,200
 169 17 169 17 171 18 c 128,-1,201
 173 19 173 19 175 17 c 0,202,203
 178 16 178 16 181 19 c 1,204,205
 183 17 183 17 186 19 c 2,206,207
 186 19 186 19 191 19 c 2,208,-1
 192 19 l 1,209,-1
 192 20 l 2,210,211
 191 20 191 20 190.5 20.5 c 128,-1,212
 190 21 190 21 188 21 c 0,213,214
 186 20 186 20 185.5 20.5 c 128,-1,215
 185 21 185 21 183 21 c 0,216,217
 181 22 181 22 179.5 21 c 128,-1,218
 178 20 178 20 175 20 c 0,219,220
 173 22 173 22 168 22 c 0,166,167
102 21 m 1,221,222
 102 21 102 21 104 20 c 2,223,-1
 106 20 l 1,224,-1
 111 21 l 2,225,226
 114 23 114 23 118 23 c 128,-1,227
 122 23 122 23 128 24 c 0,228,229
 132 25 132 25 134 26 c 128,-1,230
 136 27 136 27 138 27 c 0,231,232
 142 26 142 26 144 26.5 c 128,-1,233
 146 27 146 27 148 28 c 0,234,235
 152 30 152 30 152 30 c 1,236,-1
 156 31 l 2,237,238
 157 31 157 31 156 32 c 2,239,-1
 154 32 l 1,240,-1
 153 31 l 2,241,242
 152 32 152 32 148 31 c 0,243,244
 147 32 147 32 144.5 31.5 c 128,-1,245
 142 31 142 31 140 33 c 0,246,247
 137 32 137 32 134 31 c 128,-1,248
 131 30 131 30 128 30 c 0,249,250
 123 27 123 27 118 27 c 0,251,252
 111 27 111 27 110 24 c 0,253,254
 108 22 108 22 107.5 22.5 c 128,-1,255
 107 23 107 23 106 22 c 256,256,257
 105 21 105 21 103 21 c 2,258,-1
 102 21 l 1,221,222
48 22 m 256,259,260
 49 24 49 24 48 25.5 c 128,-1,261
 47 27 47 27 49 29 c 0,262,263
 51 32 51 32 52.5 34.5 c 128,-1,264
 54 37 54 37 55 41 c 256,265,266
 56 45 56 45 60 53 c 2,267,-1
 65 63 l 2,268,269
 66 66 66 66 66 69.5 c 128,-1,270
 66 73 66 73 68 75 c 0,271,272
 70 81 70 81 70 82 c 1,273,274
 70 81 70 81 69.5 80.5 c 128,-1,275
 69 80 69 80 69 79 c 0,276,277
 67 78 67 78 67.5 77.5 c 128,-1,278
 68 77 68 77 67 76 c 0,279,280
 65 72 65 72 64 69.5 c 128,-1,281
 63 67 63 67 63 64 c 0,282,283
 61 62 61 62 60.5 59.5 c 128,-1,284
 60 57 60 57 58 54 c 0,285,286
 55 50 55 50 53 41 c 0,287,288
 52 38 52 38 51 35.5 c 128,-1,289
 50 33 50 33 48 30 c 0,290,291
 47 29 47 29 47 22 c 2,292,-1
 47 19 l 1,293,-1
 47 20 l 1,294,295
 47 20 47 20 48 22 c 256,259,260
180 11 m 2,296,297
 182 10 182 10 185 11 c 2,298,-1
 184 11 l 1,299,300
 184 11 184 11 180 13 c 0,301,302
 178 11 178 11 176.5 11.5 c 128,-1,303
 175 12 175 12 173 12 c 2,304,305
 173 12 173 12 168 12 c 0,306,307
 166 11 166 11 165 12 c 128,-1,308
 164 13 164 13 163 12 c 0,309,310
 162 12 162 12 161.5 11.5 c 128,-1,311
 161 11 161 11 160 11 c 2,312,-1
 161 11 l 1,313,314
 161 11 161 11 163 10 c 1,315,316
 164 12 164 12 165 11 c 128,-1,317
 166 10 166 10 168 10 c 256,318,319
 170 10 170 10 171.5 10.5 c 128,-1,320
 173 11 173 11 175 10 c 2,321,-1
 180 11 l 2,296,297
115 174 m 1,322,-1
 116 175 l 2,323,324
 117 175 117 175 117 176 c 2,325,-1
 116 176 l 1,326,-1
 115 174 l 1,322,-1
54 16 m 2,327,328
 53 16 53 16 52 13 c 2,329,-1
 54 16 l 2,327,328
189 11 m 1,330,-1
 186 11 l 1,331,-1
 189 11 l 1,330,-1
189 11 m 2,332,333
 190 12 190 12 191 11 c 2,334,-1
 189 11 l 2,332,333
111 12 m 1,335,-1
 112 12 l 1,336,-1
 111 13 l 1,337,-1
 111 12 l 1,335,-1
EndSplineSet
Validated: 37
EndChar

StartChar: M
Encoding: 77 77 12
Width: 540
Flags: W
LayerCount: 2
Fore
SplineSet
482 471 m 0,0,1
 487 480 487 480 494.5 490 c 128,-1,2
 502 500 502 500 511.5 508 c 128,-1,3
 521 516 521 516 532.5 521 c 128,-1,4
 544 526 544 526 558 523 c 0,5,6
 570 521 570 521 575.5 511 c 128,-1,7
 581 501 581 501 582 486 c 128,-1,8
 583 471 583 471 580 453 c 128,-1,9
 577 435 577 435 571 417 c 0,10,11
 566 399 566 399 559.5 378 c 128,-1,12
 553 357 553 357 545 334 c 0,13,14
 537 310 537 310 529.5 285.5 c 128,-1,15
 522 261 522 261 514 238 c 0,16,17
 496 184 496 184 477 131.5 c 128,-1,18
 458 79 458 79 439 22 c 0,19,20
 430 -4 430 -4 418.5 -12.5 c 128,-1,21
 407 -21 407 -21 397 -17.5 c 128,-1,22
 387 -14 387 -14 381 -2.5 c 128,-1,23
 375 9 375 9 379 22 c 0,24,25
 380 28 380 28 384.5 39.5 c 128,-1,26
 389 51 389 51 394 64.5 c 128,-1,27
 399 78 399 78 404 91.5 c 128,-1,28
 409 105 409 105 412 114 c 0,29,30
 421 138 421 138 431 168 c 128,-1,31
 441 198 441 198 450.5 227 c 128,-1,32
 460 256 460 256 468 280 c 128,-1,33
 476 304 476 304 480 316 c 0,34,35
 485 331 485 331 486 340 c 128,-1,36
 487 349 487 349 484 351 c 128,-1,37
 481 353 481 353 475 346.5 c 128,-1,38
 469 340 469 340 460 322 c 0,39,40
 440 284 440 284 412.5 232.5 c 128,-1,41
 385 181 385 181 358 133 c 128,-1,42
 331 85 331 85 310 48.5 c 128,-1,43
 289 12 289 12 282 3 c 0,44,45
 276 -5 276 -5 265.5 -8.5 c 128,-1,46
 255 -12 255 -12 245.5 -9 c 128,-1,47
 236 -6 236 -6 228.5 3 c 128,-1,48
 221 12 221 12 221 28 c 0,49,50
 220 52 220 52 222.5 88.5 c 128,-1,51
 225 125 225 125 228 164 c 128,-1,52
 231 203 231 203 235 240 c 128,-1,53
 239 277 239 277 241 303 c 0,54,55
 245 346 245 346 238.5 347.5 c 128,-1,56
 232 349 232 349 214 307 c 0,57,58
 208 293 208 293 199 270 c 128,-1,59
 190 247 190 247 180.5 222.5 c 128,-1,60
 171 198 171 198 162.5 176.5 c 128,-1,61
 154 155 154 155 149 144 c 256,62,63
 144 133 144 133 136.5 113 c 128,-1,64
 129 93 129 93 121.5 72 c 128,-1,65
 114 51 114 51 107 32.5 c 128,-1,66
 100 14 100 14 96 6 c 0,67,68
 86 -13 86 -13 75 -17 c 128,-1,69
 64 -21 64 -21 55.5 -15.5 c 128,-1,70
 47 -10 47 -10 43 3.5 c 128,-1,71
 39 17 39 17 45 33 c 0,72,73
 61 80 61 80 84 140.5 c 128,-1,74
 107 201 107 201 131.5 265 c 128,-1,75
 156 329 156 329 180.5 391 c 128,-1,76
 205 453 205 453 225 503 c 0,77,78
 234 526 234 526 249 537 c 128,-1,79
 264 548 264 548 279 546.5 c 128,-1,80
 294 545 294 545 304.5 529.5 c 128,-1,81
 315 514 315 514 315 484 c 0,82,83
 315 457 315 457 310 406 c 128,-1,84
 305 355 305 355 298.5 300.5 c 128,-1,85
 292 246 292 246 286.5 198 c 128,-1,86
 281 150 281 150 280 129 c 0,87,88
 278 102 278 102 279 101.5 c 128,-1,89
 280 101 280 101 291 122 c 0,90,91
 311 159 311 159 336 205.5 c 128,-1,92
 361 252 361 252 387 300 c 128,-1,93
 413 348 413 348 438 393 c 128,-1,94
 463 438 463 438 482 471 c 0,0,1
101 105 m 1,95,-1
 106 120 l 1,96,-1
 110 136 l 2,97,98
 114 146 114 146 115 151 c 0,99,100
 116 154 116 154 117 157 c 128,-1,101
 118 160 118 160 120 164 c 0,102,103
 120 168 120 168 122 174 c 256,104,105
 124 180 124 180 124 183 c 1,106,107
 123 182 123 182 121 175 c 0,108,109
 117 169 117 169 117 165 c 0,110,111
 115 161 115 161 114 158.5 c 128,-1,112
 113 156 113 156 112 152 c 0,113,114
 110 149 110 149 109 146 c 128,-1,115
 108 143 108 143 107 138 c 2,116,-1
 102 123 l 2,117,118
 100 119 100 119 99 115.5 c 128,-1,119
 98 112 98 112 96 108 c 2,120,-1
 92 93 l 1,121,-1
 88 77 l 1,122,-1
 83 61 l 1,123,-1
 79 47 l 2,124,125
 76 43 76 43 78 38 c 2,126,-1
 75 29 l 2,127,128
 75 28 75 28 74 27 c 2,129,-1
 74 26 l 2,130,131
 75 24 75 24 74 23 c 1,132,133
 76 25 76 25 77 28 c 0,134,135
 78 30 78 30 78 32.5 c 128,-1,136
 78 35 78 35 79 37 c 256,137,138
 80 39 80 39 80 41.5 c 128,-1,139
 80 44 80 44 82 46 c 2,140,-1
 87 60 l 2,141,142
 88 63 88 63 89 67 c 128,-1,143
 90 71 90 71 92 74 c 0,144,145
 94 80 94 80 96 90 c 2,146,-1
 101 105 l 1,95,-1
497 440 m 2,147,148
 494 438 494 438 492 434.5 c 128,-1,149
 490 431 490 431 487 426 c 0,150,151
 486 423 486 423 483 419.5 c 128,-1,152
 480 416 480 416 478 411 c 0,153,154
 476 407 476 407 474.5 403.5 c 128,-1,155
 473 400 473 400 472 396 c 0,156,157
 468 391 468 391 466 387.5 c 128,-1,158
 464 384 464 384 462 380 c 256,159,160
 460 376 460 376 458.5 371.5 c 128,-1,161
 457 367 457 367 455 363 c 0,162,163
 450 358 450 358 447 348 c 0,164,165
 445 345 445 345 443 342 c 128,-1,166
 441 339 441 339 439 337 c 0,167,168
 439 332 439 332 438 329.5 c 128,-1,169
 437 327 437 327 435 324 c 0,170,171
 433 322 433 322 433 320 c 128,-1,172
 433 318 433 318 431 316 c 0,173,174
 430 315 430 315 429.5 313.5 c 128,-1,175
 429 312 429 312 427 310 c 2,176,-1
 427 309 l 1,177,-1
 430 313 l 1,178,-1
 432 316 l 2,179,180
 434 318 434 318 436 323 c 0,181,182
 440 327 440 327 442 335 c 2,183,-1
 450 347 l 1,184,-1
 458 361 l 1,185,-1
 465 377 l 2,186,187
 470 384 470 384 475 393 c 2,188,-1
 484 408 l 1,189,-1
 492 423 l 1,190,-1
 497 433 l 2,191,192
 497 436 497 436 498 439 c 128,-1,193
 499 442 499 442 500 446 c 2,194,-1
 497 440 l 2,147,148
439 103 m 1,195,-1
 442 119 l 2,196,197
 444 124 444 124 445 127.5 c 128,-1,198
 446 131 446 131 447 135 c 0,199,200
 449 139 449 139 449 142.5 c 128,-1,201
 449 146 449 146 451 149 c 0,202,203
 453 153 453 153 453 156 c 128,-1,204
 453 159 453 159 455 163 c 0,205,206
 457 169 457 169 457 173 c 0,207,208
 460 179 460 179 459 183 c 2,209,-1
 456 174 l 2,210,211
 455 172 455 172 454 169.5 c 128,-1,212
 453 167 453 167 452 164 c 0,213,214
 451 160 451 160 450 157 c 128,-1,215
 449 154 449 154 449 151 c 0,216,217
 447 148 447 148 446 144 c 128,-1,218
 445 140 445 140 443 137 c 2,219,-1
 438 121 l 1,220,-1
 434 105 l 1,221,-1
 429 91 l 1,222,-1
 425 75 l 2,223,224
 423 71 423 71 422.5 67 c 128,-1,225
 422 63 422 63 420 60 c 2,226,-1
 418 46 l 2,227,228
 416 44 416 44 415.5 41 c 128,-1,229
 415 38 415 38 414 36 c 256,230,231
 413 34 413 34 413 31.5 c 128,-1,232
 413 29 413 29 412 27 c 0,233,234
 412 26 412 26 411.5 25.5 c 128,-1,235
 411 25 411 25 411 24 c 2,236,237
 411 24 411 24 410 22 c 2,238,-1
 411 23 l 2,239,240
 411 24 411 24 413 26 c 0,241,242
 414 28 414 28 414.5 30 c 128,-1,243
 415 32 415 32 415 35 c 2,244,-1
 420 45 l 2,245,246
 422 48 422 48 422.5 51.5 c 128,-1,247
 423 55 423 55 424 58 c 256,248,249
 425 61 425 61 426 64.5 c 128,-1,250
 427 68 427 68 428 73 c 0,251,252
 430 76 430 76 431 79.5 c 128,-1,253
 432 83 432 83 434 88 c 2,254,-1
 439 103 l 1,195,-1
418 314 m 2,255,256
 422 321 422 321 428 331 c 128,-1,257
 434 341 434 341 441 354 c 2,258,-1
 452 376 l 2,259,260
 455 381 455 381 457 385.5 c 128,-1,261
 459 390 459 390 461 395 c 2,262,-1
 464 403 l 2,263,264
 466 407 466 407 466 410 c 2,265,-1
 468 414 l 1,266,-1
 467 413 l 2,267,268
 467 411 467 411 465 411 c 1,269,270
 466 408 466 408 462 404 c 0,271,272
 461 402 461 402 460 401 c 128,-1,273
 459 400 459 400 459 398 c 0,274,275
 456 393 456 393 453 388.5 c 128,-1,276
 450 384 450 384 447 378 c 0,277,278
 445 373 445 373 442 367.5 c 128,-1,279
 439 362 439 362 434 357 c 0,280,281
 431 345 431 345 424 334 c 0,282,283
 422 329 422 329 420 324.5 c 128,-1,284
 418 320 418 320 416 315 c 0,285,286
 414 312 414 312 413 310.5 c 128,-1,287
 412 309 412 309 412 307 c 0,288,289
 412 303 412 303 410 301 c 0,290,291
 410 300 410 300 409 299 c 0,292,293
 409 297 409 297 409 297 c 2,294,295
 409 298 409 298 411 300 c 2,296,-1
 415 305 l 1,297,-1
 418 314 l 2,255,256
478 201 m 0,298,299
 478 202 478 202 477 203 c 1,300,301
 478 202 478 202 476 199 c 0,302,303
 476 197 476 197 474 193 c 2,304,-1
 471 186 l 2,305,306
 468 178 468 178 465 168.5 c 128,-1,307
 462 159 462 159 457 147 c 0,308,309
 456 140 456 140 454.5 135 c 128,-1,310
 453 130 453 130 452 125 c 0,311,312
 451 119 451 119 450 114.5 c 128,-1,313
 449 110 449 110 448 105 c 2,314,-1
 445 97 l 1,315,-1
 445 91 l 2,316,317
 446 92 446 92 446 93 c 128,-1,318
 446 94 446 94 447 96 c 256,319,320
 448 98 448 98 448.5 99.5 c 128,-1,321
 449 101 449 101 451 103 c 2,322,-1
 456 121 l 2,323,324
 460 131 460 131 463 144 c 0,325,326
 465 149 465 149 466 154.5 c 128,-1,327
 467 160 467 160 469 166 c 0,328,329
 471 171 471 171 472.5 175.5 c 128,-1,330
 474 180 474 180 475 185 c 0,331,332
 477 189 477 189 476 192 c 0,333,334
 476 196 476 196 477 199 c 0,335,336
 477 200 477 200 478 201 c 0,298,299
142 203 m 1,337,-1
 141 202 l 1,338,-1
 141 200 l 1,339,-1
 137 194 l 1,340,-1
 135 187 l 2,341,342
 133 179 133 179 129.5 169.5 c 128,-1,343
 126 160 126 160 122 147 c 0,344,345
 117 135 117 135 116 126 c 0,346,347
 113 120 113 120 112.5 115.5 c 128,-1,348
 112 111 112 111 110 107 c 0,349,350
 110 102 110 102 108 98 c 0,351,352
 106 95 106 95 108 93 c 1,353,354
 107 92 107 92 107 90 c 2,355,356
 107 90 107 90 108 92 c 0,357,358
 109 93 109 93 109 94 c 128,-1,359
 109 95 109 95 110 97 c 2,360,-1
 113 104 l 1,361,-1
 120 122 l 2,362,363
 122 128 122 128 123.5 133 c 128,-1,364
 125 138 125 138 126 144 c 2,365,-1
 133 167 l 2,366,367
 138 177 138 177 137 186 c 1,368,369
 141 190 141 190 139 193 c 2,370,-1
 142 200 l 2,371,372
 141 201 141 201 142 202 c 2,373,-1
 142 203 l 1,337,-1
72 40 m 2,374,375
 71 42 71 42 75 52 c 2,376,-1
 78 63 l 1,377,-1
 83 76 l 2,378,379
 83 82 83 82 86 88 c 0,380,381
 85 91 85 91 85 94 c 2,382,-1
 85 93 l 2,383,384
 85 89 85 89 85 89 c 1,385,386
 81 81 81 81 81 77 c 0,387,388
 77 69 77 69 76 64 c 2,389,-1
 73 53 l 2,390,391
 69 43 69 43 70 41 c 0,392,393
 70 40 70 40 68 34 c 2,394,395
 68 34 68 34 68 30 c 2,396,-1
 68 33 l 1,397,-1
 72 40 l 2,374,375
406 30 m 0,398,399
 406 33 406 33 406.5 35 c 128,-1,400
 407 37 407 37 408 39 c 2,401,-1
 413 49 l 2,402,403
 413 54 413 54 415 62 c 0,404,405
 417 65 417 65 417.5 68.5 c 128,-1,406
 418 72 418 72 420 74 c 2,407,-1
 422 85 l 2,408,409
 424 93 424 93 424 93 c 2,410,411
 424 92 424 92 423.5 91.5 c 128,-1,412
 423 91 423 91 423 90 c 0,413,414
 421 88 421 88 421 85 c 0,415,416
 419 83 419 83 419.5 80.5 c 128,-1,417
 420 78 420 78 418 75 c 256,418,419
 416 72 416 72 415.5 68.5 c 128,-1,420
 415 65 415 65 413 62 c 0,421,422
 411 58 411 58 411 51 c 2,423,-1
 407 40 l 2,424,425
 406 38 406 38 405.5 36 c 128,-1,426
 405 34 405 34 405 31 c 0,427,428
 405 30 405 30 404.5 29.5 c 128,-1,429
 404 29 404 29 404 28 c 2,430,431
 404 28 404 28 406 30 c 0,398,399
459 183 m 2,432,433
 461 185 461 185 461 187 c 2,434,-1
 461 188 l 1,435,-1
 460 185 l 1,436,-1
 459 183 l 2,432,433
124 187 m 1,437,438
 124 187 124 187 125 189 c 0,439,440
 126 190 126 190 126 191 c 2,441,-1
 125 190 l 1,442,-1
 124 187 l 1,437,438
444 89 m 2,443,444
 444 89 444 89 445 91 c 1,445,446
 444 90 444 90 444 89 c 2,443,444
443 86 m 1,447,448
 444 88 444 88 444 89 c 1,449,450
 443 88 443 88 443 86 c 1,447,448
EndSplineSet
Validated: 37
EndChar

StartChar: N
Encoding: 78 78 13
Width: 400
Flags: W
LayerCount: 2
Fore
SplineSet
192 321 m 0,0,1
 174 279 174 279 154.5 231.5 c 128,-1,2
 135 184 135 184 117 139.5 c 128,-1,3
 99 95 99 95 83.5 58.5 c 128,-1,4
 68 22 68 22 59 2 c 0,5,6
 53 -12 53 -12 39.5 -16.5 c 128,-1,7
 26 -21 26 -21 14 -19 c 128,-1,8
 2 -17 2 -17 -5 -9.5 c 128,-1,9
 -12 -2 -12 -2 -7 9 c 0,10,11
 8 38 8 38 33.5 95.5 c 128,-1,12
 59 153 59 153 89.5 224.5 c 128,-1,13
 120 296 120 296 152 372.5 c 128,-1,14
 184 449 184 449 212 516 c 0,15,16
 220 538 220 538 231 545 c 128,-1,17
 242 552 242 552 252 547.5 c 128,-1,18
 262 543 262 543 268 530 c 128,-1,19
 274 517 274 517 273 499 c 0,20,21
 272 477 272 477 270.5 432.5 c 128,-1,22
 269 388 269 388 268 337 c 128,-1,23
 267 286 267 286 266.5 237 c 128,-1,24
 266 188 266 188 266 158 c 0,25,26
 266 144 266 144 264 136 c 1,27,28
 265 139 265 139 267 144.5 c 128,-1,29
 269 150 269 150 273 159 c 0,30,31
 313 249 313 249 350.5 345.5 c 128,-1,32
 388 442 388 442 422 533 c 0,33,34
 429 552 429 552 441 555 c 128,-1,35
 453 558 453 558 464 551 c 128,-1,36
 475 544 475 544 480.5 530.5 c 128,-1,37
 486 517 486 517 480 502 c 0,38,39
 454 443 454 443 427.5 376.5 c 128,-1,40
 401 310 401 310 376.5 247 c 128,-1,41
 352 184 352 184 331.5 131 c 128,-1,42
 311 78 311 78 297 47 c 0,43,44
 286 23 286 23 271 4 c 128,-1,45
 256 -15 256 -15 242 -19.5 c 128,-1,46
 228 -24 228 -24 218.5 -9 c 128,-1,47
 209 6 209 6 208 49 c 0,48,49
 207 76 207 76 206.5 108 c 128,-1,50
 206 140 206 140 206 174 c 128,-1,51
 206 208 206 208 206.5 242.5 c 128,-1,52
 207 277 207 277 207 307 c 0,53,54
 208 323 208 323 206.5 329 c 128,-1,55
 205 335 205 335 202.5 335 c 128,-1,56
 200 335 200 335 197 330.5 c 128,-1,57
 194 326 194 326 192 321 c 0,0,1
40 37 m 0,58,59
 41 39 41 39 42.5 41.5 c 128,-1,60
 44 44 44 44 46 48 c 0,61,62
 48 51 48 51 50 59 c 0,63,64
 52 62 52 62 53.5 66 c 128,-1,65
 55 70 55 70 56 74 c 0,66,67
 60 78 60 78 60 82 c 128,-1,68
 60 86 60 86 62 89 c 2,69,-1
 69 105 l 1,70,-1
 76 121 l 2,71,72
 77 125 77 125 78.5 128.5 c 128,-1,73
 80 132 80 132 80 137 c 0,74,75
 82 141 82 141 84 144 c 128,-1,76
 86 147 86 147 87 150 c 2,77,-1
 91 164 l 1,78,-1
 96 175 l 2,79,80
 98 182 98 182 99 183 c 0,81,82
 99 186 99 186 100 189 c 2,83,-1
 100 190 l 1,84,-1
 98 186 l 1,85,-1
 98 183 l 2,86,87
 95 180 95 180 94 176 c 0,88,89
 92 174 92 174 91.5 171 c 128,-1,90
 91 168 91 168 87 165 c 0,91,92
 87 162 87 162 86.5 159 c 128,-1,93
 86 156 86 156 83 153 c 0,94,95
 81 149 81 149 80 146 c 128,-1,96
 79 143 79 143 76 139 c 2,97,-1
 71 123 l 2,98,99
 70 119 70 119 68 115 c 128,-1,100
 66 111 66 111 65 108 c 2,101,-1
 58 92 l 1,102,-1
 52 76 l 1,103,-1
 47 61 l 2,104,105
 46 58 46 58 45.5 54.5 c 128,-1,106
 45 51 45 51 43 48 c 2,107,-1
 38 37 l 2,108,109
 38 35 38 35 37.5 33 c 128,-1,110
 37 31 37 31 38 28 c 1,111,112
 35 27 35 27 37 25 c 1,113,114
 36 25 36 25 36 23 c 2,115,-1
 37 24 l 1,116,117
 37 24 37 24 39 28 c 0,118,119
 40 31 40 31 40 37 c 0,58,59
334 256 m 1,120,121
 334 247 334 247 336 243 c 1,122,123
 337 244 337 244 336 244.5 c 128,-1,124
 335 245 335 245 337 246 c 0,125,126
 338 251 338 251 340.5 255 c 128,-1,127
 343 259 343 259 343 263 c 2,128,-1
 347 279 l 2,129,130
 350 284 350 284 352 287.5 c 128,-1,131
 354 291 354 291 355 296 c 2,132,-1
 362 312 l 2,133,134
 362 317 362 317 364 320 c 128,-1,135
 366 323 366 323 367 326 c 0,136,137
 366 331 366 331 368 334 c 128,-1,138
 370 337 370 337 369 340 c 2,139,-1
 375 351 l 2,140,141
 376 354 376 354 376 356 c 128,-1,142
 376 358 376 358 377 360 c 256,143,144
 378 362 378 362 378 366 c 2,145,-1
 378 367 l 1,146,-1
 377 363 l 1,147,-1
 376 360 l 2,148,149
 375 358 375 358 374 356 c 128,-1,150
 373 354 373 354 373 352 c 0,151,152
 372 350 372 350 370 347 c 128,-1,153
 368 344 368 344 366 341 c 0,154,155
 367 338 367 338 365 334.5 c 128,-1,156
 363 331 363 331 363 328 c 0,157,158
 361 324 361 324 359.5 320.5 c 128,-1,159
 358 317 358 317 357 313 c 2,160,-1
 352 297 l 2,161,162
 349 293 349 293 346.5 289 c 128,-1,163
 344 285 344 285 343 281 c 2,164,-1
 338 264 l 1,165,-1
 334 256 l 1,120,121
272 98 m 1,166,-1
 267 84 l 1,167,-1
 262 71 l 1,168,-1
 259 58 l 2,169,170
 259 57 259 57 258 56 c 1,171,172
 260 59 260 59 262.5 60 c 128,-1,173
 265 61 265 61 267 63 c 2,174,-1
 270 68 l 1,175,-1
 274 82 l 2,176,177
 273 86 273 86 274.5 89 c 128,-1,178
 276 92 276 92 277 96 c 2,179,-1
 281 110 l 2,180,181
 286 117 286 117 286 122 c 0,182,183
 290 132 290 132 289 134 c 2,184,-1
 294 143 l 2,185,186
 295 146 295 146 295 151 c 2,187,-1
 295 152 l 2,188,189
 295 153 295 153 295.5 153 c 128,-1,190
 296 153 296 153 296 154 c 2,191,-1
 295 153 l 1,192,-1
 294 151 l 2,193,194
 294 149 294 149 292.5 148 c 128,-1,195
 291 147 291 147 291 145 c 2,196,-1
 285 135 l 2,197,198
 286 133 286 133 285 130 c 128,-1,199
 284 127 284 127 283 123 c 0,200,201
 281 121 281 121 279.5 118 c 128,-1,202
 278 115 278 115 277 111 c 2,203,-1
 272 98 l 1,166,-1
112 188 m 2,204,205
 107 180 107 180 102.5 169.5 c 128,-1,206
 98 159 98 159 93 148 c 2,207,-1
 85 126 l 2,208,209
 84 121 84 121 82 116.5 c 128,-1,210
 80 112 80 112 80 107 c 0,211,212
 78 105 78 105 77.5 103.5 c 128,-1,213
 77 102 77 102 76 100 c 256,214,215
 75 98 75 98 75.5 96.5 c 128,-1,216
 76 95 76 95 75 93 c 0,217,218
 74 92 74 92 74 90 c 1,219,220
 74 91 74 91 76 92 c 2,221,-1
 78 98 l 1,222,-1
 82 106 l 2,223,224
 84 109 84 109 86 113.5 c 128,-1,225
 88 118 88 118 90 124 c 0,226,227
 93 129 93 129 94.5 134.5 c 128,-1,228
 96 140 96 140 99 145 c 0,229,230
 101 151 101 151 102.5 156.5 c 128,-1,231
 104 162 104 162 106 167 c 2,232,-1
 115 185 l 2,233,234
 115 188 115 188 115.5 190 c 128,-1,235
 116 192 116 192 116 194 c 0,236,237
 117 196 117 196 118 197 c 128,-1,238
 119 198 119 198 119 200 c 2,239,-1
 119 202 l 2,240,241
 120 202 120 202 120 203 c 2,242,243
 120 203 120 203 117 200 c 0,244,245
 115 198 115 198 115 195 c 2,246,-1
 112 188 l 2,204,205
390 366 m 2,247,248
 386 358 386 358 382 347 c 128,-1,249
 378 336 378 336 375 324 c 0,250,251
 370 318 370 318 368.5 312.5 c 128,-1,252
 367 307 367 307 366 302 c 2,253,-1
 358 283 l 2,254,255
 356 276 356 276 359 274 c 0,256,257
 356 269 356 269 357 268 c 2,258,-1
 355 264 l 2,259,260
 357 264 357 264 357 266 c 2,261,-1
 357 267 l 2,262,263
 359 271 359 271 361 273 c 0,264,265
 359 276 359 276 361 281 c 0,266,267
 363 285 363 285 366 290 c 128,-1,268
 369 295 369 295 371 300 c 0,269,270
 373 311 373 311 380 323 c 0,271,272
 381 329 381 329 382.5 334.5 c 128,-1,273
 384 340 384 340 384 345 c 0,274,275
 388 350 388 350 389 355 c 128,-1,276
 390 360 390 360 392 365 c 0,277,278
 394 371 394 371 394 373 c 0,279,280
 396 377 396 377 396 379 c 0,281,282
 397 380 397 380 396 381 c 2,283,-1
 396 382 l 2,284,285
 396 381 396 381 395.5 380.5 c 128,-1,286
 395 380 395 380 395 379 c 2,287,-1
 392 373 l 1,288,-1
 390 366 l 2,247,248
308 155 m 2,289,290
 305 147 305 147 301 138.5 c 128,-1,291
 297 130 297 130 293 120 c 0,292,293
 291 115 291 115 290.5 110.5 c 128,-1,294
 290 106 290 106 286 101 c 0,295,296
 286 96 286 96 285 92.5 c 128,-1,297
 284 89 284 89 282 84 c 0,298,299
 283 82 283 82 283 79 c 1,300,301
 284 81 284 81 284.5 81 c 128,-1,302
 285 81 285 81 285 83 c 0,303,304
 290 92 290 92 291 99 c 0,305,306
 294 104 294 104 295 108.5 c 128,-1,307
 296 113 296 113 297 116 c 0,308,309
 300 122 300 122 302 126.5 c 128,-1,310
 304 131 304 131 305 136 c 2,311,-1
 309 152 l 2,312,313
 312 155 312 155 312.5 156.5 c 128,-1,314
 313 158 313 158 312 160 c 0,315,316
 312 164 312 164 312 164 c 1,317,-1
 314 166 l 1,318,-1
 314 167 l 2,319,320
 314 168 314 168 311 165 c 0,321,322
 310 164 310 164 310.5 163 c 128,-1,323
 311 162 311 162 310 160 c 2,324,-1
 308 155 l 2,289,290
32 40 m 1,325,-1
 38 51 l 2,326,327
 40 54 40 54 40 57 c 128,-1,328
 40 60 40 60 41 63 c 0,329,330
 43 67 43 67 44 70 c 128,-1,331
 45 73 45 73 46 75 c 0,332,333
 49 78 49 78 49 81.5 c 128,-1,334
 49 85 49 85 49 87 c 0,335,336
 49 88 49 88 51 92 c 1,337,338
 51 91 51 91 50 91 c 0,339,340
 48 89 48 89 48 88 c 0,341,342
 48 85 48 85 47.5 82 c 128,-1,343
 47 79 47 79 44 76 c 0,344,345
 42 73 42 73 41.5 70.5 c 128,-1,346
 41 68 41 68 39 65 c 2,347,-1
 36 52 l 2,348,349
 34 49 34 49 33 46 c 128,-1,350
 32 43 32 43 30 40 c 0,351,352
 30 36 30 36 29 33 c 2,353,-1
 29 31 l 2,354,355
 29 30 29 30 30 30 c 2,356,357
 30 30 30 30 30 32 c 2,358,-1
 32 40 l 1,325,-1
252 57 m 2,359,360
 248 51 248 51 248 46 c 2,361,362
 248 46 248 46 250 48 c 2,363,-1
 253 56 l 2,364,365
 255 60 255 60 255 62.5 c 128,-1,366
 255 65 255 65 256 67 c 0,367,368
 256 69 256 69 256.5 70.5 c 128,-1,369
 257 72 257 72 257 73 c 2,370,-1
 255 70 l 2,371,372
 256 68 256 68 255 67 c 2,373,-1
 252 57 l 2,359,360
246 44 m 1,374,-1
 248 46 l 2,375,376
 246 44 246 44 246 44 c 1,374,-1
EndSplineSet
Validated: 37
EndChar

StartChar: O
Encoding: 79 79 14
Width: 434
Flags: W
LayerCount: 2
Fore
SplineSet
337 97 m 0,0,1
 316 72 316 72 290 49.5 c 128,-1,2
 264 27 264 27 233 10 c 0,3,4
 201 -7 201 -7 164.5 -16 c 128,-1,5
 128 -25 128 -25 90 -15 c 0,6,7
 71 -10 71 -10 53.5 0 c 128,-1,8
 36 10 36 10 24 27 c 0,9,10
 12 43 12 43 6 61.5 c 128,-1,11
 0 80 0 80 -1 98 c 0,12,13
 -7 172 -7 172 16 239 c 0,14,15
 39 303 39 303 73.5 353.5 c 128,-1,16
 108 404 108 404 146 442 c 0,17,18
 164 459 164 459 191.5 478.5 c 128,-1,19
 219 498 219 498 249.5 514.5 c 128,-1,20
 280 531 280 531 311 540.5 c 128,-1,21
 342 550 342 550 366 547 c 0,22,23
 381 545 381 545 388.5 536.5 c 128,-1,24
 396 528 396 528 396.5 519.5 c 128,-1,25
 397 511 397 511 392 504.5 c 128,-1,26
 387 498 387 498 378 499 c 0,27,28
 367 500 367 500 351.5 496 c 128,-1,29
 336 492 336 492 319.5 485 c 128,-1,30
 303 478 303 478 288 469.5 c 128,-1,31
 273 461 273 461 262 455 c 0,32,33
 236 440 236 440 206.5 416 c 128,-1,34
 177 392 177 392 148 355 c 256,35,36
 119 318 119 318 94 270 c 128,-1,37
 69 222 69 222 59 165 c 0,38,39
 54 137 54 137 57 111.5 c 128,-1,40
 60 86 60 86 74 69 c 256,41,42
 88 52 88 52 111 46.5 c 128,-1,43
 134 41 134 41 159 47 c 0,44,45
 185 52 185 52 209.5 66.5 c 128,-1,46
 234 81 234 81 256 100 c 0,47,48
 279 119 279 119 296.5 142 c 128,-1,49
 314 165 314 165 330 189 c 0,50,51
 360 239 360 239 369 285 c 0,52,53
 374 308 374 308 375.5 330 c 128,-1,54
 377 352 377 352 373 371 c 0,55,56
 371 381 371 381 369.5 388.5 c 128,-1,57
 368 396 368 396 364 404 c 0,58,59
 360 410 360 410 358 415 c 0,60,61
 356 417 356 417 354.5 418.5 c 128,-1,62
 353 420 353 420 353 419 c 1,63,64
 352 420 352 420 351.5 419.5 c 128,-1,65
 351 419 351 419 352 418 c 0,66,67
 353 418 353 418 350.5 415.5 c 128,-1,68
 348 413 348 413 346 410 c 2,69,-1
 339 399 l 2,70,71
 336 394 336 394 332 389 c 128,-1,72
 328 384 328 384 325 381 c 0,73,74
 314 365 314 365 303 373 c 0,75,76
 292 382 292 382 292 406 c 0,77,78
 291 412 291 412 292.5 419.5 c 128,-1,79
 294 427 294 427 296 435 c 0,80,81
 299 443 299 443 304 452.5 c 128,-1,82
 309 462 309 462 318 471 c 0,83,84
 319 471 319 471 324 475 c 128,-1,85
 329 479 329 479 339 483 c 0,86,87
 348 488 348 488 364 487 c 128,-1,88
 380 486 380 486 394 473 c 0,89,90
 410 459 410 459 417.5 442 c 128,-1,91
 425 425 425 425 431 405 c 0,92,93
 436 385 436 385 437.5 361.5 c 128,-1,94
 439 338 439 338 435 312 c 0,95,96
 433 286 433 286 426 258.5 c 128,-1,97
 419 231 419 231 405 204 c 0,98,99
 381 150 381 150 337 97 c 0,0,1
49 249 m 0,100,101
 56 267 56 267 68 287 c 2,102,-1
 71 293 l 2,103,104
 73 295 73 295 74 298.5 c 128,-1,105
 75 302 75 302 77 306 c 0,106,107
 80 312 80 312 84 318 c 0,108,109
 86 321 86 321 88 323 c 0,110,111
 98 341 98 341 112 360 c 2,112,-1
 117 365 l 2,113,114
 121 369 121 369 126 377 c 0,115,116
 128 380 128 380 130.5 383 c 128,-1,117
 133 386 133 386 135 388 c 2,118,-1
 140 393 l 2,119,120
 141 395 141 395 144 398 c 0,121,122
 146 400 146 400 148.5 403 c 128,-1,123
 151 406 151 406 154 409 c 2,124,-1
 165 420 l 2,125,126
 168 423 168 423 169 425 c 0,127,128
 177 432 177 432 184 438.5 c 128,-1,129
 191 445 191 445 199 452 c 2,130,-1
 227 475 l 2,131,132
 236 479 236 479 242.5 482.5 c 128,-1,133
 249 486 249 486 254 489 c 0,134,135
 259 493 259 493 264.5 496 c 128,-1,136
 270 499 270 499 275 501 c 0,137,138
 277 503 277 503 278.5 503.5 c 128,-1,139
 280 504 280 504 282 505 c 0,140,141
 283 505 283 505 287 507 c 2,142,-1
 274 503 l 1,143,-1
 253 491 l 2,144,145
 248 487 248 487 241 484 c 128,-1,146
 234 481 234 481 225 476 c 0,147,148
 219 471 219 471 212 466 c 128,-1,149
 205 461 205 461 197 455 c 0,150,151
 190 450 190 450 182.5 443 c 128,-1,152
 175 436 175 436 166 429 c 0,153,154
 159 421 159 421 150.5 413 c 128,-1,155
 142 405 142 405 136 397 c 0,156,157
 128 389 128 389 122 380.5 c 128,-1,158
 116 372 116 372 109 363 c 0,159,160
 95 346 95 346 84 327 c 0,161,162
 78 317 78 317 73 307 c 128,-1,163
 68 297 68 297 63 288 c 0,164,165
 58 277 58 277 54 268 c 128,-1,166
 50 259 50 259 46 250 c 0,167,168
 44 242 44 242 40.5 234 c 128,-1,169
 37 226 37 226 35 217 c 0,170,171
 33 210 33 210 31 202.5 c 128,-1,172
 29 195 29 195 28 188 c 256,173,174
 27 181 27 181 26 176 c 128,-1,175
 25 171 25 171 25 167 c 2,176,-1
 30 188 l 2,177,178
 32 200 32 200 38 218 c 0,179,180
 40 226 40 226 43.5 233.5 c 128,-1,181
 47 241 47 241 49 249 c 0,100,101
14 95 m 2,182,183
 13 97 13 97 13 102 c 256,184,185
 13 107 13 107 12.5 111 c 128,-1,186
 12 115 12 115 13 120 c 2,187,-1
 11 140 l 1,188,189
 16 190 16 190 39 253 c 0,190,191
 46 267 46 267 52 281 c 128,-1,192
 58 295 58 295 66 308 c 0,193,194
 73 322 73 322 79.5 333 c 128,-1,195
 86 344 86 344 92 354 c 2,196,-1
 105 372 l 2,197,198
 107 377 107 377 109.5 380 c 128,-1,199
 112 383 112 383 114 386 c 1,200,201
 111 383 111 383 108 380 c 128,-1,202
 105 377 105 377 103 373 c 256,203,204
 101 369 101 369 97.5 365 c 128,-1,205
 94 361 94 361 91 356 c 0,206,207
 84 347 84 347 77 336 c 128,-1,208
 70 325 70 325 62 311 c 0,209,210
 53 297 53 297 46.5 283 c 128,-1,211
 40 269 40 269 34 254 c 0,212,213
 29 239 29 239 24.5 224 c 128,-1,214
 20 209 20 209 16 194 c 0,215,216
 13 180 13 180 11.5 166.5 c 128,-1,217
 10 153 10 153 8 141 c 0,218,219
 9 135 9 135 9.5 129.5 c 128,-1,220
 10 124 10 124 10 119 c 0,221,222
 11 114 11 114 11.5 110 c 128,-1,223
 12 106 12 106 12 101 c 2,224,-1
 14 95 l 2,182,183
275 492 m 0,225,226
 281 495 281 495 283 497 c 1,227,228
 282 497 282 497 276 493 c 2,229,-1
 258 484 l 2,230,231
 252 481 252 481 244.5 477 c 128,-1,232
 237 473 237 473 229 468 c 0,233,234
 223 463 223 463 216.5 458.5 c 128,-1,235
 210 454 210 454 204 449 c 0,236,237
 196 443 196 443 189.5 437.5 c 128,-1,238
 183 432 183 432 178 427 c 2,239,-1
 157 405 l 2,240,241
 152 401 152 401 149.5 397 c 128,-1,242
 147 393 147 393 145 390 c 2,243,-1
 150 396 l 2,244,245
 153 401 153 401 158 404 c 0,246,247
 163 409 163 409 168.5 414 c 128,-1,248
 174 419 174 419 179 425 c 0,249,250
 186 431 186 431 192.5 436 c 128,-1,251
 199 441 199 441 205 446 c 0,252,253
 212 453 212 453 219 457.5 c 128,-1,254
 226 462 226 462 231 467 c 2,255,-1
 259 483 l 2,256,257
 263 485 263 485 266.5 487.5 c 128,-1,258
 270 490 270 490 275 492 c 0,225,226
24 158 m 1,259,-1
 24 164 l 2,260,261
 23 160 23 160 23 151 c 2,262,-1
 23 149 l 1,263,-1
 24 158 l 1,259,-1
114 386 m 2,264,265
 117 388 117 388 118 390.5 c 128,-1,266
 119 393 119 393 121 395 c 1,267,268
 121 394 121 394 120 393.5 c 128,-1,269
 119 393 119 393 119 392 c 2,270,-1
 115 387 l 1,271,-1
 114 386 l 2,264,265
14 95 m 2,272,-1
 14 93 l 2,273,274
 14 92 14 92 15 92 c 1,275,276
 14 93 14 93 14 95 c 2,272,-1
EndSplineSet
Validated: 37
EndChar

StartChar: P
Encoding: 80 80 15
Width: 444
Flags: W
LayerCount: 2
Fore
SplineSet
90 184 m 0,0,1
 92 186 92 186 93.5 191 c 128,-1,2
 95 196 95 196 97 201 c 1,3,4
 95 201 95 201 94 202 c 0,5,6
 76 212 76 212 65 228 c 128,-1,7
 54 244 54 244 55 259 c 0,8,9
 56 269 56 269 62.5 277.5 c 128,-1,10
 69 286 69 286 76.5 290 c 128,-1,11
 84 294 84 294 91 292 c 128,-1,12
 98 290 98 290 101 281 c 0,13,14
 104 270 104 270 108.5 263 c 128,-1,15
 113 256 113 256 116 255 c 0,16,17
 131 284 131 284 146 315.5 c 128,-1,18
 161 347 161 347 174.5 377.5 c 128,-1,19
 188 408 188 408 199.5 435 c 128,-1,20
 211 462 211 462 221 482 c 1,21,-1
 183 478 l 2,22,23
 157 474 157 474 144 481 c 128,-1,24
 131 488 131 488 129.5 499.5 c 128,-1,25
 128 511 128 511 138 522.5 c 128,-1,26
 148 534 148 534 170 540 c 0,27,28
 190 545 190 545 212.5 545 c 128,-1,29
 235 545 235 545 260 546 c 1,30,31
 267 556 267 556 275.5 560 c 128,-1,32
 284 564 284 564 291 563 c 128,-1,33
 298 562 298 562 302 557.5 c 128,-1,34
 306 553 306 553 304 546 c 1,35,36
 329 544 329 544 351 540.5 c 128,-1,37
 373 537 373 537 406 523 c 0,38,39
 423 515 423 515 440.5 500.5 c 128,-1,40
 458 486 458 486 469 464 c 0,41,42
 487 428 487 428 482 391 c 128,-1,43
 477 354 477 354 456 320 c 128,-1,44
 435 286 435 286 401.5 257 c 128,-1,45
 368 228 368 228 327.5 208 c 128,-1,46
 287 188 287 188 243.5 180 c 128,-1,47
 200 172 200 172 159 180 c 1,48,49
 153 168 153 168 143 144.5 c 128,-1,50
 133 121 133 121 122 95.5 c 128,-1,51
 111 70 111 70 101 46.5 c 128,-1,52
 91 23 91 23 86 12 c 0,53,54
 78 -5 78 -5 64.5 -12.5 c 128,-1,55
 51 -20 51 -20 39.5 -18 c 128,-1,56
 28 -16 28 -16 22 -5.5 c 128,-1,57
 16 5 16 5 24 23 c 0,58,59
 30 39 30 39 38 60 c 128,-1,60
 46 81 46 81 55 102.5 c 128,-1,61
 64 124 64 124 73 145.5 c 128,-1,62
 82 167 82 167 90 184 c 0,0,1
294 485 m 0,63,64
 294 487 294 487 286.5 471 c 128,-1,65
 279 455 279 455 267.5 430 c 128,-1,66
 256 405 256 405 241.5 375 c 128,-1,67
 227 345 227 345 214.5 317.5 c 128,-1,68
 202 290 202 290 191.5 270 c 128,-1,69
 181 250 181 250 178 245 c 0,70,71
 172 237 172 237 164.5 234 c 128,-1,72
 157 231 157 231 153 230 c 2,73,-1
 163 230 l 1,74,75
 208 225 208 225 255 242.5 c 128,-1,76
 302 260 302 260 340 289.5 c 128,-1,77
 378 319 378 319 401 356 c 128,-1,78
 424 393 424 393 421 427 c 0,79,80
 419 446 419 446 405.5 457 c 128,-1,81
 392 468 392 468 372.5 474 c 128,-1,82
 353 480 353 480 332 482 c 128,-1,83
 311 484 311 484 294 485 c 0,63,64
90 96 m 2,84,85
 92 100 92 100 93 103.5 c 128,-1,86
 94 107 94 107 96 111 c 2,87,-1
 102 126 l 2,88,89
 104 130 104 130 105 133 c 128,-1,90
 106 136 106 136 107 139 c 0,91,92
 109 143 109 143 110 146 c 128,-1,93
 111 149 111 149 111 152 c 0,94,95
 113 154 113 154 113.5 157 c 128,-1,96
 114 160 114 160 115 162 c 0,97,98
 118 166 118 166 118 170 c 1,99,100
 117 168 117 168 116 166.5 c 128,-1,101
 115 165 115 165 114 163 c 2,102,-1
 108 153 l 2,103,104
 108 149 108 149 104 141 c 2,105,-1
 97 128 l 1,106,-1
 92 113 l 1,107,-1
 87 103 l 1,108,-1
 95 134 l 1,109,-1
 74 69 l 2,110,111
 73 65 73 65 72 62 c 128,-1,112
 71 59 71 59 69 55 c 0,113,114
 69 52 69 52 68 48.5 c 128,-1,115
 67 45 67 45 66 42 c 0,116,117
 64 40 64 40 63.5 37 c 128,-1,118
 63 34 63 34 62 32 c 0,119,120
 62 30 62 30 60 24 c 0,121,122
 60 22 60 22 59 21 c 2,123,-1
 59 19 l 1,124,-1
 60 20 l 1,125,126
 60 20 60 20 62 24 c 0,127,128
 62 26 62 26 62.5 27.5 c 128,-1,129
 63 29 63 29 64 32 c 0,130,131
 66 38 66 38 69 42 c 2,132,-1
 74 53 l 2,133,134
 74 56 74 56 75.5 59.5 c 128,-1,135
 77 63 77 63 79 67 c 256,136,137
 81 71 81 71 82.5 74.5 c 128,-1,138
 84 78 84 78 84 81 c 2,139,-1
 90 96 l 2,84,85
308 503 m 2,140,141
 308 502 308 502 307 502 c 256,142,143
 306 502 306 502 305 501 c 2,144,-1
 312 501 l 2,145,146
 317 499 317 499 323.5 499 c 128,-1,147
 330 499 330 499 336 498 c 0,148,149
 342 496 342 496 349 495.5 c 128,-1,150
 356 495 356 495 364 493 c 0,151,152
 372 492 372 492 377 490.5 c 128,-1,153
 382 489 382 489 389 487 c 2,154,-1
 407 478 l 2,155,156
 412 475 412 475 414 474 c 0,157,158
 417 473 417 473 418 470 c 2,159,-1
 419 469 l 2,160,161
 420 469 420 469 420 468.5 c 128,-1,162
 420 468 420 468 421 468 c 1,163,164
 419 470 419 470 419 472 c 0,165,166
 419 473 419 473 418 473.5 c 128,-1,167
 417 474 417 474 416 476 c 2,168,-1
 410 480 l 2,169,170
 402 485 402 485 391.5 490.5 c 128,-1,171
 381 496 381 496 367 499 c 0,172,173
 359 501 359 501 352 501.5 c 128,-1,174
 345 502 345 502 339 503 c 0,175,176
 332 504 332 504 325.5 503.5 c 128,-1,177
 319 503 319 503 313 503 c 2,178,-1
 308 503 l 2,140,141
423 342 m 2,179,180
 423 338 423 338 421 336 c 0,181,182
 416 332 416 332 412.5 327 c 128,-1,183
 409 322 409 322 405 317 c 0,184,185
 400 312 400 312 394.5 306.5 c 128,-1,186
 389 301 389 301 384 296 c 0,187,188
 379 290 379 290 374.5 286 c 128,-1,189
 370 282 370 282 365 277 c 0,190,191
 353 269 353 269 346 265 c 2,192,-1
 338 261 l 1,193,-1
 332 258 l 1,194,-1
 330 258 l 2,195,196
 329 257 329 257 329 257.5 c 128,-1,197
 329 258 329 258 327 257 c 2,198,-1
 332 257 l 2,199,200
 335 257 335 257 339 259 c 2,201,-1
 347 262 l 2,202,203
 356 267 356 267 367 274 c 128,-1,204
 378 281 378 281 389 292 c 2,205,-1
 408 313 l 2,206,207
 412 318 412 318 415 324 c 128,-1,208
 418 330 418 330 423 335 c 2,209,-1
 426 339 l 1,210,-1
 423 342 l 2,179,180
138 188 m 1,211,212
 137 188 137 188 137 187 c 256,213,214
 137 186 137 186 136 186 c 2,215,-1
 133 181 l 1,216,-1
 130 174 l 1,217,-1
 114 137 l 1,218,-1
 111 131 l 2,219,220
 110 128 110 128 108 121 c 128,-1,221
 106 114 106 114 104 107 c 128,-1,222
 102 100 102 100 101 94.5 c 128,-1,223
 100 89 100 89 100 90 c 2,224,-1
 103 97 l 2,225,226
 105 100 105 100 107 104.5 c 128,-1,227
 109 109 109 109 111 114 c 256,228,229
 113 119 113 119 115 124 c 128,-1,230
 117 129 117 129 119 134 c 2,231,-1
 122 141 l 2,232,233
 122 149 122 149 128 157 c 2,234,-1
 134 172 l 2,235,236
 134 174 134 174 134.5 176 c 128,-1,237
 135 178 135 178 135 180 c 2,238,-1
 137 186 l 2,239,240
 138 187 138 187 138 188 c 1,211,212
315 517 m 1,241,242
 315 514 315 514 314 512 c 1,243,244
 318 512 318 512 321 511.5 c 128,-1,245
 324 511 324 511 329 511 c 256,246,247
 334 511 334 511 340 510.5 c 128,-1,248
 346 510 346 510 352 509 c 2,249,-1
 370 506 l 2,250,251
 374 504 374 504 378 504 c 128,-1,252
 382 504 382 504 386 502 c 2,253,-1
 399 498 l 1,254,-1
 408 494 l 2,255,256
 412 494 412 494 412 491 c 2,257,-1
 413 491 l 1,258,-1
 412 493 l 1,259,-1
 408 495 l 2,260,261
 406 496 406 496 404.5 497.5 c 128,-1,262
 403 499 403 499 400 500 c 256,263,264
 397 501 397 501 394 502 c 128,-1,265
 391 503 391 503 387 505 c 0,266,267
 384 507 384 507 380 507.5 c 128,-1,268
 376 508 376 508 372 509 c 0,269,270
 364 511 364 511 352 513 c 2,271,-1
 331 516 l 2,272,273
 327 516 327 516 323.5 516 c 128,-1,274
 320 516 320 516 315 517 c 1,241,242
430 330 m 2,275,276
 428 327 428 327 425 324.5 c 128,-1,277
 422 322 422 322 420 318 c 0,278,279
 418 313 418 313 414.5 309.5 c 128,-1,280
 411 306 411 306 407 301 c 0,281,282
 403 297 403 297 400.5 293.5 c 128,-1,283
 398 290 398 290 395 287 c 0,284,285
 390 284 390 284 387.5 280.5 c 128,-1,286
 385 277 385 277 380 275 c 0,287,288
 378 273 378 273 375.5 270.5 c 128,-1,289
 373 268 373 268 371 265 c 0,290,291
 369 263 369 263 366.5 262 c 128,-1,292
 364 261 364 261 362 259 c 2,293,-1
 361 258 l 1,294,-1
 363 259 l 2,295,296
 365 261 365 261 367.5 261.5 c 128,-1,297
 370 262 370 262 372 264 c 2,298,-1
 382 273 l 2,299,300
 389 277 389 277 396 284 c 0,301,302
 400 287 400 287 403 290.5 c 128,-1,303
 406 294 406 294 410 299 c 2,304,-1
 426 315 l 2,305,306
 427 319 427 319 434 328 c 1,307,-1
 430 330 l 2,275,276
205 506 m 0,308,309
 210 507 210 507 221 507 c 0,310,311
 225 507 225 507 228 507.5 c 128,-1,312
 231 508 231 508 235 508 c 0,313,314
 237 510 237 510 237 512 c 2,315,-1
 219 510 l 1,316,-1
 204 508 l 2,317,318
 201 508 201 508 198.5 507.5 c 128,-1,319
 196 507 196 507 193 507 c 0,320,321
 191 506 191 506 189 506 c 256,322,323
 187 506 187 506 186 505 c 2,324,-1
 193 505 l 2,325,326
 197 506 197 506 205 506 c 0,308,309
192 515 m 0,327,328
 191 514 191 514 189 514 c 2,329,-1
 192 514 l 2,330,331
 195 514 195 514 198 514.5 c 128,-1,332
 201 515 201 515 203 515 c 0,333,334
 207 515 207 515 210.5 515 c 128,-1,335
 214 515 214 515 219 516 c 0,336,337
 226 516 226 516 236 518 c 2,338,-1
 241 518 l 2,339,340
 241 519 241 519 241.5 519 c 128,-1,341
 242 519 242 519 242 520 c 2,342,-1
 236 520 l 1,343,-1
 219 518 l 2,344,345
 214 518 214 518 210.5 517.5 c 128,-1,346
 207 517 207 517 203 517 c 0,347,348
 197 515 197 515 192 515 c 0,327,328
96 82 m 0,349,350
 96 81 96 81 95 81 c 1,351,352
 95 82 95 82 95.5 82.5 c 128,-1,353
 96 83 96 83 96 85 c 2,354,-1
 98 91 l 2,355,356
 98 92 98 92 100 98 c 0,357,358
 100 102 100 102 104 110 c 1,359,360
 102 105 102 105 100.5 100 c 128,-1,361
 99 95 99 95 98 91 c 0,362,363
 96 87 96 87 96 82 c 0,349,350
118 170 m 2,364,365
 120 174 120 174 120 175 c 2,366,-1
 120 176 l 1,367,-1
 118 170 l 2,364,365
87 103 m 2,368,-1
 86 99 l 2,369,370
 86 101 86 101 87 103 c 2,368,-1
355 256 m 2,371,-1
 356 256 l 1,372,-1
 354 255 l 2,373,374
 355 255 355 255 355 256 c 2,371,-1
413 491 m 2,375,376
 414 490 414 490 415 490 c 2,377,-1
 413 491 l 2,375,376
EndSplineSet
Validated: 37
EndChar

StartChar: Q
Encoding: 81 81 16
Width: 472
Flags: W
LayerCount: 2
Fore
SplineSet
366 98 m 0,0,1
 346 77 346 77 323.5 58 c 128,-1,2
 301 39 301 39 275 23 c 1,3,4
 278 18 278 18 281.5 14.5 c 128,-1,5
 285 11 285 11 287 9 c 0,6,7
 288 8 288 8 289 8.5 c 128,-1,8
 290 9 290 9 291 8 c 0,9,10
 299 6 299 6 308 4.5 c 128,-1,11
 317 3 317 3 325 5 c 0,12,13
 336 6 336 6 346.5 8.5 c 128,-1,14
 357 11 357 11 368 16 c 0,15,16
 379 20 379 20 387 24 c 128,-1,17
 395 28 395 28 403 30 c 0,18,19
 406 32 406 32 408 33 c 128,-1,20
 410 34 410 34 412 35 c 2,21,-1
 416 37 l 1,22,23
 426 30 426 30 428 18.5 c 128,-1,24
 430 7 430 7 429 -3.5 c 128,-1,25
 428 -14 428 -14 425 -21.5 c 128,-1,26
 422 -29 422 -29 422 -29 c 2,27,28
 421 -28 421 -28 406 -35 c 0,29,30
 398 -38 398 -38 388 -42 c 128,-1,31
 378 -46 378 -46 365 -50 c 0,32,33
 351 -55 351 -55 334.5 -57.5 c 128,-1,34
 318 -60 318 -60 300 -59 c 0,35,36
 288 -58 288 -58 277.5 -55.5 c 128,-1,37
 267 -53 267 -53 256 -49 c 0,38,39
 245 -44 245 -44 239 -37.5 c 128,-1,40
 233 -31 233 -31 228 -26 c 256,41,42
 223 -21 223 -21 219.5 -16 c 128,-1,43
 216 -11 216 -11 213 -6 c 1,44,45
 187 -15 187 -15 160.5 -18 c 128,-1,46
 134 -21 134 -21 106 -14 c 0,47,48
 86 -9 86 -9 69 1.5 c 128,-1,49
 52 12 52 12 39 29 c 0,50,51
 27 44 27 44 20.5 62.5 c 128,-1,52
 14 81 14 81 12 99 c 0,53,54
 8 137 8 137 15.5 171.5 c 128,-1,55
 23 206 23 206 34 238 c 0,56,57
 61 302 61 302 98 352 c 128,-1,58
 135 402 135 402 177 440 c 0,59,60
 219 477 219 477 258 500.5 c 128,-1,61
 297 524 297 524 331 535 c 0,62,63
 364 545 364 545 383.5 545.5 c 128,-1,64
 403 546 403 546 412 540 c 128,-1,65
 421 534 421 534 420.5 524.5 c 128,-1,66
 420 515 420 515 413 506 c 128,-1,67
 406 497 406 497 394 490.5 c 128,-1,68
 382 484 382 484 368 484 c 0,69,70
 350 484 350 484 323 469 c 128,-1,71
 296 454 296 454 268 433 c 128,-1,72
 240 412 240 412 215 390 c 128,-1,73
 190 368 190 368 177 353 c 0,74,75
 146 316 146 316 117.5 268.5 c 128,-1,76
 89 221 89 221 78 165 c 0,77,78
 73 138 73 138 76 112.5 c 128,-1,79
 79 87 79 87 93 70 c 256,80,81
 107 53 107 53 131 47.5 c 128,-1,82
 155 42 155 42 181 48 c 0,83,84
 183 48 183 48 184 49 c 0,85,86
 179 59 179 59 175.5 67.5 c 128,-1,87
 172 76 172 76 169 85 c 0,88,89
 165 96 165 96 164.5 98.5 c 128,-1,90
 164 101 164 101 162 109 c 0,91,92
 156 125 156 125 164 134 c 128,-1,93
 172 143 172 143 184.5 145 c 128,-1,94
 197 147 197 147 209.5 142.5 c 128,-1,95
 222 138 222 138 226 128 c 0,96,97
 228 122 228 122 231 112 c 128,-1,98
 234 102 234 102 239 91 c 0,99,100
 241 81 241 81 246 75 c 1,101,102
 255 80 255 80 264.5 87 c 128,-1,103
 274 94 274 94 283 101 c 0,104,105
 306 120 306 120 325.5 142.5 c 128,-1,106
 345 165 345 165 362 189 c 0,107,108
 376 211 376 211 390 237 c 128,-1,109
 404 263 404 263 413 291 c 128,-1,110
 422 319 422 319 423.5 347.5 c 128,-1,111
 425 376 425 376 414 403 c 0,112,113
 410 412 410 412 405 413.5 c 128,-1,114
 400 415 400 415 395 412.5 c 128,-1,115
 390 410 390 410 385 405 c 128,-1,116
 380 400 380 400 376 396 c 0,117,118
 372 391 372 391 369 386.5 c 128,-1,119
 366 382 366 382 362 379 c 0,120,121
 349 363 349 363 338 372 c 0,122,123
 327 379 327 379 327 404 c 0,124,125
 327 415 327 415 332 432 c 0,126,127
 337 441 337 441 342 450 c 128,-1,128
 347 459 347 459 356 469 c 0,129,130
 358 469 358 469 362.5 472.5 c 128,-1,131
 367 476 367 476 378 480 c 0,132,133
 389 485 389 485 405 484.5 c 128,-1,134
 421 484 421 484 436 470 c 0,135,136
 462 447 462 447 471.5 413.5 c 128,-1,137
 481 380 481 380 479.5 343.5 c 128,-1,138
 478 307 478 307 467 270 c 128,-1,139
 456 233 456 233 440 203 c 0,140,141
 426 177 426 177 407.5 150.5 c 128,-1,142
 389 124 389 124 366 98 c 0,0,1
71 249 m 0,143,144
 76 257 76 257 80 266 c 128,-1,145
 84 275 84 275 91 286 c 2,146,-1
 101 304 l 2,147,148
 103 308 103 308 105.5 311.5 c 128,-1,149
 108 315 108 315 110 317 c 0,150,151
 112 320 112 320 114 322 c 0,152,153
 119 331 119 331 125.5 340.5 c 128,-1,154
 132 350 132 350 140 358 c 0,155,156
 141 360 141 360 144 363 c 0,157,158
 146 365 146 365 149 368 c 128,-1,159
 152 371 152 371 155 375 c 2,160,-1
 169 391 l 1,161,-1
 174 396 l 2,162,163
 176 398 176 398 178.5 401 c 128,-1,164
 181 404 181 404 184 407 c 256,165,166
 187 410 187 410 190 412.5 c 128,-1,167
 193 415 193 415 195 417 c 0,168,169
 198 420 198 420 201 422 c 0,170,171
 209 429 209 429 216.5 436 c 128,-1,172
 224 443 224 443 232 449 c 256,173,174
 240 455 240 455 248 460.5 c 128,-1,175
 256 466 256 466 263 472 c 2,176,-1
 290 486 l 1,177,-1
 311 498 l 1,178,-1
 320 502 l 2,179,180
 322 502 322 502 324 504 c 1,181,182
 323 503 323 503 320 502.5 c 128,-1,183
 317 502 317 502 311 500 c 0,184,185
 307 497 307 497 301.5 494 c 128,-1,186
 296 491 296 491 290 488 c 2,187,-1
 261 473 l 2,188,189
 254 468 254 468 246.5 463 c 128,-1,190
 239 458 239 458 231 452 c 2,191,-1
 198 426 l 2,192,193
 189 418 189 418 180.5 410.5 c 128,-1,194
 172 403 172 403 165 395 c 256,195,196
 158 387 158 387 150.5 378.5 c 128,-1,197
 143 370 143 370 136 361 c 0,198,199
 128 353 128 353 122 343.5 c 128,-1,200
 116 334 116 334 110 325 c 0,201,202
 103 316 103 316 97.5 306 c 128,-1,203
 92 296 92 296 87 287 c 0,204,205
 80 276 80 276 76 267 c 128,-1,206
 72 258 72 258 68 250 c 0,207,208
 59 232 59 232 55 217 c 0,209,210
 53 209 53 209 51.5 202 c 128,-1,211
 50 195 50 195 48 188 c 0,212,213
 45 181 45 181 44.5 175.5 c 128,-1,214
 44 170 44 170 43 165 c 2,215,-1
 43 162 l 1,216,-1
 44 166 l 2,217,218
 46 171 46 171 46.5 176.5 c 128,-1,219
 47 182 47 182 49 188 c 2,220,-1
 58 218 l 2,221,222
 60 225 60 225 63.5 232.5 c 128,-1,223
 67 240 67 240 71 249 c 0,143,144
29 96 m 0,224,225
 29 95 29 95 29.5 94.5 c 128,-1,226
 30 94 30 94 30 93 c 1,227,228
 30 94 30 94 29.5 96.5 c 128,-1,229
 29 99 29 99 29 103 c 0,230,231
 30 107 30 107 29.5 111 c 128,-1,232
 29 115 29 115 28 121 c 2,233,-1
 29 140 l 2,234,235
 34 189 34 189 60 252 c 0,236,237
 68 266 68 266 74.5 280 c 128,-1,238
 81 294 81 294 89 307 c 256,239,240
 97 320 97 320 104.5 331.5 c 128,-1,241
 112 343 112 343 119 352 c 2,242,-1
 132 371 l 1,243,-1
 143 384 l 2,244,245
 147 390 147 390 150 393 c 2,246,-1
 146 390 l 1,247,-1
 143 385 l 1,248,-1
 129 372 l 2,249,250
 126 365 126 365 116 354 c 0,251,252
 108 346 108 346 100 334.5 c 128,-1,253
 92 323 92 323 84 310 c 0,254,255
 76 296 76 296 69 282 c 128,-1,256
 62 268 62 268 55 253 c 0,257,258
 49 238 49 238 43 223.5 c 128,-1,259
 37 209 37 209 34 194 c 0,260,261
 30 180 30 180 28.5 166.5 c 128,-1,262
 27 153 27 153 26 141 c 0,263,264
 25 135 25 135 25.5 130 c 128,-1,265
 26 125 26 125 26 120 c 2,266,-1
 28 102 l 2,267,268
 29 100 29 100 28.5 99 c 128,-1,269
 28 98 28 98 29 96 c 0,224,225
374 -7 m 2,270,271
 371 -8 371 -8 369 -9 c 128,-1,272
 367 -10 367 -10 365 -11 c 2,273,-1
 355 -15 l 2,274,275
 353 -15 353 -15 350 -16 c 128,-1,276
 347 -17 347 -17 345 -18 c 2,277,-1
 336 -20 l 2,278,279
 333 -20 333 -20 331 -20.5 c 128,-1,280
 329 -21 329 -21 327 -21 c 0,281,282
 324 -22 324 -22 319 -22 c 0,283,284
 317 -23 317 -23 313 -23 c 0,285,286
 310 -24 310 -24 307 -24 c 1,287,288
 308 -25 308 -25 311 -25 c 0,289,290
 316 -25 316 -25 319 -26 c 0,291,292
 321 -25 321 -25 326 -25 c 0,293,294
 328 -25 328 -25 331 -24.5 c 128,-1,295
 334 -24 334 -24 337 -24 c 2,296,-1
 346 -22 l 2,297,298
 348 -22 348 -22 350.5 -21 c 128,-1,299
 353 -20 353 -20 355 -20 c 2,300,-1
 365 -17 l 1,301,-1
 375 -13 l 2,302,303
 378 -10 378 -10 384 -8 c 2,304,-1
 392 -4 l 1,305,-1
 398 -1 l 1,306,-1
 404 2 l 2,307,308
 405 2 405 2 407 3 c 2,309,-1
 404 3 l 2,310,311
 398 1 398 1 398 1 c 2,312,313
 394 -1 394 -1 391 -1 c 2,314,-1
 384 -4 l 1,315,-1
 374 -7 l 2,270,271
321 493 m 2,316,317
 318 493 318 493 314 490 c 0,318,319
 308 488 308 488 303.5 485.5 c 128,-1,320
 299 483 299 483 294 481 c 0,321,322
 286 478 286 478 279.5 474.5 c 128,-1,323
 273 471 273 471 265 466 c 2,324,-1
 238 446 l 1,325,-1
 209 424 l 2,326,327
 204 419 204 419 198.5 413.5 c 128,-1,328
 193 408 193 408 188 403 c 256,329,330
 183 398 183 398 179 393.5 c 128,-1,331
 175 389 175 389 173 387 c 1,332,333
 174 389 174 389 176.5 390.5 c 128,-1,334
 179 392 179 392 181 394 c 2,335,-1
 188 402 l 2,336,337
 197 411 197 411 211 422 c 0,338,339
 218 428 218 428 225 433.5 c 128,-1,340
 232 439 232 439 239 444 c 0,341,342
 246 450 246 450 253 454.5 c 128,-1,343
 260 459 260 459 268 464 c 0,344,345
 275 469 275 469 281.5 472.5 c 128,-1,346
 288 476 288 476 295 480 c 0,347,348
 299 482 299 482 303 484.5 c 128,-1,349
 307 487 307 487 314 489 c 2,350,-1
 321 493 l 2,316,317
296 -10 m 2,351,352
 296 -9 296 -9 298 -13 c 1,353,-1
 305 -13 l 2,354,355
 309 -15 309 -15 315 -15 c 128,-1,356
 321 -15 321 -15 327 -14 c 0,357,358
 330 -14 330 -14 333.5 -12.5 c 128,-1,359
 337 -11 337 -11 340 -10 c 2,360,-1
 350 -7 l 2,361,362
 356 -5 356 -5 355 -5 c 2,363,-1
 359 -3 l 1,364,365
 359 -3 359 -3 360 -2 c 2,366,-1
 359 -2 l 1,367,-1
 354 -3 l 2,368,369
 352 -3 352 -3 350 -4 c 0,370,371
 344 -4 344 -4 340 -5 c 0,372,373
 334 -7 334 -7 327 -7 c 0,374,375
 324 -8 324 -8 321.5 -8.5 c 128,-1,376
 319 -9 319 -9 316 -9 c 0,377,378
 312 -10 312 -10 309.5 -9.5 c 128,-1,379
 307 -9 307 -9 305 -9 c 0,380,381
 304 -9 304 -9 303.5 -9.5 c 128,-1,382
 303 -10 303 -10 301 -10 c 0,383,384
 298 -10 298 -10 298 -10 c 2,385,386
 297 -11 297 -11 297 -10 c 2,387,-1
 296 -10 l 2,351,352
408 -5 m 1,388,389
 408 -5 408 -5 406 -5 c 0,390,391
 404 -7 404 -7 400 -7 c 2,392,-1
 393 -9 l 2,393,394
 391 -10 391 -10 389.5 -11.5 c 128,-1,395
 388 -13 388 -13 386 -14 c 2,396,-1
 377 -17 l 1,397,-1
 371 -20 l 1,398,-1
 368 -22 l 1,399,-1
 369 -22 l 2,400,401
 370 -22 370 -22 371 -21 c 2,402,-1
 378 -19 l 1,403,-1
 386 -16 l 1,404,-1
 394 -13 l 2,405,406
 396 -11 396 -11 397.5 -10.5 c 128,-1,407
 399 -10 399 -10 401 -9 c 2,408,-1
 407 -6 l 1,409,-1
 408 -5 l 1,388,389
42 158 m 1,410,-1
 39 152 l 2,411,412
 39 146 39 146 40 145 c 2,413,-1
 40 150 l 1,414,-1
 42 158 l 1,410,-1
305 -24 m 1,415,-1
 306 -24 l 2,416,417
 305 -24 305 -24 304 -23 c 2,418,-1
 305 -24 l 1,415,-1
361 -1 m 1,419,420
 360 -1 360 -1 360 -2 c 1,421,422
 360 -1 360 -1 361 -1 c 1,419,420
EndSplineSet
Validated: 37
EndChar

StartChar: R
Encoding: 82 82 17
Width: 411
Flags: W
LayerCount: 2
Fore
SplineSet
348 260 m 0,0,1
 319 239 319 239 290 224 c 128,-1,2
 261 209 261 209 235 198 c 0,3,4
 209 188 209 188 188 182 c 128,-1,5
 167 176 167 176 150 172 c 1,6,7
 157 161 157 161 164 148.5 c 128,-1,8
 171 136 171 136 180 123 c 0,9,10
 186 114 186 114 194.5 100.5 c 128,-1,11
 203 87 203 87 212.5 73.5 c 128,-1,12
 222 60 222 60 233.5 49.5 c 128,-1,13
 245 39 245 39 257 36 c 0,14,15
 270 33 270 33 280 35 c 128,-1,16
 290 37 290 37 298.5 42 c 128,-1,17
 307 47 307 47 314 53.5 c 128,-1,18
 321 60 321 60 330 66 c 0,19,20
 341 73 341 73 349 67.5 c 128,-1,21
 357 62 357 62 360 51 c 128,-1,22
 363 40 363 40 358.5 26 c 128,-1,23
 354 12 354 12 341 2 c 0,24,25
 333 -4 333 -4 325 -8 c 128,-1,26
 317 -12 317 -12 303 -16 c 0,27,28
 287 -21 287 -21 263 -20.5 c 128,-1,29
 239 -20 239 -20 219 -9 c 0,30,31
 177 14 177 14 149.5 55 c 128,-1,32
 122 96 122 96 99 138 c 1,33,34
 88 115 88 115 79.5 93 c 128,-1,35
 71 71 71 71 62 54.5 c 128,-1,36
 53 38 53 38 42 28.5 c 128,-1,37
 31 19 31 19 17 22 c 0,38,39
 6 24 6 24 3 32.5 c 128,-1,40
 0 41 0 41 1.5 52.5 c 128,-1,41
 3 64 3 64 7 76 c 128,-1,42
 11 88 11 88 14 97 c 0,43,44
 19 108 19 108 25 122.5 c 128,-1,45
 31 137 31 137 39 154 c 0,46,47
 44 167 44 167 50.5 180.5 c 128,-1,48
 57 194 57 194 64 209 c 0,49,50
 62 213 62 213 62 214 c 0,51,52
 55 229 55 229 62 243 c 0,53,54
 69 254 69 254 81 250 c 1,55,-1
 83 250 l 1,56,-1
 119 322 l 2,57,58
 130 345 130 345 141 367 c 128,-1,59
 152 389 152 389 163 411 c 0,60,61
 174 431 174 431 183 448.5 c 128,-1,62
 192 466 192 466 202 482 c 1,63,64
 188 480 188 480 176 479.5 c 128,-1,65
 164 479 164 479 153 477 c 0,66,67
 127 473 127 473 114 479.5 c 128,-1,68
 101 486 101 486 100 496.5 c 128,-1,69
 99 507 99 507 109 518 c 128,-1,70
 119 529 119 529 140 535 c 0,71,72
 162 541 162 541 188 542.5 c 128,-1,73
 214 544 214 544 244 545 c 1,74,75
 259 565 259 565 270.5 561.5 c 128,-1,76
 282 558 282 558 287 544 c 1,77,78
 311 543 311 543 337.5 539 c 128,-1,79
 364 535 364 535 393 522 c 0,80,81
 410 514 410 514 427.5 500 c 128,-1,82
 445 486 445 486 454 463 c 0,83,84
 464 440 464 440 461 416.5 c 128,-1,85
 458 393 458 393 449 374 c 0,86,87
 432 336 432 336 404.5 309 c 128,-1,88
 377 282 377 282 348 260 c 0,0,1
143 234 m 2,89,90
 147 235 147 235 154 236.5 c 128,-1,91
 161 238 161 238 172 242 c 0,92,93
 187 247 187 247 206 254 c 128,-1,94
 225 261 225 261 248 272 c 256,95,96
 271 283 271 283 294.5 297.5 c 128,-1,97
 318 312 318 312 341 332 c 256,98,99
 364 352 364 352 381 377 c 128,-1,100
 398 402 398 402 400 424 c 0,101,102
 400 435 400 435 397 441.5 c 128,-1,103
 394 448 394 448 386 455 c 256,104,105
 378 462 378 462 366 467 c 128,-1,106
 354 472 354 472 340 475 c 0,107,108
 324 479 324 479 308 480.5 c 128,-1,109
 292 482 292 482 275 483 c 1,110,111
 275 483 275 483 274 481 c 0,112,113
 268 471 268 471 260.5 459 c 128,-1,114
 253 447 253 447 244 430 c 256,115,116
 235 413 235 413 225 395 c 128,-1,117
 215 377 215 377 204 356 c 2,118,-1
 143 234 l 2,89,90
287 499 m 2,119,120
 285 499 285 499 284 496 c 2,121,-1
 306 494 l 1,122,-1
 335 489 l 2,123,124
 343 488 343 488 349 486.5 c 128,-1,125
 355 485 355 485 362 483 c 2,126,-1
 383 474 l 1,127,-1
 391 470 l 2,128,129
 395 468 395 468 397 466 c 2,130,-1
 398 465 l 2,131,132
 399 465 399 465 399 464.5 c 128,-1,133
 399 464 399 464 400 464 c 2,134,-1
 397 468 l 1,135,-1
 392 472 l 1,136,-1
 385 476 l 2,137,138
 376 481 376 481 364 486.5 c 128,-1,139
 352 492 352 492 336 495 c 0,140,141
 328 497 328 497 321 497.5 c 128,-1,142
 314 498 314 498 307 499 c 2,143,-1
 287 499 l 2,119,120
300 16 m 0,144,145
 298 15 298 15 295 14.5 c 128,-1,146
 292 14 292 14 290 12 c 2,147,-1
 280 9 l 2,148,149
 277 8 277 8 270 8 c 0,150,151
 264 6 264 6 260 6 c 0,152,153
 254 8 254 8 251 8 c 0,154,155
 247 7 247 7 243 9 c 0,156,157
 238 9 238 9 235 10 c 2,158,-1
 230 11 l 2,159,160
 229 11 229 11 227 13 c 2,161,-1
 228 11 l 1,162,-1
 230 10 l 1,163,-1
 235 8 l 1,164,-1
 242 5 l 2,165,166
 244 5 244 5 246 4.5 c 128,-1,167
 248 4 248 4 250 4 c 2,168,-1
 260 2 l 1,169,170
 260 2 260 2 265 2 c 0,171,172
 268 2 268 2 271 3 c 0,173,174
 278 3 278 3 281 4 c 2,175,-1
 291 7 l 1,176,-1
 302 11 l 2,177,178
 308 15 308 15 311 16 c 2,179,-1
 319 21 l 2,180,181
 323 22 323 22 326 25 c 2,182,-1
 332 28 l 2,183,184
 333 29 333 29 334 29 c 2,185,-1
 335 30 l 1,186,-1
 334 30 l 2,187,188
 333 30 333 30 332.5 29.5 c 128,-1,189
 332 29 332 29 331 29 c 0,190,191
 329 29 329 29 326 26 c 0,192,193
 320 24 320 24 318 24 c 2,194,-1
 310 20 l 2,195,196
 306 18 306 18 300 16 c 0,144,145
74 144 m 2,197,198
 76 148 76 148 77.5 151.5 c 128,-1,199
 79 155 79 155 81 159 c 2,200,-1
 84 165 l 1,201,-1
 82 168 l 2,202,203
 82 169 82 169 81.5 169 c 128,-1,204
 81 169 81 169 81 170 c 2,205,-1
 77 161 l 1,206,-1
 70 147 l 1,207,-1
 58 117 l 1,208,-1
 53 103 l 2,209,210
 51 100 51 100 50.5 96.5 c 128,-1,211
 50 93 50 93 49 90 c 2,212,-1
 44 80 l 1,213,-1
 42 72 l 2,214,215
 41 71 41 71 41 69 c 1,216,217
 40 69 40 69 40 67 c 2,218,-1
 41 68 l 1,219,220
 41 68 41 68 43 72 c 2,221,-1
 46 80 l 1,222,-1
 51 90 l 2,223,224
 53 92 53 92 53.5 95 c 128,-1,225
 54 98 54 98 56 101 c 2,226,-1
 62 115 l 1,227,-1
 69 129 l 1,228,-1
 74 144 l 2,197,198
291 512 m 2,229,230
 290 511 290 511 290 507 c 1,231,-1
 296 507 l 2,232,233
 301 507 301 507 306.5 506.5 c 128,-1,234
 312 506 312 506 318 505 c 2,235,-1
 337 502 l 2,236,237
 342 500 342 500 346 500 c 128,-1,238
 350 500 350 500 355 498 c 2,239,-1
 369 494 l 2,240,241
 372 493 372 493 374.5 492 c 128,-1,242
 377 491 377 491 379 490 c 0,243,244
 381 490 381 490 383 488 c 2,245,-1
 383 489 l 1,246,-1
 379 491 l 2,247,248
 377 492 377 492 375 493.5 c 128,-1,249
 373 495 373 495 369 496 c 2,250,-1
 355 501 l 2,251,252
 351 503 351 503 347 503.5 c 128,-1,253
 343 504 343 504 338 505 c 0,254,255
 333 507 333 507 328 507.5 c 128,-1,256
 323 508 323 508 318 509 c 2,257,-1
 296 512 l 1,258,-1
 291 512 l 2,229,230
224 28 m 1,259,260
 224 28 224 28 225 26 c 0,261,262
 227 24 227 24 228 24 c 1,263,264
 228 23 228 23 229 23 c 256,265,266
 230 23 230 23 231 22 c 0,267,268
 233 20 233 20 234 20 c 0,269,270
 238 19 238 19 242.5 17 c 128,-1,271
 247 15 247 15 252 14 c 0,272,273
 256 14 256 14 259 13.5 c 128,-1,274
 262 13 262 13 265 14 c 2,275,-1
 276 17 l 2,276,277
 278 17 278 17 280 19 c 0,278,279
 281 19 281 19 281.5 19.5 c 128,-1,280
 282 20 282 20 283 20 c 0,281,282
 285 22 285 22 285 22 c 1,283,-1
 284 22 l 2,284,285
 284 21 284 21 283 21 c 2,286,-1
 280 21 l 2,287,288
 278 20 278 20 275 20 c 2,289,-1
 265 20 l 2,290,291
 262 19 262 19 259.5 19.5 c 128,-1,292
 257 20 257 20 254 20 c 0,293,294
 250 19 250 19 247 20 c 128,-1,295
 244 21 244 21 241 22 c 2,296,-1
 236 23 l 1,297,-1
 233 24 l 2,298,299
 232 24 232 24 231.5 24.5 c 128,-1,300
 231 25 231 25 229 25 c 2,301,-1
 226 27 l 2,302,303
 225 27 225 27 225 28 c 2,304,-1
 224 28 l 1,259,260
164 506 m 0,305,306
 168 507 168 507 172 507 c 128,-1,307
 176 507 176 507 181 507 c 2,308,-1
 190 507 l 1,309,-1
 193 512 l 2,310,311
 190 512 190 512 187 511.5 c 128,-1,312
 184 511 184 511 182 511 c 2,313,-1
 163 509 l 1,314,-1
 148 507 l 2,315,316
 145 507 145 507 142 506.5 c 128,-1,317
 139 506 139 506 136 506 c 0,318,319
 135 505 135 505 132 505 c 0,320,321
 130 505 130 505 129 504 c 2,322,-1
 136 504 l 2,323,324
 140 505 140 505 148 505 c 0,325,326
 153 506 153 506 164 506 c 0,305,306
136 514 m 0,327,328
 135 513 135 513 134 513 c 2,329,-1
 136 513 l 2,330,331
 139 513 139 513 142 513.5 c 128,-1,332
 145 514 145 514 147 514 c 0,333,334
 151 514 151 514 154.5 514 c 128,-1,335
 158 514 158 514 163 515 c 0,336,337
 170 515 170 515 180 517 c 2,338,-1
 196 517 l 2,339,340
 196 518 196 518 197 519 c 2,341,-1
 180 519 l 1,342,-1
 163 517 l 2,343,344
 158 517 158 517 154.5 516.5 c 128,-1,345
 151 516 151 516 147 516 c 0,346,347
 141 514 141 514 136 514 c 0,327,328
38 83 m 1,348,-1
 43 93 l 2,349,350
 45 97 45 97 47 105 c 2,351,-1
 53 116 l 1,352,-1
 56 127 l 2,353,354
 58 131 58 131 58 133 c 2,355,-1
 57 131 l 1,356,-1
 55 128 l 2,357,358
 53 122 53 122 51 117 c 2,359,-1
 45 106 l 1,360,-1
 41 94 l 1,361,-1
 36 83 l 2,362,363
 36 82 36 82 34 76 c 2,364,-1
 34 73 l 1,365,366
 34 73 34 73 35 75 c 2,367,-1
 38 83 l 1,348,-1
335 21 m 2,368,369
 331 19 331 19 329 19 c 2,370,-1
 321 16 l 1,371,-1
 314 11 l 1,372,-1
 305 8 l 2,373,374
 303 7 303 7 301.5 6 c 128,-1,375
 300 5 300 5 298 4 c 0,376,377
 294 2 294 2 293 2 c 2,378,-1
 295 2 l 2,379,380
 297 2 297 2 298 3 c 2,381,-1
 306 6 l 2,382,383
 308 6 308 6 310 7 c 128,-1,384
 312 8 312 8 314 9 c 2,385,-1
 323 14 l 1,386,-1
 330 17 l 1,387,-1
 335 21 l 2,368,369
91 152 m 2,388,389
 89 154 89 154 89 156 c 2,390,-1
 84 146 l 2,391,392
 84 143 84 143 82 139 c 0,393,394
 82 137 82 137 80 133 c 2,395,-1
 80 130 l 2,396,397
 80 131 80 131 80.5 131 c 128,-1,398
 81 131 81 131 81 132 c 2,399,-1
 84 138 l 1,400,-1
 87 145 l 1,401,-1
 91 152 l 2,388,389
124 228 m 2,402,403
 124 230 124 230 126 234 c 2,404,-1
 126 235 l 1,405,-1
 125 234 l 1,406,-1
 122 229 l 1,407,-1
 123 229 l 1,408,-1
 123 227 l 1,409,-1
 124 228 l 2,402,403
335 21 m 1,410,411
 336 21 336 21 336 21.5 c 128,-1,412
 336 22 336 22 337 22 c 1,413,414
 336 22 336 22 335 21 c 1,410,411
127 237 m 1,415,416
 126 237 126 237 126 236 c 1,417,418
 127 236 127 236 127 237 c 1,415,416
EndSplineSet
Validated: 37
EndChar

StartChar: S
Encoding: 83 83 18
Width: 337
Flags: W
LayerCount: 2
Fore
SplineSet
81 109 m 0,0,1
 52 101 52 101 34 86.5 c 128,-1,2
 16 72 16 72 25 54 c 0,3,4
 29 45 29 45 39 40 c 128,-1,5
 49 35 49 35 60.5 32.5 c 128,-1,6
 72 30 72 30 83.5 30.5 c 128,-1,7
 95 31 95 31 103 33 c 0,8,9
 118 36 118 36 134.5 45 c 128,-1,10
 151 54 151 54 165 67 c 128,-1,11
 179 80 179 80 189 95.5 c 128,-1,12
 199 111 199 111 201 127 c 0,13,14
 203 144 203 144 198 161.5 c 128,-1,15
 193 179 193 179 184 197 c 0,16,17
 175 214 175 214 165.5 234.5 c 128,-1,18
 156 255 156 255 147 276 c 0,19,20
 139 296 139 296 130 320.5 c 128,-1,21
 121 345 121 345 121 374 c 256,22,23
 121 403 121 403 132 430 c 128,-1,24
 143 457 143 457 161 479 c 128,-1,25
 179 501 179 501 203.5 517 c 128,-1,26
 228 533 228 533 257 542 c 0,27,28
 270 546 270 546 286 546.5 c 128,-1,29
 302 547 302 547 316.5 544.5 c 128,-1,30
 331 542 331 542 343.5 535.5 c 128,-1,31
 356 529 356 529 364 519 c 0,32,33
 380 498 380 498 383 475 c 128,-1,34
 386 452 386 452 379.5 432 c 128,-1,35
 373 412 373 412 358.5 396 c 128,-1,36
 344 380 344 380 326 371 c 0,37,38
 303 360 303 360 283.5 367 c 128,-1,39
 264 374 264 374 258 391 c 0,40,41
 256 397 256 397 260 400.5 c 128,-1,42
 264 404 264 404 271 407 c 128,-1,43
 278 410 278 410 287 412.5 c 128,-1,44
 296 415 296 415 304 420 c 0,45,46
 319 429 319 429 325 441 c 128,-1,47
 331 453 331 453 328.5 464 c 128,-1,48
 326 475 326 475 315.5 482.5 c 128,-1,49
 305 490 305 490 289 489 c 0,50,51
 249 486 249 486 227 463 c 128,-1,52
 205 440 205 440 190 406 c 0,53,54
 183 390 183 390 184 373.5 c 128,-1,55
 185 357 185 357 190.5 340 c 128,-1,56
 196 323 196 323 205 305.5 c 128,-1,57
 214 288 214 288 223 270 c 0,58,59
 232 251 232 251 242 231 c 128,-1,60
 252 211 252 211 260 185 c 0,61,62
 267 161 267 161 263 128.5 c 128,-1,63
 259 96 259 96 242 68 c 0,64,65
 224 40 224 40 200.5 23 c 128,-1,66
 177 6 177 6 154 -5 c 0,67,68
 131 -15 131 -15 108 -18.5 c 128,-1,69
 85 -22 85 -22 65 -22 c 0,70,71
 45 -21 45 -21 23 -13.5 c 128,-1,72
 1 -6 1 -6 -13 11 c 0,73,74
 -21 19 -21 19 -25 28 c 128,-1,75
 -29 37 -29 37 -31 48 c 0,76,77
 -35 69 -35 69 -30 87 c 128,-1,78
 -25 105 -25 105 -14 119.5 c 128,-1,79
 -3 134 -3 134 12 142.5 c 128,-1,80
 27 151 27 151 43 153 c 0,81,82
 64 155 64 155 75.5 149 c 128,-1,83
 87 143 87 143 91 134.5 c 128,-1,84
 95 126 95 126 91.5 118.5 c 128,-1,85
 88 111 88 111 81 109 c 0,0,1
112 13 m 0,86,87
 104 11 104 11 101 11 c 2,88,-1
 97 11 l 1,89,90
 97 11 97 11 92 10.5 c 128,-1,91
 87 10 87 10 81.5 9.5 c 128,-1,92
 76 9 76 9 71 9 c 128,-1,93
 66 9 66 9 66 9 c 2,94,95
 50 9 50 9 37 13 c 0,96,97
 30 15 30 15 24.5 18.5 c 128,-1,98
 19 22 19 22 13 25 c 0,99,100
 9 30 9 30 5.5 35 c 128,-1,101
 2 40 2 40 0 45 c 256,102,103
 -2 50 -2 50 -3.5 54 c 128,-1,104
 -5 58 -5 58 -5 62 c 0,105,106
 -6 65 -6 65 -6 69 c 2,107,-1
 -6 73 l 2,108,109
 -6 71 -6 71 -6.5 68.5 c 128,-1,110
 -7 66 -7 66 -7 62 c 256,111,112
 -7 58 -7 58 -5 53.5 c 128,-1,113
 -3 49 -3 49 -1 44 c 0,114,115
 1 35 1 35 12 23 c 0,116,117
 17 20 17 20 22 16 c 128,-1,118
 27 12 27 12 35 10 c 0,119,120
 45 8 45 8 49 6 c 0,121,122
 54 6 54 6 64 4 c 0,123,124
 73 4 73 4 80.5 3.5 c 128,-1,125
 88 3 88 3 96 5 c 0,126,127
 104 6 104 6 111.5 8 c 128,-1,128
 119 10 119 10 127 12 c 0,129,130
 145 17 145 17 159 24 c 0,131,132
 167 29 167 29 174 33.5 c 128,-1,133
 181 38 181 38 187 44 c 0,134,135
 195 49 195 49 200.5 54.5 c 128,-1,136
 206 60 206 60 211 66 c 0,137,138
 216 73 216 73 219.5 78.5 c 128,-1,139
 223 84 223 84 225 91 c 0,140,141
 229 96 229 96 230.5 101.5 c 128,-1,142
 232 107 232 107 234 113 c 0,143,144
 236 118 236 118 236 122.5 c 128,-1,145
 236 127 236 127 236 130 c 0,146,147
 236 131 236 131 236.5 132 c 128,-1,148
 237 133 237 133 237 135 c 2,149,-1
 235 129 l 2,150,151
 235 126 235 126 235 122 c 128,-1,152
 235 118 235 118 233 113 c 2,153,-1
 222 91 l 2,154,155
 220 85 220 85 216.5 80 c 128,-1,156
 213 75 213 75 208 68 c 0,157,158
 203 63 203 63 198 57.5 c 128,-1,159
 193 52 193 52 185 47 c 2,160,161
 185 47 185 47 181 43.5 c 128,-1,162
 177 40 177 40 172 36.5 c 128,-1,163
 167 33 167 33 162.5 30.5 c 128,-1,164
 158 28 158 28 158 28 c 2,165,166
 150 24 150 24 142.5 21.5 c 128,-1,167
 135 19 135 19 127 17 c 0,168,169
 125 17 125 17 122 16 c 0,170,171
 116 14 116 14 112 13 c 0,86,87
242 185 m 2,172,173
 241 185 241 185 241 186 c 1,174,175
 241 185 241 185 242 182 c 128,-1,176
 243 179 243 179 243 176 c 0,177,178
 244 174 244 174 244 171 c 128,-1,179
 244 168 244 168 246 164 c 2,180,-1
 246 157 l 2,181,182
 246 153 246 153 247 150 c 0,183,184
 248 133 248 133 242 109 c 128,-1,185
 236 85 236 85 216 62 c 0,186,187
 199 42 199 42 179 28 c 0,188,189
 169 21 169 21 159.5 16.5 c 128,-1,190
 150 12 150 12 141 8 c 0,191,192
 136 6 136 6 132 4.5 c 128,-1,193
 128 3 128 3 125 2 c 256,194,195
 122 1 122 1 118.5 0.5 c 128,-1,196
 115 0 115 0 113 -2 c 0,197,198
 111 -2 111 -2 109 -3 c 128,-1,199
 107 -4 107 -4 105 -5 c 2,200,-1
 108 -5 l 2,201,202
 109 -4 109 -4 112 -4 c 0,203,204
 117 -2 117 -2 125 0 c 2,205,-1
 142 5 l 2,206,207
 151 8 151 8 161 12 c 128,-1,208
 171 16 171 16 181 23 c 0,209,210
 192 30 192 30 201.5 39 c 128,-1,211
 211 48 211 48 220 59 c 0,212,213
 240 84 240 84 246 107 c 0,214,215
 249 119 249 119 250.5 130 c 128,-1,216
 252 141 252 141 250 150 c 2,217,-1
 248 165 l 2,218,219
 246 169 246 169 244 177 c 0,220,221
 244 179 244 179 243.5 181 c 128,-1,222
 243 183 243 183 243 184 c 2,223,-1
 242 185 l 2,172,173
40 21 m 0,224,225
 34 23 34 23 29 26 c 128,-1,226
 24 29 24 29 19 32 c 0,227,228
 16 37 16 37 13 41 c 128,-1,229
 10 45 10 45 8 50 c 0,230,231
 7 53 7 53 5 56 c 128,-1,232
 3 59 3 59 3 63 c 0,233,234
 3 65 3 65 2.5 66 c 128,-1,235
 2 67 2 67 2 69 c 2,236,-1
 2 64 l 2,237,238
 2 59 2 59 3.5 56 c 128,-1,239
 5 53 5 53 6 49 c 0,240,241
 8 44 8 44 11 39.5 c 128,-1,242
 14 35 14 35 18 30 c 0,243,244
 23 27 23 27 27.5 23.5 c 128,-1,245
 32 20 32 20 38 19 c 0,246,247
 45 17 45 17 51 16 c 128,-1,248
 57 15 57 15 62 14 c 2,249,-1
 83 14 l 1,250,-1
 95 16 l 1,251,-1
 83 16 l 2,252,253
 75 15 75 15 62 16 c 0,254,255
 56 17 56 17 50.5 18 c 128,-1,256
 45 19 45 19 40 21 c 0,224,225
EndSplineSet
Validated: 33
EndChar

StartChar: T
Encoding: 84 84 19
Width: 244
Flags: W
LayerCount: 2
Fore
SplineSet
409 481 m 2,0,1
 392 482 392 482 373.5 482 c 128,-1,2
 355 482 355 482 337 482 c 0,3,4
 325 482 325 482 314 482 c 128,-1,5
 303 482 303 482 292 481 c 1,6,-1
 284 465 l 2,7,8
 276 449 276 449 263.5 420 c 128,-1,9
 251 391 251 391 235.5 352.5 c 128,-1,10
 220 314 220 314 202 269 c 128,-1,11
 184 224 184 224 166 178.5 c 128,-1,12
 148 133 148 133 130 88 c 128,-1,13
 112 43 112 43 96 5 c 0,14,15
 90 -11 90 -11 76.5 -17.5 c 128,-1,16
 63 -24 63 -24 51 -22 c 128,-1,17
 39 -20 39 -20 32 -10.5 c 128,-1,18
 25 -1 25 -1 33 16 c 0,19,20
 57 71 57 71 79.5 126 c 128,-1,21
 102 181 102 181 123.5 236.5 c 128,-1,22
 145 292 145 292 167.5 349 c 128,-1,23
 190 406 190 406 216 466 c 2,24,-1
 222 480 l 2,25,26
 219 480 219 480 209.5 480 c 128,-1,27
 200 480 200 480 189 480.5 c 128,-1,28
 178 481 178 481 168.5 481.5 c 128,-1,29
 159 482 159 482 156 482 c 0,30,31
 142 481 142 481 131.5 480.5 c 128,-1,32
 121 480 121 480 113 480 c 0,33,34
 105 477 105 477 99.5 485 c 128,-1,35
 94 493 94 493 92.5 504 c 128,-1,36
 91 515 91 515 95.5 526 c 128,-1,37
 100 537 100 537 113 542 c 1,38,-1
 117 542 l 2,39,40
 119 542 119 542 122.5 542 c 128,-1,41
 126 542 126 542 131 543 c 0,42,43
 135 543 135 543 147.5 542.5 c 128,-1,44
 160 542 160 542 174 542 c 128,-1,45
 188 542 188 542 201 541.5 c 128,-1,46
 214 541 214 541 221 541 c 0,47,48
 235 542 235 542 251 542 c 128,-1,49
 267 542 267 542 285 542 c 0,50,51
 302 542 302 542 320 542.5 c 128,-1,52
 338 543 338 543 357 543 c 0,53,54
 375 543 375 543 393 542.5 c 128,-1,55
 411 542 411 542 428 542 c 2,56,-1
 490 542 l 2,57,58
 504 542 504 542 515 542.5 c 128,-1,59
 526 543 526 543 534 543 c 2,60,-1
 551 543 l 1,61,62
 559 533 559 533 558.5 521.5 c 128,-1,63
 558 510 558 510 553.5 501 c 128,-1,64
 549 492 549 492 543.5 486 c 128,-1,65
 538 480 538 480 538 480 c 2,66,67
 537 481 537 481 519 481 c 0,68,69
 510 480 510 480 498.5 480.5 c 128,-1,70
 487 481 487 481 473 481 c 2,71,-1
 409 481 l 2,0,1
107 95 m 2,72,73
 109 98 109 98 110 101.5 c 128,-1,74
 111 105 111 105 113 109 c 2,75,-1
 119 123 l 2,76,77
 120 128 120 128 124 136 c 0,78,79
 125 142 125 142 129 148 c 0,80,81
 129 152 129 152 131 158 c 2,82,-1
 134 166 l 2,83,84
 134 168 134 168 135 169 c 2,85,-1
 133 166 l 1,86,-1
 130 159 l 2,87,88
 126 153 126 153 125 149 c 0,89,90
 124 147 124 147 123.5 144 c 128,-1,91
 123 141 123 141 121 138 c 0,92,93
 117 133 117 133 114 125 c 2,94,-1
 109 111 l 2,95,96
 104 103 104 103 103 97 c 2,97,-1
 96 83 l 1,98,-1
 91 69 l 2,99,100
 90 65 90 65 89 62 c 128,-1,101
 88 59 88 59 86 55 c 0,102,103
 84 52 84 52 84 49 c 128,-1,104
 84 46 84 46 83 43 c 0,105,106
 79 37 79 37 78 34 c 2,107,-1
 75 26 l 2,108,109
 74 25 74 25 74 23 c 2,110,-1
 74 22 l 1,111,-1
 74 23 l 1,112,-1
 76 25 l 1,113,-1
 80 33 l 2,114,115
 81 36 81 36 85 42 c 0,116,117
 87 45 87 45 87 47.5 c 128,-1,118
 87 50 87 50 89 53 c 256,119,120
 91 56 91 56 92.5 59.5 c 128,-1,121
 94 63 94 63 96 66 c 0,122,123
 98 70 98 70 98.5 73.5 c 128,-1,124
 99 77 99 77 101 80 c 2,125,-1
 107 95 l 2,72,73
415 516 m 0,126,127
 410 516 410 516 409 515 c 1,128,129
 411 514 411 514 415 514 c 0,130,131
 420 514 420 514 424 513 c 0,132,133
 426 514 426 514 433 514 c 0,134,135
 436 513 436 513 444 513 c 2,136,-1
 456 513 l 2,137,138
 464 513 464 513 468 512 c 2,139,-1
 480 513 l 1,140,-1
 491 513 l 2,141,142
 494 513 494 513 497 513.5 c 128,-1,143
 500 514 500 514 502 514 c 0,144,145
 509 514 509 514 512 515 c 2,146,-1
 520 515 l 2,147,148
 522 515 522 515 523.5 515.5 c 128,-1,149
 525 516 525 516 527 516 c 2,150,-1
 529 516 l 1,151,152
 529 516 529 516 527 517 c 2,153,-1
 520 517 l 2,154,155
 515 517 515 517 512 518 c 2,156,-1
 503 518 l 2,157,158
 500 517 500 517 497.5 517.5 c 128,-1,159
 495 518 495 518 492 518 c 2,160,-1
 468 518 l 2,161,162
 460 518 460 518 456 517 c 2,163,-1
 423 517 l 2,164,165
 421 516 421 516 415 516 c 0,126,127
153 184 m 2,166,167
 151 182 151 182 151 181 c 0,168,169
 149 179 149 179 150 176 c 2,170,-1
 147 170 l 1,171,-1
 130 134 l 2,172,173
 128 129 128 129 126.5 124 c 128,-1,174
 125 119 125 119 123 114 c 0,175,176
 118 103 118 103 117 96 c 0,177,178
 115 90 115 90 115 89 c 0,179,180
 113 85 113 85 113 83 c 0,181,182
 112 82 112 82 112 79 c 1,183,184
 112 80 112 80 112.5 80 c 128,-1,185
 113 80 113 80 113 81 c 2,186,187
 113 81 113 81 114 83 c 2,188,-1
 117 88 l 2,189,190
 117 90 117 90 118 91.5 c 128,-1,191
 119 93 119 93 120 95 c 0,192,193
 122 98 122 98 123.5 102 c 128,-1,194
 125 106 125 106 127 111 c 256,195,196
 129 116 129 116 131 121 c 128,-1,197
 133 126 133 126 135 131 c 256,198,199
 137 136 137 136 139 141 c 128,-1,200
 141 146 141 146 142 151 c 2,201,-1
 149 168 l 2,202,203
 151 174 151 174 151 175 c 0,204,205
 151 179 151 179 153 181 c 2,206,-1
 153 184 l 2,166,167
402 525 m 2,207,208
 409 525 409 525 416.5 524.5 c 128,-1,209
 424 524 424 524 433 524 c 0,210,211
 438 524 438 524 442 524 c 128,-1,212
 446 524 446 524 450 525 c 0,213,214
 454 525 454 525 457.5 525.5 c 128,-1,215
 461 526 461 526 464 526 c 0,216,217
 466 526 466 526 467 526.5 c 128,-1,218
 468 527 468 527 470 527 c 0,219,220
 473 527 473 527 474 528 c 2,221,-1
 475 528 l 2,222,223
 473 529 473 529 470 529 c 2,224,-1
 464 529 l 2,225,226
 460 530 460 530 450 530 c 2,227,-1
 434 530 l 2,228,229
 429 530 429 530 425 529.5 c 128,-1,230
 421 529 421 529 417 529 c 0,231,232
 407 529 407 529 403 528 c 0,233,234
 399 528 399 528 397 527 c 2,235,-1
 391 527 l 1,236,237
 391 527 391 527 390 526 c 2,238,-1
 393 526 l 2,239,240
 394 525 394 525 397 525 c 2,241,-1
 402 525 l 2,207,208
77 46 m 2,242,243
 78 52 78 52 81 57 c 0,244,245
 83 60 83 60 83.5 63 c 128,-1,246
 84 66 84 66 86 68 c 2,247,-1
 89 78 l 2,248,249
 91 86 91 86 91 85 c 2,250,-1
 89 83 l 2,251,252
 89 82 89 82 88.5 81 c 128,-1,253
 88 80 88 80 88 79 c 2,254,-1
 84 69 l 2,255,256
 80 64 80 64 79 58 c 0,257,258
 77 55 77 55 76 52.5 c 128,-1,259
 75 50 75 50 75 47 c 2,260,-1
 70 37 l 2,261,262
 70 36 70 36 68 30 c 0,263,264
 67 29 67 29 67 27 c 2,265,266
 67 27 67 27 68 29 c 2,267,-1
 72 36 l 1,268,-1
 77 46 l 2,242,243
521 508 m 2,269,270
 519 509 519 509 513 509 c 256,271,272
 507 509 507 509 504 508 c 2,273,-1
 486 508 l 2,274,275
 483 507 483 507 481 507 c 2,276,277
 481 507 481 507 483 506 c 2,278,-1
 486 506 l 2,279,280
 488 507 488 507 490 506.5 c 128,-1,281
 492 506 492 506 494 506 c 2,282,-1
 513 506 l 2,283,284
 516 507 516 507 521 507 c 0,285,286
 525 507 525 507 527 508 c 2,287,-1
 521 508 l 2,269,270
135 169 m 1,288,289
 135 169 135 169 136 171 c 0,290,291
 137 172 137 172 137 173 c 2,292,-1
 136 172 l 1,293,-1
 135 169 l 1,288,289
405 515 m 2,294,-1
 403 515 l 2,295,296
 404 516 404 516 405 515 c 2,294,-1
477 528 m 2,297,-1
 476 528 l 2,298,299
 477 529 477 529 477 528 c 2,297,-1
EndSplineSet
Validated: 5
EndChar

StartChar: U
Encoding: 85 85 20
Width: 385
Flags: W
LayerCount: 2
Fore
SplineSet
110 300 m 0,0,1
 95 262 95 262 79.5 219.5 c 128,-1,2
 64 177 64 177 55 129 c 0,3,4
 44 73 44 73 57 51 c 128,-1,5
 70 29 70 29 94.5 31.5 c 128,-1,6
 119 34 119 34 149 57.5 c 128,-1,7
 179 81 179 81 203 116 c 0,8,9
 231 158 231 158 253.5 202 c 128,-1,10
 276 246 276 246 295.5 294.5 c 128,-1,11
 315 343 315 343 333 396.5 c 128,-1,12
 351 450 351 450 371 512 c 0,13,14
 377 531 377 531 390 539.5 c 128,-1,15
 403 548 403 548 414.5 546.5 c 128,-1,16
 426 545 426 545 433 533 c 128,-1,17
 440 521 440 521 434 499 c 0,18,19
 424 462 424 462 406 412 c 128,-1,20
 388 362 388 362 366.5 309.5 c 128,-1,21
 345 257 345 257 321 207 c 128,-1,22
 297 157 297 157 274 120 c 0,23,24
 260 97 260 97 242 74.5 c 128,-1,25
 224 52 224 52 201 32 c 0,26,27
 179 11 179 11 148.5 -4 c 128,-1,28
 118 -19 118 -19 83 -18 c 0,29,30
 74 -17 74 -17 66.5 -16 c 128,-1,31
 59 -15 59 -15 50 -13 c 0,32,33
 39 -11 39 -11 31 -5.5 c 128,-1,34
 23 0 23 0 15 8 c 0,35,36
 0 24 0 24 -4 42.5 c 128,-1,37
 -8 61 -8 61 -9 77 c 0,38,39
 -11 109 -11 109 -6 136.5 c 128,-1,40
 -1 164 -1 164 5 190 c 0,41,42
 21 244 21 244 38.5 287 c 128,-1,43
 56 330 56 330 73 368 c 256,44,45
 90 406 90 406 104 436 c 128,-1,46
 118 466 118 466 129 489 c 0,47,48
 148 533 148 533 150 535 c 0,49,50
 166 548 166 548 177.5 548 c 128,-1,51
 189 548 189 548 195.5 540.5 c 128,-1,52
 202 533 202 533 204 521 c 128,-1,53
 206 509 206 509 203 499 c 2,54,-1
 164 421 l 2,55,56
 153 398 153 398 140 368 c 128,-1,57
 127 338 127 338 110 300 c 0,0,1
62 265 m 2,58,59
 66 273 66 273 68.5 281 c 128,-1,60
 71 289 71 289 75 298 c 2,61,-1
 89 331 l 1,62,-1
 102 362 l 2,63,64
 105 370 105 370 108 377.5 c 128,-1,65
 111 385 111 385 116 393 c 2,66,-1
 126 419 l 2,67,68
 130 425 130 425 132 430.5 c 128,-1,69
 134 436 134 436 136 441 c 2,70,-1
 144 458 l 2,71,72
 146 464 146 464 146 464 c 1,73,-1
 149 469 l 2,74,75
 147 467 147 467 143 459 c 0,76,77
 141 456 141 456 139 451.5 c 128,-1,78
 137 447 137 447 134 442 c 0,79,80
 132 437 132 437 130 431 c 128,-1,81
 128 425 128 425 123 420 c 2,82,-1
 112 395 l 2,83,84
 107 387 107 387 104.5 380 c 128,-1,85
 102 373 102 373 97 364 c 0,86,87
 93 356 93 356 90 348.5 c 128,-1,88
 87 341 87 341 84 333 c 0,89,90
 80 324 80 324 77.5 316 c 128,-1,91
 75 308 75 308 70 300 c 2,92,-1
 56 266 l 1,93,-1
 46 233 l 2,94,95
 42 224 42 224 39.5 216 c 128,-1,96
 37 208 37 208 35 201 c 2,97,-1
 28 174 l 1,98,-1
 23 149 l 2,99,100
 21 144 21 144 21 139.5 c 128,-1,101
 21 135 21 135 20 130 c 2,102,-1
 25 149 l 2,103,104
 27 154 27 154 28 160 c 128,-1,105
 29 166 29 166 31 174 c 2,106,-1
 38 200 l 1,107,-1
 50 232 l 1,108,-1
 62 265 l 2,58,59
5 73 m 0,109,110
 5 72 5 72 5.5 71 c 128,-1,111
 6 70 6 70 6 69 c 1,112,113
 6 70 6 70 6.5 73 c 128,-1,114
 7 76 7 76 6 79 c 0,115,116
 6 82 6 82 6 85.5 c 128,-1,117
 6 89 6 89 7 94 c 2,118,-1
 7 110 l 2,119,120
 10 130 10 130 15 153 c 128,-1,121
 20 176 20 176 28 202 c 0,122,123
 33 215 33 215 36 226.5 c 128,-1,124
 39 238 39 238 43 249 c 256,125,126
 47 260 47 260 50.5 270.5 c 128,-1,127
 54 281 54 281 56 289 c 0,128,129
 58 295 58 295 60 299 c 128,-1,130
 62 303 62 303 63 306 c 0,131,132
 65 310 65 310 66 313 c 128,-1,133
 67 316 67 316 68 319 c 0,134,135
 68 320 68 320 68.5 321 c 128,-1,136
 69 322 69 322 69 323 c 1,137,138
 67 321 67 321 67 320 c 0,139,140
 66 317 66 317 64.5 314 c 128,-1,141
 63 311 63 311 61 307 c 2,142,-1
 55 292 l 2,143,144
 50 283 50 283 46 273 c 128,-1,145
 42 263 42 263 39 252 c 0,146,147
 34 241 34 241 30.5 228.5 c 128,-1,148
 27 216 27 216 22 204 c 2,149,-1
 10 155 l 2,150,151
 8 143 8 143 6 132 c 128,-1,152
 4 121 4 121 3 110 c 0,153,154
 2 105 2 105 2.5 101 c 128,-1,155
 3 97 3 97 3 93 c 0,156,157
 3 82 3 82 5 78 c 0,158,159
 7 75 7 75 5 73 c 0,109,110
153 461 m 2,160,161
 153 461 153 461 151 455 c 2,162,-1
 143 439 l 1,163,-1
 131 417 l 2,164,165
 129 410 129 410 126.5 404 c 128,-1,166
 124 398 124 398 122 392 c 2,167,-1
 108 366 l 1,168,-1
 99 344 l 1,169,-1
 94 329 l 1,170,-1
 97 335 l 1,171,-1
 101 343 l 2,172,173
 103 348 103 348 105 353.5 c 128,-1,174
 107 359 107 359 111 365 c 0,175,176
 115 372 115 372 117.5 378 c 128,-1,177
 120 384 120 384 123 391 c 2,178,-1
 134 416 l 2,179,180
 137 422 137 422 139.5 428 c 128,-1,181
 142 434 142 434 144 439 c 2,182,-1
 151 454 l 2,183,184
 153 460 153 460 153 461 c 2,160,161
20 130 m 2,185,186
 19 127 19 127 19 121 c 2,187,-1
 20 124 l 1,188,-1
 20 130 l 2,185,186
69 326 m 1,189,-1
 69 324 l 1,190,-1
 69 326 l 1,189,-1
EndSplineSet
Validated: 37
EndChar

StartChar: V
Encoding: 86 86 21
Width: 337
Flags: W
LayerCount: 2
Fore
SplineSet
154 489 m 0,0,1
 142 434 142 434 126 368 c 128,-1,2
 110 302 110 302 104 237 c 0,3,4
 99 173 99 173 98.5 141.5 c 128,-1,5
 98 110 98 110 104.5 107 c 128,-1,6
 111 104 111 104 125.5 128.5 c 128,-1,7
 140 153 140 153 166 201 c 0,8,9
 210 279 210 279 252 357 c 128,-1,10
 294 435 294 435 339 514 c 0,11,12
 348 534 348 534 361 534.5 c 128,-1,13
 374 535 374 535 383 523.5 c 128,-1,14
 392 512 392 512 394 492.5 c 128,-1,15
 396 473 396 473 383 452 c 0,16,17
 345 377 345 377 299.5 305 c 128,-1,18
 254 233 254 233 211 151 c 2,19,-1
 167 74 l 1,20,-1
 140 20 l 2,21,22
 135 11 135 11 128.5 2.5 c 128,-1,23
 122 -6 122 -6 114 -11 c 128,-1,24
 106 -16 106 -16 97.5 -16.5 c 128,-1,25
 89 -17 89 -17 79 -10 c 0,26,27
 66 7 66 7 58.5 29.5 c 128,-1,28
 51 52 51 52 46 77 c 0,29,30
 43 97 43 97 42 119 c 128,-1,31
 41 141 41 141 41 167 c 0,32,33
 43 215 43 215 45 262.5 c 128,-1,34
 47 310 47 310 60 366 c 1,35,36
 64 402 64 402 72 436.5 c 128,-1,37
 80 471 80 471 85 508 c 0,38,39
 91 533 91 533 104.5 542.5 c 128,-1,40
 118 552 118 552 131 548.5 c 128,-1,41
 144 545 144 545 152 529.5 c 128,-1,42
 160 514 160 514 154 489 c 0,0,1
114 496 m 0,43,44
 115 499 115 499 114.5 500.5 c 128,-1,45
 114 502 114 502 115 504 c 0,46,47
 115 505 115 505 115.5 505.5 c 128,-1,48
 116 506 116 506 116 507 c 1,49,50
 115 507 115 507 115 508 c 2,51,-1
 113 504 l 2,52,53
 114 503 114 503 112 497 c 0,54,55
 112 493 112 493 110.5 490.5 c 128,-1,56
 109 488 109 488 108 485 c 0,57,58
 108 482 108 482 106 479 c 128,-1,59
 104 476 104 476 106 473 c 0,60,61
 104 468 104 468 103.5 464.5 c 128,-1,62
 103 461 103 461 101 457 c 0,63,64
 101 453 101 453 100.5 449 c 128,-1,65
 100 445 100 445 99 440 c 2,66,-1
 96 425 l 2,67,68
 96 420 96 420 93 413 c 128,-1,69
 90 406 90 406 90 402 c 0,70,71
 88 398 88 398 88 394 c 128,-1,72
 88 390 88 390 87 385 c 2,73,-1
 84 371 l 2,74,75
 85 366 85 366 84.5 363 c 128,-1,76
 84 360 84 360 83 357 c 0,77,78
 85 354 85 354 84 351.5 c 128,-1,79
 83 349 83 349 83 346 c 0,80,81
 81 340 81 340 82 337 c 2,82,-1
 83 338 l 2,83,84
 83 343 83 343 84 346 c 0,85,86
 85 348 85 348 86 351 c 128,-1,87
 87 354 87 354 86 357 c 0,88,89
 88 365 88 365 88 370 c 0,90,91
 90 374 90 374 90 377.5 c 128,-1,92
 90 381 90 381 91 385 c 2,93,-1
 93 401 l 2,94,95
 95 406 95 406 98 412.5 c 128,-1,96
 101 419 101 419 101 424 c 2,97,-1
 107 456 l 2,98,99
 107 463 107 463 110 472 c 0,100,101
 110 475 110 475 111 478.5 c 128,-1,102
 112 482 112 482 111 485 c 0,103,104
 111 488 111 488 112.5 490.5 c 128,-1,105
 114 493 114 493 114 496 c 0,43,44
149 100 m 1,106,-1
 141 85 l 2,107,108
 136 77 136 77 136 71 c 1,109,110
 129 65 129 65 127 58 c 2,111,-1
 123 49 l 2,112,113
 122 47 122 47 120 46 c 2,114,115
 120 46 120 46 122 44 c 1,116,117
 122 46 122 46 122.5 46.5 c 128,-1,118
 123 47 123 47 123 48 c 2,119,-1
 130 57 l 2,120,121
 132 61 132 61 138 69 c 0,122,123
 140 76 140 76 144 82 c 0,124,125
 146 87 146 87 148.5 90.5 c 128,-1,126
 151 94 151 94 153 97 c 2,127,-1
 161 113 l 2,128,129
 162 116 162 116 164 119.5 c 128,-1,130
 166 123 166 123 168 127 c 0,131,132
 170 136 170 136 176 142 c 0,133,134
 178 146 178 146 179.5 149 c 128,-1,135
 181 152 181 152 181 155 c 0,136,137
 185 160 185 160 186 163 c 128,-1,138
 187 166 187 166 188 168 c 0,139,140
 190 171 190 171 191 173.5 c 128,-1,141
 192 176 192 176 194 178 c 0,142,143
 194 182 194 182 195 183.5 c 128,-1,144
 196 185 196 185 197 187 c 2,145,146
 197 187 197 187 196 188 c 2,147,-1
 196 187 l 2,148,149
 195 185 195 185 194 183.5 c 128,-1,150
 193 182 193 182 192 179 c 0,151,152
 190 177 190 177 188.5 174.5 c 128,-1,153
 187 172 187 172 184 169 c 0,154,155
 185 167 185 167 183 164 c 128,-1,156
 181 161 181 161 179 157 c 0,157,158
 178 152 178 152 170 144 c 2,159,-1
 163 129 l 2,160,161
 161 125 161 125 160 122 c 128,-1,162
 159 119 159 119 155 115 c 2,163,-1
 149 100 l 1,106,-1
86 419 m 0,164,165
 88 424 88 424 86 428 c 0,166,167
 88 430 88 430 87.5 431 c 128,-1,168
 87 432 87 432 87 434 c 2,169,-1
 87 436 l 2,170,171
 85 434 85 434 87 434 c 1,172,173
 86 433 86 433 86 431.5 c 128,-1,174
 86 430 86 430 83 428 c 0,175,176
 84 426 84 426 84 420 c 0,177,178
 82 415 82 415 79.5 407.5 c 128,-1,179
 77 400 77 400 76 395 c 0,180,181
 75 389 75 389 73.5 383.5 c 128,-1,182
 72 378 72 378 71 372 c 256,183,184
 70 366 70 366 69 360 c 128,-1,185
 68 354 68 354 69 349 c 0,186,187
 68 344 68 344 67 339.5 c 128,-1,188
 66 335 66 335 66 330 c 0,189,190
 67 328 67 328 67 326 c 128,-1,191
 67 324 67 324 69 322 c 1,192,193
 67 320 67 320 67 318.5 c 128,-1,194
 67 317 67 317 67 316 c 1,195,196
 68 317 68 317 68 318 c 128,-1,197
 68 319 68 319 69 321 c 2,198,-1
 69 330 l 2,199,200
 71 338 71 338 73.5 348 c 128,-1,201
 76 358 76 358 77 371 c 2,202,-1
 82 394 l 2,203,204
 80 399 80 399 82.5 407 c 128,-1,205
 85 415 85 415 86 419 c 0,164,165
212 191 m 2,206,207
 207 183 207 183 201 173.5 c 128,-1,208
 195 164 195 164 191 153 c 0,209,210
 187 148 187 148 183.5 142.5 c 128,-1,211
 180 137 180 137 178 132 c 256,212,213
 176 127 176 127 174.5 122.5 c 128,-1,214
 173 118 173 118 172 114 c 0,215,216
 170 112 170 112 169 110 c 128,-1,217
 168 108 168 108 166 106 c 0,218,219
 167 104 167 104 166 103 c 128,-1,220
 165 102 165 102 166 100 c 0,221,222
 164 98 164 98 164 98 c 1,223,-1
 166 100 l 2,224,225
 166 101 166 101 168 105 c 0,226,227
 172 109 172 109 174 113 c 2,228,-1
 183 129 l 2,229,230
 187 135 187 135 189 140 c 128,-1,231
 191 145 191 145 195 150 c 0,232,233
 197 155 197 155 199 160.5 c 128,-1,234
 201 166 201 166 204 171 c 2,235,-1
 213 189 l 2,236,237
 219 193 219 193 216 196 c 0,238,239
 216 198 216 198 219 201 c 0,240,241
 221 203 221 203 220 203 c 2,242,-1
 220 205 l 2,243,244
 218 203 218 203 218 201 c 2,245,-1
 214 197 l 1,246,-1
 212 191 l 2,206,207
122 495 m 0,247,248
 122 497 122 497 122.5 499 c 128,-1,249
 123 501 123 501 123 503 c 1,250,251
 122 503 122 503 122 505 c 2,252,253
 122 505 122 505 123 503 c 0,254,255
 121 501 121 501 121 496 c 0,256,257
 120 492 120 492 119 489.5 c 128,-1,258
 118 487 118 487 117 484 c 0,259,260
 118 481 118 481 116.5 478 c 128,-1,261
 115 475 115 475 115 471 c 0,262,263
 115 466 115 466 113 458 c 0,264,265
 112 455 112 455 111.5 452.5 c 128,-1,266
 111 450 111 450 111 446 c 0,267,268
 111 444 111 444 110.5 442 c 128,-1,269
 110 440 110 440 110 439 c 1,270,271
 110 440 110 440 112 442 c 2,272,-1
 112 446 l 2,273,274
 112 449 112 449 113.5 452 c 128,-1,275
 115 455 115 455 115 458 c 0,276,277
 117 466 117 466 117 471 c 0,278,279
 119 474 119 474 118.5 477 c 128,-1,280
 118 480 118 480 120 483 c 0,281,282
 122 491 122 491 122 495 c 0,247,248
120 62 m 0,283,284
 120 60 120 60 118.5 58.5 c 128,-1,285
 117 57 117 57 117 55 c 2,286,-1
 117 53 l 2,287,288
 119 55 119 55 119.5 57 c 128,-1,289
 120 59 120 59 122 61 c 0,290,291
 124 65 124 65 125.5 67.5 c 128,-1,292
 127 70 127 70 127 73 c 0,293,294
 130 76 130 76 132 79 c 128,-1,295
 134 82 134 82 136 84 c 0,296,297
 135 88 135 88 136.5 90.5 c 128,-1,298
 138 93 138 93 138 95 c 2,299,-1
 141 100 l 2,300,301
 139 99 139 99 139 98 c 128,-1,302
 139 97 139 97 138 96 c 2,303,-1
 134 85 l 1,304,-1
 125 74 l 2,305,306
 125 71 125 71 123 68.5 c 128,-1,307
 121 66 121 66 120 62 c 0,283,284
196 188 m 2,308,309
 196 189 196 189 201 192 c 1,310,311
 200 192 200 192 200 192.5 c 128,-1,312
 200 193 200 193 201 193 c 2,313,-1
 200 193 l 1,314,-1
 197 190 l 1,315,-1
 196 188 l 2,308,309
67 312 m 1,316,-1
 67 315 l 1,317,-1
 67 316 l 1,318,-1
 67 313 l 1,319,-1
 67 312 l 1,316,-1
80 332 m 2,320,321
 79 331 79 331 79 330 c 2,322,-1
 80 332 l 2,320,321
82 336 m 2,323,324
 81 336 81 336 81 335 c 2,325,-1
 82 336 l 2,323,324
141 101 m 1,326,-1
 141 100 l 1,327,-1
 141 101 l 1,326,-1
EndSplineSet
Validated: 37
EndChar

StartChar: W
Encoding: 87 87 22
Width: 530
Flags: W
LayerCount: 2
Fore
SplineSet
100 -2 m 0,0,1
 74 -4 74 -4 62 6 c 128,-1,2
 50 16 50 16 47.5 32 c 128,-1,3
 45 48 45 48 49 69 c 128,-1,4
 53 90 53 90 59 111 c 2,5,-1
 83 194 l 2,6,7
 91 218 91 218 98 242.5 c 128,-1,8
 105 267 105 267 113 290 c 0,9,10
 130 344 130 344 147.5 396.5 c 128,-1,11
 165 449 165 449 183 506 c 0,12,13
 191 532 191 532 204.5 540.5 c 128,-1,14
 218 549 218 549 230 545.5 c 128,-1,15
 242 542 242 542 250 530.5 c 128,-1,16
 258 519 258 519 254 506 c 0,17,18
 252 500 252 500 248 488.5 c 128,-1,19
 244 477 244 477 238.5 463.5 c 128,-1,20
 233 450 233 450 228 436.5 c 128,-1,21
 223 423 223 423 220 414 c 0,22,23
 211 390 211 390 196 348.5 c 128,-1,24
 181 307 181 307 166 263.5 c 128,-1,25
 151 220 151 220 139.5 183.5 c 128,-1,26
 128 147 128 147 125 135 c 0,27,28
 124 132 124 132 124 128.5 c 128,-1,29
 124 125 124 125 125 123 c 128,-1,30
 126 121 126 121 128 121.5 c 128,-1,31
 130 122 130 122 133 127 c 0,32,33
 148 153 148 153 166 186.5 c 128,-1,34
 184 220 184 220 203.5 256 c 128,-1,35
 223 292 223 292 242 327.5 c 128,-1,36
 261 363 261 363 277.5 392 c 128,-1,37
 294 421 294 421 306 441 c 128,-1,38
 318 461 318 461 323 466 c 0,39,40
 331 473 331 473 342.5 476 c 128,-1,41
 354 479 354 479 364.5 476 c 128,-1,42
 375 473 375 473 382.5 464 c 128,-1,43
 390 455 390 455 391 439 c 0,44,45
 392 415 392 415 391.5 378.5 c 128,-1,46
 391 342 391 342 390 303 c 128,-1,47
 389 264 389 264 387 227 c 128,-1,48
 385 190 385 190 383 165 c 0,49,50
 381 144 381 144 382 137.5 c 128,-1,51
 383 131 383 131 386.5 136 c 128,-1,52
 390 141 390 141 395.5 155.5 c 128,-1,53
 401 170 401 170 410 191 c 0,54,55
 445 278 445 278 472.5 362.5 c 128,-1,56
 500 447 500 447 530 522 c 0,57,58
 538 541 538 541 549 545.5 c 128,-1,59
 560 550 560 550 569 544 c 128,-1,60
 578 538 578 538 582.5 524.5 c 128,-1,61
 587 511 587 511 582 495 c 0,62,63
 566 448 566 448 544.5 387.5 c 128,-1,64
 523 327 523 327 500 263 c 128,-1,65
 477 199 477 199 453.5 137 c 128,-1,66
 430 75 430 75 411 25 c 0,67,68
 402 2 402 2 387 -9 c 128,-1,69
 372 -20 372 -20 357.5 -18.5 c 128,-1,70
 343 -17 343 -17 332 -1.5 c 128,-1,71
 321 14 321 14 320 44 c 0,72,73
 320 71 320 71 320.5 112.5 c 128,-1,74
 321 154 321 154 322.5 197 c 128,-1,75
 324 240 324 240 327 278 c 128,-1,76
 330 316 330 316 333 337 c 0,77,78
 336 364 336 364 331 365 c 128,-1,79
 326 366 326 366 315 346 c 0,80,81
 311 338 311 338 297 309.5 c 128,-1,82
 283 281 283 281 264 242.5 c 128,-1,83
 245 204 245 204 222 161 c 128,-1,84
 199 118 199 118 176.5 82 c 128,-1,85
 154 46 154 46 134 22.5 c 128,-1,86
 114 -1 114 -1 100 -2 c 0,0,1
185 425 m 1,87,-1
 181 409 l 2,88,89
 179 404 179 404 178 400.5 c 128,-1,90
 177 397 177 397 176 393 c 0,91,92
 174 389 174 389 173.5 385.5 c 128,-1,93
 173 382 173 382 171 379 c 0,94,95
 170 375 170 375 170 372 c 128,-1,96
 170 369 170 369 168 365 c 0,97,98
 168 363 168 363 167 360 c 128,-1,99
 166 357 166 357 165 355 c 0,100,101
 163 350 163 350 164 345 c 1,102,-1
 162 343 l 1,103,-1
 164 345 l 1,104,-1
 166 354 l 2,105,106
 170 360 170 360 171 364 c 256,107,108
 172 368 172 368 173 371 c 128,-1,109
 174 374 174 374 173 377 c 0,110,111
 175 380 175 380 176.5 384 c 128,-1,112
 178 388 178 388 180 391 c 2,113,-1
 185 407 l 2,114,115
 186 411 186 411 187 414.5 c 128,-1,116
 188 418 188 418 190 423 c 2,117,-1
 195 437 l 1,118,-1
 199 453 l 2,119,120
 201 457 201 457 201.5 461 c 128,-1,121
 202 465 202 465 204 468 c 2,122,-1
 207 482 l 2,123,124
 208 484 208 484 208.5 487 c 128,-1,125
 209 490 209 490 211 492 c 0,126,127
 212 494 212 494 211.5 496.5 c 128,-1,128
 211 499 211 499 212 501 c 0,129,130
 212 502 212 502 212.5 502.5 c 128,-1,131
 213 503 213 503 213 504 c 2,132,133
 213 504 213 504 214 506 c 1,134,135
 213 506 213 506 213 505 c 0,136,137
 212 504 212 504 212 503.5 c 128,-1,138
 212 503 212 503 211 502 c 0,139,140
 210 500 210 500 209.5 498 c 128,-1,141
 209 496 209 496 210 493 c 0,142,143
 205 487 205 487 204 483 c 0,144,145
 202 477 202 477 199 470 c 0,146,147
 199 467 199 467 198 463.5 c 128,-1,148
 197 460 197 460 197 455 c 0,149,150
 194 452 194 452 193 448.5 c 128,-1,151
 192 445 192 445 190 440 c 2,152,-1
 185 425 l 1,87,-1
527 423 m 1,153,-1
 522 408 l 1,154,-1
 518 392 l 2,155,156
 517 387 517 387 513 377 c 0,157,158
 513 374 513 374 512 371 c 128,-1,159
 511 368 511 368 509 364 c 0,160,161
 509 360 509 360 507 354 c 0,162,163
 506 352 506 352 506 349.5 c 128,-1,164
 506 347 506 347 506 345 c 1,165,166
 508 347 508 347 507.5 349 c 128,-1,167
 507 351 507 351 508 353 c 0,168,169
 512 359 512 359 512 363 c 0,170,171
 514 367 514 367 515 369.5 c 128,-1,172
 516 372 516 372 516 376 c 0,173,174
 518 379 518 379 519.5 382 c 128,-1,175
 521 385 521 385 521 390 c 2,176,-1
 526 405 l 2,177,178
 528 409 528 409 529 412.5 c 128,-1,179
 530 416 530 416 532 420 c 2,180,-1
 535 435 l 1,181,-1
 539 451 l 1,182,-1
 544 467 l 2,183,184
 544 470 544 470 545 473 c 128,-1,185
 546 476 546 476 548 481 c 0,186,187
 549 485 549 485 548 490 c 0,188,189
 550 493 550 493 550 495 c 128,-1,190
 550 497 550 497 551 499 c 2,191,-1
 551 501 l 1,192,-1
 552 502 l 2,193,194
 550 503 550 503 552 505 c 1,195,196
 550 503 550 503 549 500 c 0,197,198
 548 498 548 498 548.5 495.5 c 128,-1,199
 549 493 549 493 547 491 c 0,200,201
 546 489 546 489 546.5 486.5 c 128,-1,202
 547 484 547 484 545 482 c 0,203,204
 543 478 543 478 541.5 474.5 c 128,-1,205
 540 471 540 471 540 468 c 0,206,207
 539 465 539 465 538 461 c 128,-1,208
 537 457 537 457 535 454 c 0,209,210
 532 446 532 446 532 438 c 2,211,-1
 527 423 l 1,153,-1
138 88 m 2,212,213
 141 90 141 90 142.5 93.5 c 128,-1,214
 144 97 144 97 147 102 c 0,215,216
 149 105 149 105 151.5 108.5 c 128,-1,217
 154 112 154 112 156 117 c 0,218,219
 160 124 160 124 162 132 c 2,220,-1
 172 148 l 2,221,222
 173 152 173 152 174.5 156.5 c 128,-1,223
 176 161 176 161 178 165 c 0,224,225
 183 170 183 170 186 180 c 2,226,-1
 193 191 l 2,227,228
 194 196 194 196 195 198.5 c 128,-1,229
 196 201 196 201 197 204 c 0,230,231
 199 206 199 206 199 208 c 128,-1,232
 199 210 199 210 201 212 c 2,233,234
 201 212 201 212 202 214 c 2,235,-1
 200 212 l 2,236,237
 197 209 197 209 196 205 c 2,238,-1
 190 193 l 1,239,-1
 183 181 l 1,240,-1
 175 167 l 1,241,-1
 168 151 l 1,242,-1
 159 135 l 1,243,-1
 150 120 l 1,244,-1
 143 105 l 2,245,246
 139 99 139 99 138 95 c 0,247,248
 138 92 138 92 137 89 c 128,-1,249
 136 86 136 86 135 82 c 2,250,-1
 138 88 l 2,212,213
215 214 m 2,251,252
 210 207 210 207 204 197 c 128,-1,253
 198 187 198 187 192 174 c 2,254,-1
 181 152 l 1,255,-1
 173 133 l 1,256,-1
 170 125 l 1,257,-1
 168 118 l 1,258,-1
 166 114 l 1,259,-1
 167 115 l 2,260,261
 167 117 167 117 169 117 c 1,262,263
 168 119 168 119 169.5 120.5 c 128,-1,264
 171 122 171 122 172 124 c 256,265,266
 173 126 173 126 174 127 c 128,-1,267
 175 128 175 128 175 130 c 0,268,269
 177 135 177 135 180.5 139.5 c 128,-1,270
 184 144 184 144 186 150 c 0,271,272
 188 155 188 155 191 160.5 c 128,-1,273
 194 166 194 166 199 171 c 0,274,275
 201 181 201 181 208 194 c 2,276,-1
 216 213 l 2,277,278
 218 216 218 216 219 217.5 c 128,-1,279
 220 219 220 219 220 221 c 0,280,281
 220 225 220 225 222 227 c 0,282,283
 222 228 222 228 223 229 c 2,284,-1
 222 231 l 2,285,286
 222 229 222 229 221 228 c 2,287,-1
 217 223 l 1,288,-1
 215 214 l 2,251,252
488 325 m 1,289,-1
 488 326 l 1,290,291
 488 326 488 326 489 328 c 2,292,-1
 493 334 l 1,293,-1
 494 341 l 2,294,295
 496 349 496 349 499.5 358.5 c 128,-1,296
 503 368 503 368 507 381 c 0,297,298
 509 387 509 387 510 392 c 128,-1,299
 511 397 511 397 513 402 c 0,300,301
 515 408 515 408 515 412.5 c 128,-1,302
 515 417 515 417 518 421 c 0,303,304
 518 424 518 424 518.5 426 c 128,-1,305
 519 428 519 428 519 430 c 0,306,307
 521 433 521 433 519 435 c 2,308,-1
 520 436 l 2,309,310
 519 436 519 436 517 431 c 0,311,312
 517 428 517 428 515 424 c 2,313,-1
 508 406 l 2,314,315
 506 400 506 400 504.5 395 c 128,-1,316
 503 390 503 390 503 384 c 0,317,318
 499 374 499 374 496 361 c 0,319,320
 492 353 492 353 492 342 c 1,321,322
 488 338 488 338 491 335 c 2,323,-1
 488 328 l 2,324,325
 489 327 489 327 488 326 c 2,326,-1
 488 325 l 1,289,-1
145 326 m 2,327,328
 145 325 145 325 147 329 c 0,329,330
 147 331 147 331 149 335 c 2,331,-1
 151 342 l 2,332,333
 154 350 154 350 157.5 359.5 c 128,-1,334
 161 369 161 369 166 381 c 0,335,336
 167 388 167 388 168.5 393 c 128,-1,337
 170 398 170 398 171 403 c 0,338,339
 172 409 172 409 173 413.5 c 128,-1,340
 174 418 174 418 176 423 c 0,341,342
 178 429 178 429 178 431 c 0,343,344
 178 435 178 435 179 437 c 2,345,-1
 176 432 l 2,346,347
 175 430 175 430 175 428.5 c 128,-1,348
 175 427 175 427 173 425 c 2,349,-1
 167 407 l 1,350,-1
 160 384 l 2,351,352
 158 379 158 379 157.5 373.5 c 128,-1,353
 157 368 157 368 155 362 c 0,354,355
 153 357 153 357 150.5 352.5 c 128,-1,356
 148 348 148 348 147 343 c 0,357,358
 145 338 145 338 146 336 c 0,359,360
 147 333 147 333 146 329 c 0,361,362
 146 328 146 328 145 327 c 2,363,-1
 145 326 l 2,327,328
554 488 m 2,364,365
 555 484 555 484 552 476 c 2,366,-1
 549 465 l 1,367,-1
 544 452 l 2,368,369
 544 448 544 448 543.5 445.5 c 128,-1,370
 543 443 543 443 542 440 c 2,371,-1
 542 435 l 2,372,373
 544 437 544 437 543 439 c 0,374,375
 544 442 544 442 545 445.5 c 128,-1,376
 546 449 546 449 546 451 c 0,377,378
 549 455 549 455 551 464 c 0,379,380
 552 467 552 467 552 470 c 128,-1,381
 552 473 552 473 554 475 c 0,382,383
 557 483 557 483 556 487 c 0,384,385
 556 489 556 489 559 494 c 0,386,387
 560 495 560 495 559 496 c 128,-1,388
 558 497 558 497 558 498 c 1,389,390
 558 496 558 496 559 495 c 2,391,-1
 554 488 l 2,364,365
218 498 m 0,392,393
 219 494 219 494 216 489 c 0,394,395
 214 485 214 485 212 479 c 0,396,397
 211 475 211 475 210 472 c 128,-1,398
 209 469 209 469 209 466 c 0,399,400
 207 463 207 463 206.5 459.5 c 128,-1,401
 206 456 206 456 204 454 c 2,402,-1
 201 443 l 2,403,404
 201 439 201 439 199 435 c 1,405,406
 201 437 201 437 201 438 c 0,407,408
 203 440 203 440 202 443 c 0,409,410
 204 445 204 445 204 447.5 c 128,-1,411
 204 450 204 450 206 453 c 256,412,413
 208 456 208 456 208.5 459.5 c 128,-1,414
 209 463 209 463 211 466 c 2,415,-1
 214 477 l 2,416,417
 216 481 216 481 216 483.5 c 128,-1,418
 216 486 216 486 217 488 c 256,419,420
 218 490 218 490 219 492 c 128,-1,421
 220 494 220 494 219 497 c 0,422,423
 219 498 219 498 219.5 498.5 c 128,-1,424
 220 499 220 499 220 500 c 2,425,426
 220 500 220 500 218 498 c 0,392,393
504 338 m 1,427,-1
 504 340 l 1,428,-1
 504 339 l 2,429,430
 503 338 503 338 503 337 c 2,431,-1
 504 338 l 1,427,-1
161 340 m 1,432,-1
 162 342 l 2,433,434
 161 342 161 342 161 341 c 2,435,-1
 161 340 l 1,432,-1
180 439 m 2,436,437
 179 437 179 437 179 437 c 2,438,439
 180 439 180 439 180 439 c 2,436,437
181 442 m 1,440,441
 180 440 180 440 180 439 c 1,442,443
 180 440 180 440 181 442 c 1,440,441
204 217 m 1,444,-1
 205 218 l 1,445,-1
 205 219 l 1,446,-1
 204 217 l 1,444,-1
521 438 m 2,447,448
 520 436 520 436 520 436 c 2,449,450
 521 438 521 438 521 438 c 2,447,448
EndSplineSet
Validated: 37
EndChar

StartChar: X
Encoding: 88 88 23
Width: 390
Flags: W
LayerCount: 2
Fore
SplineSet
401 518 m 0,0,1
 414 536 414 536 427 537 c 128,-1,2
 440 538 440 538 448 529 c 128,-1,3
 456 520 456 520 457 504.5 c 128,-1,4
 458 489 458 489 447 476 c 0,5,6
 419 440 419 440 387 405.5 c 128,-1,7
 355 371 355 371 320 329 c 0,8,9
 309 315 309 315 298.5 302 c 128,-1,10
 288 289 288 289 278 275 c 1,11,-1
 285 181 l 2,12,13
 286 166 286 166 288 138.5 c 128,-1,14
 290 111 290 111 290 81.5 c 128,-1,15
 290 52 290 52 286 26.5 c 128,-1,16
 282 1 282 1 269 -10 c 0,17,18
 259 -19 259 -19 250.5 -19.5 c 128,-1,19
 242 -20 242 -20 236 -14.5 c 128,-1,20
 230 -9 230 -9 227 0.5 c 128,-1,21
 224 10 224 10 224 21 c 0,22,23
 225 43 225 43 225 68.5 c 128,-1,24
 225 94 225 94 224 118.5 c 128,-1,25
 223 143 223 143 221 164 c 128,-1,26
 219 185 219 185 216 197 c 1,27,28
 206 186 206 186 197.5 174.5 c 128,-1,29
 189 163 189 163 180 152 c 0,30,31
 163 130 163 130 147.5 111 c 128,-1,32
 132 92 132 92 119 75 c 0,33,34
 105 58 105 58 94.5 44 c 128,-1,35
 84 30 84 30 75 20 c 0,36,37
 61 0 61 0 49.5 0.5 c 128,-1,38
 38 1 38 1 32 12.5 c 128,-1,39
 26 24 26 24 28 41 c 128,-1,40
 30 58 30 58 42 72 c 0,41,42
 80 124 80 124 122 174 c 128,-1,43
 164 224 164 224 209 276 c 0,44,45
 208 278 208 278 208.5 279 c 128,-1,46
 209 280 209 280 208 281 c 0,47,48
 205 327 205 327 196 374 c 0,49,50
 193 396 193 396 189.5 414.5 c 128,-1,51
 186 433 186 433 182 450 c 0,52,53
 177 467 177 467 173.5 481 c 128,-1,54
 170 495 170 495 166 503 c 0,55,56
 159 522 159 522 167 533.5 c 128,-1,57
 175 545 175 545 189 547.5 c 128,-1,58
 203 550 203 550 217.5 543.5 c 128,-1,59
 232 537 232 537 237 520 c 0,60,61
 242 509 242 509 246 493 c 128,-1,62
 250 477 250 477 252 459 c 0,63,64
 256 441 256 441 259.5 420.5 c 128,-1,65
 263 400 263 400 265 376 c 0,66,67
 267 371 267 371 268 364.5 c 128,-1,68
 269 358 269 358 270 352 c 1,69,-1
 294 383 l 2,70,71
 321 417 321 417 348.5 450 c 128,-1,72
 376 483 376 483 401 518 c 0,0,1
230 361 m 0,73,74
 229 359 229 359 229.5 358.5 c 128,-1,75
 230 358 230 358 230 357 c 2,76,-1
 230 370 l 2,77,78
 229 373 229 373 229 381 c 2,79,-1
 226 393 l 2,80,81
 226 397 226 397 225.5 400 c 128,-1,82
 225 403 225 403 225 408 c 2,83,-1
 223 423 l 2,84,85
 221 427 221 427 221 430.5 c 128,-1,86
 221 434 221 434 219 437 c 2,87,-1
 216 452 l 1,88,-1
 212 467 l 2,89,90
 211 472 211 472 207 480 c 0,91,92
 207 487 207 487 203 495 c 2,93,-1
 200 504 l 2,94,95
 200 506 200 506 198 512 c 0,96,97
 197 513 197 513 197 514 c 2,98,-1
 195 516 l 2,99,100
 195 515 195 515 195.5 514 c 128,-1,101
 196 513 196 513 196 510 c 0,102,103
 199 505 199 505 198 503 c 2,104,-1
 201 490 l 2,105,106
 203 484 203 484 203 478 c 0,107,108
 204 475 204 475 205 472 c 128,-1,109
 206 469 206 469 207 465 c 0,110,111
 207 456 207 456 210 450 c 2,112,-1
 214 435 l 1,113,-1
 218 421 l 2,114,115
 218 412 218 412 221 406 c 0,116,117
 221 396 221 396 223 392 c 2,118,-1
 225 379 l 2,119,120
 225 377 225 377 226 374.5 c 128,-1,121
 227 372 227 372 228 369 c 256,122,123
 229 366 229 366 228.5 364.5 c 128,-1,124
 228 363 228 363 230 361 c 0,73,74
122 114 m 1,125,-1
 134 128 l 1,126,-1
 144 143 l 2,127,128
 153 152 153 152 156 156 c 0,129,130
 159 165 159 165 166 169 c 2,131,-1
 172 179 l 2,132,133
 175 186 175 186 178 188 c 2,134,-1
 182 193 l 2,135,136
 183 194 183 194 183 195 c 2,137,-1
 182 194 l 1,138,-1
 180 191 l 1,139,-1
 177 188 l 2,140,141
 175 186 175 186 171 181 c 2,142,-1
 162 170 l 2,143,144
 160 168 160 168 158 165 c 128,-1,145
 156 162 156 162 154 159 c 0,146,147
 152 155 152 155 148.5 152 c 128,-1,148
 145 149 145 149 141 145 c 2,149,-1
 131 130 l 2,150,151
 124 124 124 124 119 116 c 2,152,-1
 105 101 l 1,153,-1
 95 87 l 2,154,155
 93 82 93 82 90.5 79 c 128,-1,156
 88 76 88 76 86 72 c 0,157,158
 80 66 80 66 77 59 c 2,159,-1
 67 50 l 2,160,161
 65 45 65 45 62 42 c 0,162,163
 60 41 60 41 60 38 c 0,164,165
 60 37 60 37 62 41 c 2,166,-1
 69 49 l 2,167,168
 75 53 75 53 78 58 c 0,169,170
 84 66 84 66 88 70 c 0,171,172
 90 73 90 73 92.5 76.5 c 128,-1,173
 95 80 95 80 98 83 c 0,174,175
 101 88 101 88 104.5 91.5 c 128,-1,176
 108 95 108 95 111 98 c 2,177,-1
 122 114 l 1,125,-1
221 331 m 1,178,-1
 221 335 l 2,179,180
 222 338 222 338 221 341 c 2,181,-1
 220 348 l 2,182,183
 219 356 219 356 218 366.5 c 128,-1,184
 217 377 217 377 215 388 c 0,185,186
 214 394 214 394 213 398.5 c 128,-1,187
 212 403 212 403 211 408 c 0,188,189
 210 414 210 414 208.5 418 c 128,-1,190
 207 422 207 422 206 426 c 0,191,192
 204 432 204 432 204 433 c 0,193,194
 201 434 201 434 201 437 c 0,195,196
 201 439 201 439 200.5 440 c 128,-1,197
 200 441 200 441 200 442 c 2,198,199
 200 442 200 442 200 440 c 2,200,-1
 200 437 l 2,201,202
 200 436 200 436 200.5 435 c 128,-1,203
 201 434 201 434 201 432 c 2,204,-1
 203 425 l 2,205,206
 204 421 204 421 203.5 416 c 128,-1,207
 203 411 203 411 205 406 c 256,208,209
 207 401 207 401 207.5 396 c 128,-1,210
 208 391 208 391 210 385 c 0,211,212
 212 373 212 373 214 365 c 2,213,-1
 217 347 l 2,214,215
 218 345 218 345 217.5 343 c 128,-1,216
 217 341 217 341 219 340 c 0,217,218
 220 338 220 338 220 334 c 2,219,-1
 220 332 l 1,220,-1
 221 331 l 1,178,-1
204 207 m 1,221,-1
 201 203 l 2,222,223
 198 200 198 200 198 198 c 2,224,-1
 194 192 l 2,225,226
 186 184 186 184 178.5 174.5 c 128,-1,227
 171 165 171 165 162 154 c 0,228,229
 152 144 152 144 147 134 c 0,230,231
 141 128 141 128 138 123.5 c 128,-1,232
 135 119 135 119 133 115 c 0,233,234
 131 113 131 113 129.5 111 c 128,-1,235
 128 109 128 109 128 107 c 0,236,237
 126 105 126 105 125.5 104 c 128,-1,238
 125 103 125 103 123 101 c 2,239,-1
 121 97 l 2,240,241
 123 98 123 98 123 99 c 2,242,243
 123 99 123 99 124 101 c 0,244,245
 126 102 126 102 126.5 103 c 128,-1,246
 127 104 127 104 129 106 c 0,247,248
 130 108 130 108 132 110 c 128,-1,249
 134 112 134 112 135 114 c 2,250,-1
 150 130 l 2,251,252
 154 136 154 136 157.5 141 c 128,-1,253
 161 146 161 146 166 151 c 0,254,255
 170 157 170 157 173 162 c 128,-1,256
 176 167 176 167 181 172 c 0,257,258
 185 177 185 177 188 181.5 c 128,-1,259
 191 186 191 186 195 190 c 2,260,-1
 199 197 l 2,261,262
 200 200 200 200 203 203 c 2,263,-1
 203 205 l 1,264,-1
 204 206 l 1,265,-1
 204 207 l 1,221,-1
206 516 m 0,266,267
 204 518 204 518 204 518 c 257,268,269
 204 518 204 518 205 515 c 2,270,-1
 208 508 l 2,271,272
 208 501 208 501 209 498 c 2,273,-1
 214 483 l 2,274,275
 214 480 214 480 215 477.5 c 128,-1,276
 216 475 216 475 217 472 c 0,277,278
 219 469 219 469 221 463 c 0,279,280
 221 456 221 456 222 455 c 1,281,282
 222 456 222 456 221.5 456.5 c 128,-1,283
 221 457 221 457 222 459 c 2,284,285
 222 459 222 459 222 463 c 2,286,-1
 219 473 l 2,287,288
 217 481 217 481 217 484 c 0,289,290
 216 488 216 488 214.5 492.5 c 128,-1,291
 213 497 213 497 211 499 c 0,292,293
 211 506 211 506 210 509 c 0,294,295
 208 510 208 510 206 516 c 0,266,267
63 52 m 2,296,297
 65 54 65 54 66.5 56.5 c 128,-1,298
 68 59 68 59 70 62 c 2,299,-1
 81 74 l 2,300,301
 83 77 83 77 85 80 c 128,-1,302
 87 83 87 83 89 85 c 2,303,-1
 97 96 l 2,304,305
 101 104 101 104 101 103 c 2,306,-1
 99 101 l 1,307,-1
 96 97 l 2,308,309
 95 94 95 94 88 87 c 0,310,311
 82 81 82 81 79 75 c 2,312,-1
 69 64 l 2,313,314
 64 56 64 56 61 53 c 0,315,316
 61 51 61 51 59.5 50 c 128,-1,317
 58 49 58 49 57 47 c 2,318,-1
 63 52 l 2,296,297
54 43 m 2,319,320
 54 44 54 44 55 44 c 2,321,322
 55 44 55 44 56 45 c 2,323,-1
 56 46 l 1,324,-1
 54 43 l 2,319,320
EndSplineSet
Validated: 37
EndChar

